%TF.GenerationSoftware,KiCad,Pcbnew,9.0.7*%
%TF.CreationDate,2026-04-28T15:27:04+05:30*%
%TF.ProjectId,ESPDrone_OG,45535044-726f-46e6-955f-4f472e6b6963,rev?*%
%TF.SameCoordinates,Original*%
%TF.FileFunction,Profile,NP*%
%FSLAX46Y46*%
G04 Gerber Fmt 4.6, Leading zero omitted, Abs format (unit mm)*
G04 Created by KiCad (PCBNEW 9.0.7) date 2026-04-28 15:27:04*
%MOMM*%
%LPD*%
G01*
G04 APERTURE LIST*
%TA.AperFunction,Profile*%
%ADD10C,0.250000*%
%TD*%
G04 APERTURE END LIST*
D10*
X111450618Y-57124452D02*
G75*
G02*
X111453104Y-56839125I141472J141442D01*
G01*
X115258388Y-60649381D02*
G75*
G02*
X114975547Y-60649381I-141420J141421D01*
G01*
X114975547Y-60649381D02*
X111450618Y-57124452D01*
X112104715Y-56187514D02*
G75*
G02*
X112387531Y-56187540I141395J-141436D01*
G01*
X111453104Y-56839125D02*
X112104715Y-56187514D01*
X115912464Y-59712465D02*
X112387535Y-56187536D01*
X115912464Y-59712465D02*
G75*
G02*
X115911459Y-59996310I-141432J-141424D01*
G01*
X115911459Y-59996310D02*
X115258388Y-60649381D01*
X184650618Y-129924452D02*
G75*
G02*
X184653104Y-129639125I141472J141442D01*
G01*
X188458388Y-133449381D02*
G75*
G02*
X188175547Y-133449381I-141420J141421D01*
G01*
X188175547Y-133449381D02*
X184650618Y-129924452D01*
X185304715Y-128987514D02*
G75*
G02*
X185587531Y-128987540I141395J-141436D01*
G01*
X184653104Y-129639125D02*
X185304715Y-128987514D01*
X189112464Y-132512465D02*
X185587535Y-128987536D01*
X189112464Y-132512465D02*
G75*
G02*
X189111459Y-132796310I-141432J-141424D01*
G01*
X189111459Y-132796310D02*
X188458388Y-133449381D01*
X187725548Y-56300618D02*
G75*
G02*
X188010875Y-56303104I141442J-141472D01*
G01*
X184200619Y-60108388D02*
G75*
G02*
X184200619Y-59825547I141421J141420D01*
G01*
X184200619Y-59825547D02*
X187725548Y-56300618D01*
X188662486Y-56954715D02*
G75*
G02*
X188662460Y-57237531I-141436J-141395D01*
G01*
X188010875Y-56303104D02*
X188662486Y-56954715D01*
X185137535Y-60762464D02*
X188662464Y-57237535D01*
X185137535Y-60762464D02*
G75*
G02*
X184853690Y-60761459I-141424J141432D01*
G01*
X184853690Y-60761459D02*
X184200619Y-60108388D01*
X114474929Y-128775071D02*
G75*
G02*
X114760257Y-128777556I141443J-141491D01*
G01*
X114760256Y-128777557D02*
X115411867Y-129429168D01*
X110950000Y-132300000D02*
X114474929Y-128775071D01*
X115411867Y-129429168D02*
G75*
G02*
X115411840Y-129711983I-141395J-141394D01*
G01*
X111886916Y-133236917D02*
X115411845Y-129711988D01*
X111886916Y-133236917D02*
G75*
G02*
X111603071Y-133235912I-141424J141435D01*
G01*
X111603071Y-133235912D02*
X110950000Y-132582841D01*
X110950000Y-132582841D02*
G75*
G02*
X110949999Y-132300000I141421J141421D01*
G01*
X109620674Y-122626731D02*
X111238607Y-117400032D01*
X100370481Y-144697617D02*
X99451242Y-143778378D01*
X182528450Y-106040014D02*
X182528450Y-100040014D01*
X199468450Y-101040014D02*
G75*
G02*
X200968450Y-99539950I1500050J14D01*
G01*
X110282360Y-116104327D02*
X104688686Y-116109755D01*
X197208450Y-110540014D02*
G75*
G02*
X196208450Y-111539950I-999950J14D01*
G01*
X117068449Y-90880014D02*
X115708450Y-90880014D01*
X101028450Y-103440014D02*
X101028450Y-105390013D01*
X104618196Y-127480809D02*
G75*
G02*
X103183379Y-126424386I-1896J1500009D01*
G01*
X103183428Y-63995658D02*
G75*
G02*
X104618196Y-62939251I1432872J-443542D01*
G01*
X197708450Y-84530014D02*
G75*
G02*
X197208486Y-84030014I50J500014D01*
G01*
X107353707Y-143648048D02*
X108011215Y-145635922D01*
X182528450Y-100040014D02*
G75*
G02*
X183028450Y-99539950I500050J14D01*
G01*
X190100630Y-68042309D02*
G75*
G02*
X192021287Y-66633816I1910470J-591391D01*
G01*
X197508235Y-145236008D02*
G75*
G02*
X191978175Y-145472309I-3087035J7417608D01*
G01*
X187848450Y-84030014D02*
G75*
G02*
X187348450Y-84530050I-500050J14D01*
G01*
X175048450Y-108810014D02*
X175048450Y-81610014D01*
X101028450Y-86980014D02*
X101028450Y-85030015D01*
X201455503Y-44378203D02*
X202859765Y-45494843D01*
X183028450Y-99540014D02*
X184388450Y-99540014D01*
X103888448Y-78880014D02*
X111248451Y-78880014D01*
X203204092Y-144080252D02*
X200607030Y-141416958D01*
X185888450Y-89380014D02*
X185888450Y-88280014D01*
X192836495Y-143550025D02*
X191978186Y-145472278D01*
X103209044Y-73387467D02*
X104825393Y-68165883D01*
X195450566Y-116072774D02*
G75*
G02*
X196404082Y-117368473I-1666J-999926D01*
G01*
X184848450Y-74650014D02*
X188144244Y-64003024D01*
X107330807Y-56882800D02*
G75*
G02*
X100050001Y-47874999I-1866250J5937909D01*
G01*
X98068451Y-90880014D02*
G75*
G02*
X97568486Y-90380012I49J500014D01*
G01*
X114108450Y-86980014D02*
X114108450Y-85030015D01*
X114208450Y-89380014D02*
X115708450Y-90880014D01*
X98068451Y-90880014D02*
X99128449Y-90880014D01*
X199468450Y-88280014D02*
X200618450Y-88280014D01*
X200208450Y-74640014D02*
X196913471Y-63995655D01*
X184438450Y-102140014D02*
X184438450Y-103440014D01*
X99888450Y-107040015D02*
X99888450Y-115780014D01*
X111841128Y-126170449D02*
G75*
G02*
X110521557Y-127473535I-1596428J296949D01*
G01*
X202528450Y-90380014D02*
G75*
G02*
X202028450Y-90880050I-500050J14D01*
G01*
X107266267Y-124036374D02*
X107714866Y-124035309D01*
X197208450Y-84030014D02*
X197208450Y-79880014D01*
X188885669Y-117358823D02*
X190505997Y-122593260D01*
X185988450Y-103440014D02*
X185988450Y-105390014D01*
X102458556Y-145075063D02*
X100111139Y-147381044D01*
X109518179Y-48744038D02*
G75*
G02*
X106858516Y-46690447I-3815129J-2191982D01*
G01*
X125048450Y-113960014D02*
X107654378Y-133278087D01*
X200618450Y-86980014D02*
X199068450Y-86980014D01*
X185888450Y-101040014D02*
X185888450Y-102140014D01*
X115748451Y-106540014D02*
X117068449Y-106540014D01*
X106742707Y-66757312D02*
X107780509Y-66760819D01*
X184438450Y-86980014D02*
X185988450Y-86980014D01*
X98068451Y-106540014D02*
G75*
G02*
X97568486Y-106040012I49J500014D01*
G01*
X103379123Y-44779210D02*
G75*
G02*
X107491587Y-44654262I2299877J-7956690D01*
G01*
X189438401Y-74561004D02*
G75*
G02*
X188483910Y-73265316I799J1000004D01*
G01*
X187848450Y-106390014D02*
X187848450Y-110540014D01*
X112248450Y-106390015D02*
G75*
G02*
X112748451Y-105889950I500050J15D01*
G01*
X111310520Y-73422837D02*
G75*
G02*
X110345675Y-74692851I-963320J-269663D01*
G01*
X102888450Y-84030013D02*
G75*
G02*
X102388449Y-84530050I-500050J13D01*
G01*
X175048450Y-112310014D02*
X175048450Y-113960014D01*
X102888450Y-106390015D02*
X102888450Y-110540015D01*
X99558207Y-141241795D02*
G75*
G02*
X107654377Y-133278089I6266493J1726545D01*
G01*
X200558392Y-144017042D02*
X201879530Y-145371873D01*
X115248450Y-108810014D02*
X115248450Y-107040015D01*
X192255190Y-47064193D02*
G75*
G02*
X190290432Y-49254096I2104210J-3864207D01*
G01*
X192406281Y-123995772D02*
X192878023Y-123997746D01*
X203204092Y-144080252D02*
X201879530Y-145371873D01*
X184438450Y-103440014D02*
X185988450Y-103440014D01*
X191075757Y-45320753D02*
G75*
G02*
X196630684Y-44840194I3283543J-5609647D01*
G01*
X114208450Y-101040014D02*
X114208450Y-102140014D01*
X196913470Y-126424377D02*
G75*
G02*
X195482574Y-127480758I-1432870J443577D01*
G01*
X125048450Y-78110014D02*
X125048450Y-76460014D01*
X200708450Y-83880014D02*
G75*
G02*
X200208486Y-83380014I50J500014D01*
G01*
X99888450Y-115780014D02*
X103183428Y-126424371D01*
X195478702Y-62939219D02*
G75*
G02*
X196913410Y-63995674I1798J-1499981D01*
G01*
X100628450Y-89380013D02*
X100628450Y-88280014D01*
X100628450Y-101040015D02*
X100628450Y-102140014D01*
X109684307Y-68169390D02*
X111310520Y-73422840D01*
X200968450Y-90880014D02*
G75*
G02*
X199468486Y-89380014I50J1500014D01*
G01*
X186488450Y-105890014D02*
X187348450Y-105890014D01*
X199627653Y-144924634D02*
X200947153Y-146277786D01*
X117068449Y-99540014D02*
X115708450Y-99540014D01*
X199637286Y-147405833D02*
X200947153Y-146277786D01*
X199068450Y-105390014D02*
G75*
G02*
X198568450Y-105890050I-500050J14D01*
G01*
X115248450Y-78110014D02*
X115248450Y-74650014D01*
X104618196Y-62939219D02*
X110521556Y-62946493D01*
X115658450Y-86980014D02*
X114108450Y-86980014D01*
X184848450Y-81610014D02*
X184848450Y-83380014D01*
X107353707Y-143648048D02*
G75*
G02*
X109848084Y-141290094I-1535997J4123188D01*
G01*
X199627653Y-144924634D02*
X200558392Y-144017042D01*
X175048450Y-76460014D02*
X192443508Y-57140845D01*
X113608449Y-84530014D02*
G75*
G02*
X114108386Y-85030015I-49J-499986D01*
G01*
X131288667Y-120200231D02*
X112019721Y-137550068D01*
X199068450Y-86980014D02*
X199068450Y-85030014D01*
X199468450Y-101040014D02*
X199468450Y-102140014D01*
X184848450Y-108810014D02*
X184848450Y-107040014D01*
X185888450Y-101040014D02*
X184388450Y-99540014D01*
X99496707Y-43349041D02*
X100833139Y-44685473D01*
X98114810Y-145114810D02*
X99451242Y-143778378D01*
X182528450Y-84380014D02*
X182528450Y-90380014D01*
X99888450Y-83380013D02*
X99888450Y-74640014D01*
X115248450Y-81610014D02*
X115248450Y-83380012D01*
X99888450Y-83380013D02*
G75*
G02*
X99388449Y-83880050I-500050J13D01*
G01*
X192731554Y-66635022D02*
G75*
G02*
X194641857Y-68053601I-3454J-2000178D01*
G01*
X104618196Y-127480809D02*
X110521557Y-127473535D01*
X98577469Y-44268280D02*
X99913900Y-45604712D01*
X125048450Y-78110014D02*
X115248450Y-78110014D01*
X200536265Y-43458964D02*
X199199833Y-44795396D01*
X175048450Y-78110014D02*
X175048450Y-76460014D01*
X188848450Y-111540014D02*
X196208450Y-111540014D01*
X175048450Y-113960014D02*
X192424123Y-133257654D01*
X115248450Y-74650014D02*
X111952626Y-64002930D01*
X175048450Y-78110014D02*
X184848450Y-78110014D01*
X188848450Y-111540014D02*
G75*
G02*
X187848386Y-110540014I-50J1000014D01*
G01*
X101528451Y-105890014D02*
X102388449Y-105890014D01*
X99388449Y-106540014D02*
G75*
G02*
X99888386Y-107040015I-49J-499986D01*
G01*
X125048450Y-108810014D02*
X115248450Y-108810014D01*
X117068449Y-99540014D02*
G75*
G02*
X117568386Y-100040015I-49J-499986D01*
G01*
X115248450Y-115770014D02*
X111841128Y-126170445D01*
X112248450Y-110540015D02*
G75*
G02*
X111248452Y-111539950I-999950J15D01*
G01*
X189575302Y-127473535D02*
X195482574Y-127480814D01*
X104825393Y-68165883D02*
G75*
G02*
X106742707Y-66757359I1910507J-591417D01*
G01*
X102888450Y-84030013D02*
X102888450Y-79880013D01*
X106858517Y-46690444D02*
X107491585Y-44654270D01*
X114108450Y-105390013D02*
G75*
G02*
X113608449Y-105890050I-500050J13D01*
G01*
X185988450Y-85030014D02*
G75*
G02*
X186488450Y-84529950I500050J14D01*
G01*
X185988450Y-86980014D02*
X185988450Y-85030014D01*
X184348450Y-83880014D02*
X183028450Y-83880014D01*
X202528450Y-106040014D02*
G75*
G02*
X202028450Y-106540050I-500050J14D01*
G01*
X200208450Y-107040014D02*
G75*
G02*
X200708450Y-106539950I500050J14D01*
G01*
X98068451Y-106540014D02*
X99388449Y-106540014D01*
X103734379Y-117405462D02*
X105350961Y-122627795D01*
X198568450Y-84530014D02*
G75*
G02*
X199068386Y-85030014I-50J-499986D01*
G01*
X99888450Y-74640014D02*
X103183428Y-63995658D01*
X200208450Y-115780014D02*
X196913470Y-126424377D01*
X115748451Y-83880014D02*
G75*
G02*
X115248486Y-83380012I49J500014D01*
G01*
X117568450Y-90380013D02*
G75*
G02*
X117068449Y-90880050I-500050J13D01*
G01*
X199068450Y-103440014D02*
X199068450Y-105390014D01*
X184848450Y-115770014D02*
X188144273Y-126417098D01*
X125048450Y-81610014D02*
X115248450Y-81610014D01*
X189575402Y-62946523D02*
X195478702Y-62939219D01*
X184848450Y-78110014D02*
X184848450Y-74650014D01*
X115658450Y-102140014D02*
X115658450Y-103440014D01*
X114208450Y-88280014D02*
X115658450Y-88280014D01*
X115708450Y-99540014D02*
X114208450Y-101040014D01*
X101028450Y-85030015D02*
G75*
G02*
X101528451Y-84529950I500050J15D01*
G01*
X175048450Y-81610014D02*
X184848450Y-81610014D01*
X189438401Y-74561004D02*
X195300465Y-74565394D01*
X198568450Y-84530014D02*
X197708450Y-84530014D01*
X189575302Y-127473535D02*
G75*
G02*
X188144301Y-126417089I1798J1499835D01*
G01*
X196256501Y-73269714D02*
G75*
G02*
X195300465Y-74565415I-955301J-295686D01*
G01*
X131288667Y-120200231D02*
X168808233Y-120200231D01*
X202028450Y-83880014D02*
X200708450Y-83880014D01*
X115658450Y-88280014D02*
X115658450Y-86980014D01*
X104162806Y-74683173D02*
X110345676Y-74692537D01*
X198568450Y-105890014D02*
X197708450Y-105890014D01*
X103379123Y-44779210D02*
X100722831Y-42122918D01*
X191276120Y-142520444D02*
G75*
G02*
X192836490Y-143550038I3148180J3073944D01*
G01*
X100050000Y-47875000D02*
X97227938Y-45364149D01*
X200225154Y-48129454D02*
G75*
G02*
X192443531Y-57140771I-5865954J-2800046D01*
G01*
X189985804Y-144378996D02*
X191276120Y-142520444D01*
X103888449Y-111540014D02*
G75*
G02*
X102888386Y-110540015I-49J1000014D01*
G01*
X202528450Y-106040014D02*
X202528450Y-100040014D01*
X100628450Y-102140014D02*
X99478450Y-102140014D01*
X125048450Y-112310014D02*
X125048450Y-113960014D01*
X199199833Y-44795396D02*
X200119072Y-45714635D01*
X102388449Y-105890014D02*
G75*
G02*
X102888386Y-106390015I-49J-499986D01*
G01*
X188546467Y-48023979D02*
X190290416Y-49254090D01*
X98577469Y-44268280D02*
X97227938Y-45364149D01*
X109848086Y-141290095D02*
X111799327Y-142063547D01*
X100628450Y-89380013D02*
G75*
G02*
X99128449Y-90880050I-1500050J13D01*
G01*
X99478450Y-103440014D02*
X101028450Y-103440014D01*
X109620674Y-122626731D02*
G75*
G02*
X107714866Y-124035315I-1910574J591431D01*
G01*
X184848450Y-83380014D02*
G75*
G02*
X184348450Y-83880050I-500050J14D01*
G01*
X97568450Y-84380015D02*
G75*
G02*
X98068451Y-83879950I500050J15D01*
G01*
X183028450Y-90880014D02*
G75*
G02*
X182528486Y-90380014I50J500014D01*
G01*
X196208450Y-78880014D02*
G75*
G02*
X197208486Y-79880014I50J-999986D01*
G01*
X125048450Y-76460014D02*
X107330807Y-56882800D01*
X184438450Y-88280014D02*
X184438450Y-86980014D01*
X125048450Y-112310014D02*
X115248450Y-112310014D01*
X114208450Y-102140014D02*
X115658450Y-102140014D01*
X197208450Y-106390014D02*
X197208450Y-110540014D01*
X202028450Y-99540014D02*
G75*
G02*
X202528386Y-100040014I-50J-499986D01*
G01*
X168808233Y-70219797D02*
X188140116Y-52813291D01*
X175048450Y-112310014D02*
X184848450Y-112310014D01*
X188885669Y-117358823D02*
G75*
G02*
X189851151Y-116063193I955231J295723D01*
G01*
X115248450Y-107040015D02*
G75*
G02*
X115748451Y-106539950I500050J15D01*
G01*
X184348450Y-106540014D02*
X183028450Y-106540014D01*
X99128449Y-99540014D02*
G75*
G02*
X100628386Y-101040015I-49J-1499986D01*
G01*
X112019721Y-137550068D02*
G75*
G02*
X111799329Y-142063548I-6197621J-1959492D01*
G01*
X103734379Y-117405462D02*
G75*
G02*
X104688686Y-116109773I955321J295662D01*
G01*
X99034049Y-146034049D02*
X100370481Y-144697617D01*
X101528451Y-84530014D02*
X102388449Y-84530014D01*
X98068451Y-99540014D02*
X99128449Y-99540014D01*
X113608449Y-105890014D02*
X112748451Y-105890014D01*
X99558207Y-141241795D02*
X96900000Y-143900000D01*
X107780509Y-66760819D02*
G75*
G02*
X109684347Y-68169378I-6709J-1999981D01*
G01*
X199468450Y-102140014D02*
X200618450Y-102140014D01*
X99478450Y-102140014D02*
X99478450Y-103440014D01*
X110282360Y-116104327D02*
G75*
G02*
X111238549Y-117400014I940J-999973D01*
G01*
X202859765Y-45494843D02*
X200225154Y-48129454D01*
X183028450Y-106540014D02*
G75*
G02*
X182528486Y-106040014I50J500014D01*
G01*
X200208450Y-83380014D02*
X200208450Y-74640014D01*
X112248450Y-84030013D02*
X112248450Y-79880013D01*
X188848450Y-78880014D02*
X196208450Y-78880014D01*
X194788040Y-122589140D02*
G75*
G02*
X192878023Y-123997691I-1910540J591440D01*
G01*
X97568450Y-100040015D02*
G75*
G02*
X98068451Y-99539950I500050J15D01*
G01*
X187848450Y-84030014D02*
X187848450Y-79880014D01*
X192424123Y-133257654D02*
G75*
G02*
X200607072Y-141416972I1988977J-6188246D01*
G01*
X197208450Y-106390014D02*
G75*
G02*
X197708450Y-105889950I500050J14D01*
G01*
X194641845Y-68053605D02*
X196256501Y-73269714D01*
X115748451Y-83880014D02*
X117568450Y-83880014D01*
X131288667Y-70219797D02*
X168808233Y-70219797D01*
X111248451Y-78880014D02*
G75*
G02*
X112248486Y-79880013I49J-999986D01*
G01*
X175048450Y-108810014D02*
X184848450Y-108810014D01*
X104162806Y-74683173D02*
G75*
G02*
X103209055Y-73387471I1494J999973D01*
G01*
X189985804Y-144378996D02*
G75*
G02*
X188175424Y-137638532I5274496J5029996D01*
G01*
X200618450Y-88280014D02*
X200618450Y-86980014D01*
X168808233Y-120200231D02*
X188175426Y-137638532D01*
X199274079Y-42196778D02*
X200536265Y-43458964D01*
X115658450Y-103440014D02*
X114108450Y-103440014D01*
X183028450Y-90880014D02*
X184388450Y-90880014D01*
X96900000Y-143900000D02*
X98114810Y-145114810D01*
X114108450Y-103440014D02*
X114108450Y-105390013D01*
X202028450Y-83880014D02*
G75*
G02*
X202528386Y-84380014I-50J-499986D01*
G01*
X112248450Y-106390015D02*
X112248450Y-110540015D01*
X182528450Y-84380014D02*
G75*
G02*
X183028450Y-83879950I500050J14D01*
G01*
X201455503Y-44378203D02*
X200119072Y-45714635D01*
X192021287Y-66633778D02*
X192731554Y-66635022D01*
X117568450Y-106040013D02*
G75*
G02*
X117068449Y-106540050I-500050J13D01*
G01*
X113608449Y-84530014D02*
X112748451Y-84530014D01*
X199274079Y-42196778D02*
X196630696Y-44840162D01*
X202028450Y-99540014D02*
X200968450Y-99540014D01*
X189851151Y-116063164D02*
X195450566Y-116072774D01*
X187848450Y-79880014D02*
G75*
G02*
X188848450Y-78880050I999950J14D01*
G01*
X115248450Y-112310014D02*
X115248450Y-115770014D01*
X117568450Y-106040013D02*
X117568450Y-100040015D01*
X186488450Y-84530014D02*
X187348450Y-84530014D01*
X100833139Y-44685473D02*
X99913900Y-45604712D01*
X111274664Y-47616109D02*
G75*
G02*
X111939487Y-52797702I-5567564J-3347791D01*
G01*
X125048450Y-108810014D02*
X125048450Y-81610014D01*
X131288667Y-70219797D02*
X111939463Y-52797695D01*
X97568450Y-84380015D02*
X97568450Y-90380012D01*
X194788040Y-122589140D02*
X196404104Y-117368480D01*
X102888450Y-79880013D02*
G75*
G02*
X103888448Y-78880050I999950J13D01*
G01*
X110521555Y-62946491D02*
G75*
G02*
X111952626Y-64002930I-1855J-1500009D01*
G01*
X188140116Y-52813291D02*
G75*
G02*
X188546455Y-48023973I6220984J1884091D01*
G01*
X100628450Y-88280014D02*
X99478450Y-88280014D01*
X101528451Y-105890014D02*
G75*
G02*
X101028486Y-105390013I49J500014D01*
G01*
X99478450Y-86980014D02*
X101028450Y-86980014D01*
X117568450Y-83880014D02*
X117568450Y-90380013D01*
X112748451Y-84530014D02*
G75*
G02*
X112248486Y-84030013I49J500014D01*
G01*
X186488450Y-105890014D02*
G75*
G02*
X185988486Y-105390014I50J500014D01*
G01*
X184848450Y-112310014D02*
X184848450Y-115770014D01*
X188144208Y-64003014D02*
G75*
G02*
X189575402Y-62946523I1432992J-443586D01*
G01*
X202528450Y-84380014D02*
X202528450Y-90380014D01*
X98068451Y-83880014D02*
X99388449Y-83880014D01*
X200618450Y-103440014D02*
X199068450Y-103440014D01*
X111274664Y-47616109D02*
X109518179Y-48744038D01*
X108011215Y-145635922D02*
G75*
G02*
X102458579Y-145075025I-2186315J6121222D01*
G01*
X99034049Y-146034049D02*
X100111139Y-147381044D01*
X188483845Y-73265296D02*
X190100630Y-68042309D01*
X185888450Y-102140014D02*
X184438450Y-102140014D01*
X202028450Y-106540014D02*
X200708450Y-106540014D01*
X107266267Y-124036374D02*
G75*
G02*
X105350958Y-122627796I-4767J1999974D01*
G01*
X187348450Y-105890014D02*
G75*
G02*
X187848386Y-106390014I-50J-499986D01*
G01*
X103888449Y-111540014D02*
X111248452Y-111540014D01*
X185888450Y-88280014D02*
X184438450Y-88280014D01*
X185888450Y-89380014D02*
X184388450Y-90880014D01*
X97568450Y-106040012D02*
X97568450Y-100040015D01*
X114208450Y-89380014D02*
X114208450Y-88280014D01*
X191075757Y-45320753D02*
X192255190Y-47064193D01*
X99478450Y-88280014D02*
X99478450Y-86980014D01*
X192406281Y-123995772D02*
G75*
G02*
X190506032Y-122593249I8419J1999972D01*
G01*
X184348450Y-106540014D02*
G75*
G02*
X184848386Y-107040014I-50J-499986D01*
G01*
X202028450Y-90880014D02*
X200968450Y-90880014D01*
X100722831Y-42122918D02*
X99496707Y-43349041D01*
X199468450Y-89380014D02*
X199468450Y-88280014D01*
X200208450Y-107040014D02*
X200208450Y-115780014D01*
X200618450Y-102140014D02*
X200618450Y-103440014D01*
X199637286Y-147405833D02*
X197508235Y-145236008D01*
M02*
