%TF.GenerationSoftware,KiCad,Pcbnew,9.0.7*%
%TF.CreationDate,2026-04-28T15:27:04+05:30*%
%TF.ProjectId,ESPDrone_OG,45535044-726f-46e6-955f-4f472e6b6963,rev?*%
%TF.SameCoordinates,Original*%
%TF.FileFunction,Paste,Top*%
%TF.FilePolarity,Positive*%
%FSLAX46Y46*%
G04 Gerber Fmt 4.6, Leading zero omitted, Abs format (unit mm)*
G04 Created by KiCad (PCBNEW 9.0.7) date 2026-04-28 15:27:04*
%MOMM*%
%LPD*%
G01*
G04 APERTURE LIST*
G04 Aperture macros list*
%AMRoundRect*
0 Rectangle with rounded corners*
0 $1 Rounding radius*
0 $2 $3 $4 $5 $6 $7 $8 $9 X,Y pos of 4 corners*
0 Add a 4 corners polygon primitive as box body*
4,1,4,$2,$3,$4,$5,$6,$7,$8,$9,$2,$3,0*
0 Add four circle primitives for the rounded corners*
1,1,$1+$1,$2,$3*
1,1,$1+$1,$4,$5*
1,1,$1+$1,$6,$7*
1,1,$1+$1,$8,$9*
0 Add four rect primitives between the rounded corners*
20,1,$1+$1,$2,$3,$4,$5,0*
20,1,$1+$1,$4,$5,$6,$7,0*
20,1,$1+$1,$6,$7,$8,$9,0*
20,1,$1+$1,$8,$9,$2,$3,0*%
G04 Aperture macros list end*
%ADD10RoundRect,0.150000X0.150000X-0.512500X0.150000X0.512500X-0.150000X0.512500X-0.150000X-0.512500X0*%
%ADD11RoundRect,0.250000X-0.601041X0.954594X-0.954594X0.601041X0.601041X-0.954594X0.954594X-0.601041X0*%
%ADD12RoundRect,0.150000X-0.388909X0.601041X-0.601041X0.388909X0.388909X-0.601041X0.601041X-0.388909X0*%
%ADD13RoundRect,0.075000X0.350000X0.075000X-0.350000X0.075000X-0.350000X-0.075000X0.350000X-0.075000X0*%
%ADD14RoundRect,0.075000X-0.075000X0.350000X-0.075000X-0.350000X0.075000X-0.350000X0.075000X0.350000X0*%
%ADD15R,2.600000X2.600000*%
%ADD16R,1.500000X0.900000*%
%ADD17R,0.900000X1.500000*%
%ADD18R,0.900000X0.900000*%
%ADD19RoundRect,0.250000X0.440000X-0.255000X0.440000X0.255000X-0.440000X0.255000X-0.440000X-0.255000X0*%
%ADD20RoundRect,0.150000X0.150000X-0.825000X0.150000X0.825000X-0.150000X0.825000X-0.150000X-0.825000X0*%
%ADD21R,0.900000X0.350000*%
%ADD22RoundRect,0.250000X1.000000X0.650000X-1.000000X0.650000X-1.000000X-0.650000X1.000000X-0.650000X0*%
%ADD23RoundRect,0.200000X-0.275000X0.200000X-0.275000X-0.200000X0.275000X-0.200000X0.275000X0.200000X0*%
%ADD24RoundRect,0.200000X0.200000X0.275000X-0.200000X0.275000X-0.200000X-0.275000X0.200000X-0.275000X0*%
%ADD25RoundRect,0.225000X0.250000X-0.225000X0.250000X0.225000X-0.250000X0.225000X-0.250000X-0.225000X0*%
%ADD26RoundRect,0.225000X-0.225000X-0.250000X0.225000X-0.250000X0.225000X0.250000X-0.225000X0.250000X0*%
%ADD27RoundRect,0.150000X0.150000X0.500000X-0.150000X0.500000X-0.150000X-0.500000X0.150000X-0.500000X0*%
%ADD28RoundRect,0.175000X0.350000X0.175000X-0.350000X0.175000X-0.350000X-0.175000X0.350000X-0.175000X0*%
%ADD29RoundRect,0.250000X-0.954594X-0.601041X-0.601041X-0.954594X0.954594X0.601041X0.601041X0.954594X0*%
%ADD30RoundRect,0.150000X-0.601041X-0.388909X-0.388909X-0.601041X0.601041X0.388909X0.388909X0.601041X0*%
%ADD31RoundRect,0.225000X0.225000X0.225000X-0.225000X0.225000X-0.225000X-0.225000X0.225000X-0.225000X0*%
%ADD32RoundRect,0.062500X0.337500X0.062500X-0.337500X0.062500X-0.337500X-0.062500X0.337500X-0.062500X0*%
%ADD33RoundRect,0.062500X0.062500X0.337500X-0.062500X0.337500X-0.062500X-0.337500X0.062500X-0.337500X0*%
%ADD34RoundRect,0.112500X-0.053033X-0.212132X0.212132X0.053033X0.053033X0.212132X-0.212132X-0.053033X0*%
%ADD35RoundRect,0.112500X-0.112500X0.187500X-0.112500X-0.187500X0.112500X-0.187500X0.112500X0.187500X0*%
%ADD36RoundRect,0.112500X0.053033X0.212132X-0.212132X-0.053033X-0.053033X-0.212132X0.212132X0.053033X0*%
%ADD37RoundRect,0.112500X0.212132X-0.053033X-0.053033X0.212132X-0.212132X0.053033X0.053033X-0.212132X0*%
%ADD38RoundRect,0.150000X-0.150000X0.512500X-0.150000X-0.512500X0.150000X-0.512500X0.150000X0.512500X0*%
%ADD39R,1.000000X0.550000*%
%ADD40RoundRect,0.200000X0.275000X-0.200000X0.275000X0.200000X-0.275000X0.200000X-0.275000X-0.200000X0*%
%ADD41RoundRect,0.200000X-0.200000X-0.275000X0.200000X-0.275000X0.200000X0.275000X-0.200000X0.275000X0*%
%ADD42RoundRect,0.150000X-0.587500X-0.150000X0.587500X-0.150000X0.587500X0.150000X-0.587500X0.150000X0*%
%ADD43RoundRect,0.218750X0.256250X-0.218750X0.256250X0.218750X-0.256250X0.218750X-0.256250X-0.218750X0*%
%ADD44RoundRect,0.218750X0.218750X0.256250X-0.218750X0.256250X-0.218750X-0.256250X0.218750X-0.256250X0*%
%ADD45RoundRect,0.218750X-0.218750X-0.256250X0.218750X-0.256250X0.218750X0.256250X-0.218750X0.256250X0*%
%ADD46RoundRect,0.150000X0.388909X-0.601041X0.601041X-0.388909X-0.388909X0.601041X-0.601041X0.388909X0*%
%ADD47RoundRect,0.250000X0.601041X-0.954594X0.954594X-0.601041X-0.601041X0.954594X-0.954594X0.601041X0*%
%ADD48RoundRect,0.150000X0.601041X0.388909X0.388909X0.601041X-0.601041X-0.388909X-0.388909X-0.601041X0*%
%ADD49RoundRect,0.250000X0.954594X0.601041X0.601041X0.954594X-0.954594X-0.601041X-0.601041X-0.954594X0*%
%ADD50RoundRect,0.250000X-2.500000X0.250000X-2.500000X-0.250000X2.500000X-0.250000X2.500000X0.250000X0*%
%ADD51RoundRect,0.250000X-1.250000X0.550000X-1.250000X-0.550000X1.250000X-0.550000X1.250000X0.550000X0*%
%ADD52R,0.600000X1.240000*%
%ADD53R,0.300000X1.240000*%
%ADD54RoundRect,0.225000X-0.017678X0.335876X-0.335876X0.017678X0.017678X-0.335876X0.335876X-0.017678X0*%
%ADD55RoundRect,0.225000X0.225000X0.250000X-0.225000X0.250000X-0.225000X-0.250000X0.225000X-0.250000X0*%
%ADD56RoundRect,0.225000X-0.250000X0.225000X-0.250000X-0.225000X0.250000X-0.225000X0.250000X0.225000X0*%
%ADD57RoundRect,0.250000X-0.250000X-0.475000X0.250000X-0.475000X0.250000X0.475000X-0.250000X0.475000X0*%
G04 APERTURE END LIST*
D10*
%TO.C,Q5*%
X172400000Y-81400000D03*
X173350000Y-83675000D03*
X171450000Y-83675000D03*
%TD*%
D11*
%TO.C,J6*%
X126519581Y-75119759D03*
X130019759Y-71619581D03*
D12*
X130090470Y-76074353D03*
X130974353Y-75190470D03*
%TD*%
D13*
%TO.C,U5*%
X152000000Y-96500000D03*
X152000000Y-96000000D03*
X152000000Y-95500000D03*
X152000000Y-95000000D03*
X152000000Y-94500000D03*
X152000000Y-94000000D03*
D14*
X151300000Y-93300000D03*
X150800000Y-93300000D03*
X150300000Y-93300000D03*
X149800000Y-93300000D03*
X149300000Y-93300000D03*
X148800000Y-93300000D03*
D13*
X148100000Y-94000000D03*
X148100000Y-94500000D03*
X148100000Y-95000000D03*
X148100000Y-95500000D03*
X148100000Y-96000000D03*
X148100000Y-96500000D03*
D14*
X148800000Y-97200000D03*
X149300000Y-97200000D03*
X149800000Y-97200000D03*
X150300000Y-97200000D03*
X150800000Y-97200000D03*
X151300000Y-97200000D03*
D15*
X150050000Y-95250000D03*
%TD*%
D16*
%TO.C,ESP32-WROOM-32E*%
X158950000Y-119150000D03*
X158950000Y-117880000D03*
X158950000Y-116610000D03*
X158950000Y-115340000D03*
X158950000Y-114070000D03*
X158950000Y-112800000D03*
X158950000Y-111530000D03*
X158950000Y-110260000D03*
X158950000Y-108990000D03*
X158950000Y-107720000D03*
X158950000Y-106450000D03*
X158950000Y-105180000D03*
X158950000Y-103910000D03*
X158950000Y-102640000D03*
D17*
X155910000Y-101390000D03*
X154640000Y-101390000D03*
X153370000Y-101390000D03*
X152100000Y-101390000D03*
X150830000Y-101390000D03*
X149560000Y-101390000D03*
X148290000Y-101390000D03*
X147020000Y-101390000D03*
X145750000Y-101390000D03*
X144480000Y-101390000D03*
D16*
X141450000Y-102640000D03*
X141450000Y-103910000D03*
X141450000Y-105180000D03*
X141450000Y-106450000D03*
X141450000Y-107720000D03*
X141450000Y-108990000D03*
X141450000Y-110260000D03*
X141450000Y-111530000D03*
X141450000Y-112800000D03*
X141450000Y-114070000D03*
X141450000Y-115340000D03*
X141450000Y-116610000D03*
X141450000Y-117880000D03*
X141450000Y-119150000D03*
D18*
X153100000Y-112830000D03*
X153100000Y-111430000D03*
X153100000Y-110030000D03*
X151700000Y-112830000D03*
X151700000Y-111430000D03*
X151700000Y-110030000D03*
X150300000Y-112830000D03*
X150300000Y-111430000D03*
X150300000Y-110030000D03*
%TD*%
D19*
%TO.C,U2*%
X159500000Y-78700000D03*
X161150000Y-78700000D03*
X159500000Y-77500000D03*
X161150000Y-77500000D03*
D20*
X158420000Y-80575000D03*
X159690000Y-80575000D03*
X160960000Y-80575000D03*
X162230000Y-80575000D03*
X162230000Y-75625000D03*
X160960000Y-75625000D03*
X159690000Y-75625000D03*
X158420000Y-75625000D03*
%TD*%
D21*
%TO.C,Q2*%
X133800000Y-92900000D03*
X133800000Y-93550000D03*
X133800000Y-94200000D03*
X135400000Y-94200000D03*
X135400000Y-93550000D03*
X135400000Y-92900000D03*
%TD*%
D22*
%TO.C,D1*%
X148600000Y-85300000D03*
X152600000Y-85300000D03*
%TD*%
D23*
%TO.C,R3*%
X151800000Y-82825000D03*
X151800000Y-81175000D03*
%TD*%
%TO.C,R4*%
X149400000Y-82800000D03*
X149400000Y-81150000D03*
%TD*%
D24*
%TO.C,R13*%
X138205000Y-83220000D03*
X139855000Y-83220000D03*
%TD*%
D25*
%TO.C,C8*%
X145330000Y-82245000D03*
X145330000Y-83795000D03*
%TD*%
D26*
%TO.C,C17*%
X168375000Y-83200000D03*
X166825000Y-83200000D03*
%TD*%
D27*
%TO.C,SW2*%
X141550000Y-74275000D03*
X138550000Y-74275000D03*
X137050000Y-74275000D03*
D28*
X142975000Y-73425000D03*
X142975000Y-71225000D03*
X135625000Y-73425000D03*
X135625000Y-71225000D03*
%TD*%
D24*
%TO.C,R28*%
X138750000Y-76100000D03*
X137100000Y-76100000D03*
%TD*%
D29*
%TO.C,J5*%
X129919759Y-118880419D03*
X126419581Y-115380241D03*
D30*
X130874353Y-115309530D03*
X129990470Y-114425647D03*
%TD*%
D31*
%TO.C,U3*%
X140600000Y-88240000D03*
X140600000Y-87120000D03*
X140600000Y-86000000D03*
X139480000Y-88240000D03*
X139480000Y-87120000D03*
X139480000Y-86000000D03*
X138360000Y-88240000D03*
X138360000Y-87120000D03*
X138360000Y-86000000D03*
D32*
X141930000Y-88620000D03*
X141930000Y-88120000D03*
X141930000Y-87620000D03*
X141930000Y-87120000D03*
X141930000Y-86620000D03*
X141930000Y-86120000D03*
X141930000Y-85620000D03*
D33*
X140980000Y-84670000D03*
X140480000Y-84670000D03*
X139980000Y-84670000D03*
X139480000Y-84670000D03*
X138980000Y-84670000D03*
X138480000Y-84670000D03*
X137980000Y-84670000D03*
D32*
X137030000Y-85620000D03*
X137030000Y-86120000D03*
X137030000Y-86620000D03*
X137030000Y-87120000D03*
X137030000Y-87620000D03*
X137030000Y-88120000D03*
X137030000Y-88620000D03*
D33*
X137980000Y-89570000D03*
X138480000Y-89570000D03*
X138980000Y-89570000D03*
X139480000Y-89570000D03*
X139980000Y-89570000D03*
X140480000Y-89570000D03*
X140980000Y-89570000D03*
%TD*%
D34*
%TO.C,D5*%
X167115076Y-113684924D03*
X168600000Y-112200000D03*
%TD*%
D35*
%TO.C,D4*%
X168675000Y-79650000D03*
X168675000Y-81750000D03*
%TD*%
D36*
%TO.C,D3*%
X133200000Y-76800000D03*
X131715076Y-78284924D03*
%TD*%
D37*
%TO.C,D2*%
X132942462Y-113742462D03*
X131457538Y-112257538D03*
%TD*%
D38*
%TO.C,Q6*%
X173150000Y-105862500D03*
X171250000Y-105862500D03*
X172200000Y-108137500D03*
%TD*%
D10*
%TO.C,Q4*%
X126450000Y-82537500D03*
X128350000Y-82537500D03*
X127400000Y-80262500D03*
%TD*%
D38*
%TO.C,Q3*%
X128950000Y-107062500D03*
X127050000Y-107062500D03*
X128000000Y-109337500D03*
%TD*%
D39*
%TO.C,U1*%
X159490000Y-87500000D03*
X159490000Y-89400000D03*
X156950000Y-89400000D03*
X156950000Y-88450000D03*
X156950000Y-87500000D03*
%TD*%
D40*
%TO.C,R27*%
X128000000Y-95450000D03*
X128000000Y-93800000D03*
%TD*%
%TO.C,R26*%
X128000000Y-98825000D03*
X128000000Y-97175000D03*
%TD*%
%TO.C,R25*%
X128000000Y-102225000D03*
X128000000Y-100575000D03*
%TD*%
D24*
%TO.C,R24*%
X173025000Y-104000000D03*
X171375000Y-104000000D03*
%TD*%
D41*
%TO.C,R23*%
X171600000Y-85400000D03*
X173250000Y-85400000D03*
%TD*%
%TO.C,R22*%
X126575000Y-84262500D03*
X128225000Y-84262500D03*
%TD*%
D24*
%TO.C,R21*%
X128825000Y-105200000D03*
X127175000Y-105200000D03*
%TD*%
D41*
%TO.C,R20*%
X150775000Y-90800000D03*
X152425000Y-90800000D03*
%TD*%
D24*
%TO.C,R19*%
X156175000Y-99060000D03*
X154525000Y-99060000D03*
%TD*%
%TO.C,R18*%
X156200000Y-97400000D03*
X154550000Y-97400000D03*
%TD*%
D41*
%TO.C,R17*%
X140175000Y-98600000D03*
X141825000Y-98600000D03*
%TD*%
%TO.C,R16*%
X161350000Y-116800000D03*
X163000000Y-116800000D03*
%TD*%
D23*
%TO.C,R15*%
X141330000Y-81595000D03*
X141330000Y-83245000D03*
%TD*%
D41*
%TO.C,R14*%
X138205000Y-81670000D03*
X139855000Y-81670000D03*
%TD*%
%TO.C,R12*%
X141175000Y-94200000D03*
X142825000Y-94200000D03*
%TD*%
%TO.C,R11*%
X141175000Y-92600000D03*
X142825000Y-92600000D03*
%TD*%
D24*
%TO.C,R9*%
X163625000Y-94000000D03*
X161975000Y-94000000D03*
%TD*%
D41*
%TO.C,R8*%
X161975000Y-95600000D03*
X163625000Y-95600000D03*
%TD*%
D24*
%TO.C,R7*%
X161450000Y-72800000D03*
X159800000Y-72800000D03*
%TD*%
%TO.C,R6*%
X161450000Y-71200000D03*
X159800000Y-71200000D03*
%TD*%
%TO.C,R5*%
X159800000Y-82800000D03*
X158150000Y-82800000D03*
%TD*%
%TO.C,R2*%
X158570000Y-92750000D03*
X156920000Y-92750000D03*
%TD*%
D40*
%TO.C,R1*%
X164675000Y-77275000D03*
X164675000Y-75625000D03*
%TD*%
D42*
%TO.C,Q1*%
X164600000Y-78800000D03*
X164600000Y-80700000D03*
X166475000Y-79750000D03*
%TD*%
D43*
%TO.C,LED6*%
X126200000Y-98775000D03*
X126200000Y-97200000D03*
%TD*%
%TO.C,LED5*%
X126200000Y-95400000D03*
X126200000Y-93825000D03*
%TD*%
%TO.C,LED4*%
X126200000Y-102187500D03*
X126200000Y-100612500D03*
%TD*%
D44*
%TO.C,LED3*%
X158300000Y-72800000D03*
X156725000Y-72800000D03*
%TD*%
%TO.C,LED2*%
X158300000Y-71200000D03*
X156725000Y-71200000D03*
%TD*%
D45*
%TO.C,LED1*%
X163012500Y-71200000D03*
X164587500Y-71200000D03*
%TD*%
D46*
%TO.C,J8*%
X169325647Y-115209530D03*
X170209530Y-114325647D03*
D47*
X170280241Y-118780419D03*
X173780419Y-115280241D03*
%TD*%
D48*
%TO.C,J7*%
X170033794Y-75950089D03*
X169149911Y-75066206D03*
D49*
X173604683Y-74995495D03*
X170104505Y-71495317D03*
%TD*%
D50*
%TO.C,J2*%
X169750000Y-93800000D03*
X169750000Y-95800000D03*
D51*
X172000000Y-91400000D03*
X172000000Y-98200000D03*
%TD*%
D52*
%TO.C,USB-C*%
X153680000Y-78125000D03*
X152880000Y-78125000D03*
D53*
X151730000Y-78125000D03*
X150730000Y-78125000D03*
X150230000Y-78125000D03*
X149230000Y-78125000D03*
D52*
X148080000Y-78125000D03*
X147280000Y-78125000D03*
X147280000Y-78125000D03*
X148080000Y-78125000D03*
D53*
X148730000Y-78125000D03*
X149730000Y-78125000D03*
X151230000Y-78125000D03*
X152230000Y-78125000D03*
D52*
X152880000Y-78125000D03*
X153680000Y-78125000D03*
%TD*%
D26*
%TO.C,C18*%
X166625000Y-109600000D03*
X168175000Y-109600000D03*
%TD*%
D54*
%TO.C,C16*%
X134200000Y-78400000D03*
X133103984Y-79496016D03*
%TD*%
D55*
%TO.C,C15*%
X133375000Y-109600000D03*
X131825000Y-109600000D03*
%TD*%
D56*
%TO.C,C14*%
X146000000Y-94425000D03*
X146000000Y-95975000D03*
%TD*%
D55*
%TO.C,C13*%
X149400000Y-90800000D03*
X147850000Y-90800000D03*
%TD*%
%TO.C,C12*%
X147975000Y-98800000D03*
X146425000Y-98800000D03*
%TD*%
D26*
%TO.C,C11*%
X161450000Y-115200000D03*
X163000000Y-115200000D03*
%TD*%
%TO.C,C10*%
X161400000Y-118400000D03*
X162950000Y-118400000D03*
%TD*%
D25*
%TO.C,C9*%
X165000000Y-118375000D03*
X165000000Y-116825000D03*
%TD*%
%TO.C,C7*%
X143730000Y-83795000D03*
X143730000Y-82245000D03*
%TD*%
D26*
%TO.C,C6*%
X143755000Y-85420000D03*
X145305000Y-85420000D03*
%TD*%
%TO.C,C5*%
X166850000Y-86800000D03*
X168400000Y-86800000D03*
%TD*%
D57*
%TO.C,C4*%
X161390000Y-89310000D03*
X163290000Y-89310000D03*
%TD*%
D26*
%TO.C,C3*%
X161345000Y-87550000D03*
X162895000Y-87550000D03*
%TD*%
D55*
%TO.C,C2*%
X158520000Y-91150000D03*
X156970000Y-91150000D03*
%TD*%
D56*
%TO.C,C1*%
X155350000Y-87175000D03*
X155350000Y-88725000D03*
%TD*%
M02*
