%TF.GenerationSoftware,KiCad,Pcbnew,9.0.7*%
%TF.CreationDate,2026-04-28T15:27:04+05:30*%
%TF.ProjectId,ESPDrone_OG,45535044-726f-46e6-955f-4f472e6b6963,rev?*%
%TF.SameCoordinates,Original*%
%TF.FileFunction,Legend,Top*%
%TF.FilePolarity,Positive*%
%FSLAX46Y46*%
G04 Gerber Fmt 4.6, Leading zero omitted, Abs format (unit mm)*
G04 Created by KiCad (PCBNEW 9.0.7) date 2026-04-28 15:27:04*
%MOMM*%
%LPD*%
G01*
G04 APERTURE LIST*
%ADD10C,0.150000*%
%ADD11C,0.120000*%
%ADD12C,0.250000*%
%ADD13C,0.240000*%
%ADD14C,0.060000*%
G04 APERTURE END LIST*
D10*
X127778796Y-73250201D02*
X128283872Y-73755277D01*
X128283872Y-73755277D02*
X128351216Y-73889964D01*
X128351216Y-73889964D02*
X128351216Y-74024651D01*
X128351216Y-74024651D02*
X128283872Y-74159338D01*
X128283872Y-74159338D02*
X128216529Y-74226682D01*
X128418559Y-72610437D02*
X128283872Y-72745124D01*
X128283872Y-72745124D02*
X128250201Y-72846140D01*
X128250201Y-72846140D02*
X128250201Y-72913483D01*
X128250201Y-72913483D02*
X128283872Y-73081842D01*
X128283872Y-73081842D02*
X128384888Y-73250201D01*
X128384888Y-73250201D02*
X128654262Y-73519575D01*
X128654262Y-73519575D02*
X128755277Y-73553246D01*
X128755277Y-73553246D02*
X128822620Y-73553246D01*
X128822620Y-73553246D02*
X128923636Y-73519575D01*
X128923636Y-73519575D02*
X129058323Y-73384888D01*
X129058323Y-73384888D02*
X129091994Y-73283872D01*
X129091994Y-73283872D02*
X129091994Y-73216529D01*
X129091994Y-73216529D02*
X129058323Y-73115514D01*
X129058323Y-73115514D02*
X128889964Y-72947155D01*
X128889964Y-72947155D02*
X128788949Y-72913483D01*
X128788949Y-72913483D02*
X128721605Y-72913483D01*
X128721605Y-72913483D02*
X128620590Y-72947155D01*
X128620590Y-72947155D02*
X128485903Y-73081842D01*
X128485903Y-73081842D02*
X128452231Y-73182857D01*
X128452231Y-73182857D02*
X128452231Y-73250201D01*
X128452231Y-73250201D02*
X128485903Y-73351216D01*
X142723810Y-106131009D02*
X143057143Y-106131009D01*
X143200000Y-106654819D02*
X142723810Y-106654819D01*
X142723810Y-106654819D02*
X142723810Y-105654819D01*
X142723810Y-105654819D02*
X143200000Y-105654819D01*
X143580953Y-106607200D02*
X143723810Y-106654819D01*
X143723810Y-106654819D02*
X143961905Y-106654819D01*
X143961905Y-106654819D02*
X144057143Y-106607200D01*
X144057143Y-106607200D02*
X144104762Y-106559580D01*
X144104762Y-106559580D02*
X144152381Y-106464342D01*
X144152381Y-106464342D02*
X144152381Y-106369104D01*
X144152381Y-106369104D02*
X144104762Y-106273866D01*
X144104762Y-106273866D02*
X144057143Y-106226247D01*
X144057143Y-106226247D02*
X143961905Y-106178628D01*
X143961905Y-106178628D02*
X143771429Y-106131009D01*
X143771429Y-106131009D02*
X143676191Y-106083390D01*
X143676191Y-106083390D02*
X143628572Y-106035771D01*
X143628572Y-106035771D02*
X143580953Y-105940533D01*
X143580953Y-105940533D02*
X143580953Y-105845295D01*
X143580953Y-105845295D02*
X143628572Y-105750057D01*
X143628572Y-105750057D02*
X143676191Y-105702438D01*
X143676191Y-105702438D02*
X143771429Y-105654819D01*
X143771429Y-105654819D02*
X144009524Y-105654819D01*
X144009524Y-105654819D02*
X144152381Y-105702438D01*
X144580953Y-106654819D02*
X144580953Y-105654819D01*
X144580953Y-105654819D02*
X144961905Y-105654819D01*
X144961905Y-105654819D02*
X145057143Y-105702438D01*
X145057143Y-105702438D02*
X145104762Y-105750057D01*
X145104762Y-105750057D02*
X145152381Y-105845295D01*
X145152381Y-105845295D02*
X145152381Y-105988152D01*
X145152381Y-105988152D02*
X145104762Y-106083390D01*
X145104762Y-106083390D02*
X145057143Y-106131009D01*
X145057143Y-106131009D02*
X144961905Y-106178628D01*
X144961905Y-106178628D02*
X144580953Y-106178628D01*
X145485715Y-105654819D02*
X146104762Y-105654819D01*
X146104762Y-105654819D02*
X145771429Y-106035771D01*
X145771429Y-106035771D02*
X145914286Y-106035771D01*
X145914286Y-106035771D02*
X146009524Y-106083390D01*
X146009524Y-106083390D02*
X146057143Y-106131009D01*
X146057143Y-106131009D02*
X146104762Y-106226247D01*
X146104762Y-106226247D02*
X146104762Y-106464342D01*
X146104762Y-106464342D02*
X146057143Y-106559580D01*
X146057143Y-106559580D02*
X146009524Y-106607200D01*
X146009524Y-106607200D02*
X145914286Y-106654819D01*
X145914286Y-106654819D02*
X145628572Y-106654819D01*
X145628572Y-106654819D02*
X145533334Y-106607200D01*
X145533334Y-106607200D02*
X145485715Y-106559580D01*
X146485715Y-105750057D02*
X146533334Y-105702438D01*
X146533334Y-105702438D02*
X146628572Y-105654819D01*
X146628572Y-105654819D02*
X146866667Y-105654819D01*
X146866667Y-105654819D02*
X146961905Y-105702438D01*
X146961905Y-105702438D02*
X147009524Y-105750057D01*
X147009524Y-105750057D02*
X147057143Y-105845295D01*
X147057143Y-105845295D02*
X147057143Y-105940533D01*
X147057143Y-105940533D02*
X147009524Y-106083390D01*
X147009524Y-106083390D02*
X146438096Y-106654819D01*
X146438096Y-106654819D02*
X147057143Y-106654819D01*
X147485715Y-106273866D02*
X148247620Y-106273866D01*
X148628572Y-105654819D02*
X148866667Y-106654819D01*
X148866667Y-106654819D02*
X149057143Y-105940533D01*
X149057143Y-105940533D02*
X149247619Y-106654819D01*
X149247619Y-106654819D02*
X149485715Y-105654819D01*
X150438095Y-106654819D02*
X150104762Y-106178628D01*
X149866667Y-106654819D02*
X149866667Y-105654819D01*
X149866667Y-105654819D02*
X150247619Y-105654819D01*
X150247619Y-105654819D02*
X150342857Y-105702438D01*
X150342857Y-105702438D02*
X150390476Y-105750057D01*
X150390476Y-105750057D02*
X150438095Y-105845295D01*
X150438095Y-105845295D02*
X150438095Y-105988152D01*
X150438095Y-105988152D02*
X150390476Y-106083390D01*
X150390476Y-106083390D02*
X150342857Y-106131009D01*
X150342857Y-106131009D02*
X150247619Y-106178628D01*
X150247619Y-106178628D02*
X149866667Y-106178628D01*
X151057143Y-105654819D02*
X151247619Y-105654819D01*
X151247619Y-105654819D02*
X151342857Y-105702438D01*
X151342857Y-105702438D02*
X151438095Y-105797676D01*
X151438095Y-105797676D02*
X151485714Y-105988152D01*
X151485714Y-105988152D02*
X151485714Y-106321485D01*
X151485714Y-106321485D02*
X151438095Y-106511961D01*
X151438095Y-106511961D02*
X151342857Y-106607200D01*
X151342857Y-106607200D02*
X151247619Y-106654819D01*
X151247619Y-106654819D02*
X151057143Y-106654819D01*
X151057143Y-106654819D02*
X150961905Y-106607200D01*
X150961905Y-106607200D02*
X150866667Y-106511961D01*
X150866667Y-106511961D02*
X150819048Y-106321485D01*
X150819048Y-106321485D02*
X150819048Y-105988152D01*
X150819048Y-105988152D02*
X150866667Y-105797676D01*
X150866667Y-105797676D02*
X150961905Y-105702438D01*
X150961905Y-105702438D02*
X151057143Y-105654819D01*
X152104762Y-105654819D02*
X152295238Y-105654819D01*
X152295238Y-105654819D02*
X152390476Y-105702438D01*
X152390476Y-105702438D02*
X152485714Y-105797676D01*
X152485714Y-105797676D02*
X152533333Y-105988152D01*
X152533333Y-105988152D02*
X152533333Y-106321485D01*
X152533333Y-106321485D02*
X152485714Y-106511961D01*
X152485714Y-106511961D02*
X152390476Y-106607200D01*
X152390476Y-106607200D02*
X152295238Y-106654819D01*
X152295238Y-106654819D02*
X152104762Y-106654819D01*
X152104762Y-106654819D02*
X152009524Y-106607200D01*
X152009524Y-106607200D02*
X151914286Y-106511961D01*
X151914286Y-106511961D02*
X151866667Y-106321485D01*
X151866667Y-106321485D02*
X151866667Y-105988152D01*
X151866667Y-105988152D02*
X151914286Y-105797676D01*
X151914286Y-105797676D02*
X152009524Y-105702438D01*
X152009524Y-105702438D02*
X152104762Y-105654819D01*
X152961905Y-106654819D02*
X152961905Y-105654819D01*
X152961905Y-105654819D02*
X153295238Y-106369104D01*
X153295238Y-106369104D02*
X153628571Y-105654819D01*
X153628571Y-105654819D02*
X153628571Y-106654819D01*
X154104762Y-106273866D02*
X154866667Y-106273866D01*
X155247619Y-105654819D02*
X155866666Y-105654819D01*
X155866666Y-105654819D02*
X155533333Y-106035771D01*
X155533333Y-106035771D02*
X155676190Y-106035771D01*
X155676190Y-106035771D02*
X155771428Y-106083390D01*
X155771428Y-106083390D02*
X155819047Y-106131009D01*
X155819047Y-106131009D02*
X155866666Y-106226247D01*
X155866666Y-106226247D02*
X155866666Y-106464342D01*
X155866666Y-106464342D02*
X155819047Y-106559580D01*
X155819047Y-106559580D02*
X155771428Y-106607200D01*
X155771428Y-106607200D02*
X155676190Y-106654819D01*
X155676190Y-106654819D02*
X155390476Y-106654819D01*
X155390476Y-106654819D02*
X155295238Y-106607200D01*
X155295238Y-106607200D02*
X155247619Y-106559580D01*
X156247619Y-105750057D02*
X156295238Y-105702438D01*
X156295238Y-105702438D02*
X156390476Y-105654819D01*
X156390476Y-105654819D02*
X156628571Y-105654819D01*
X156628571Y-105654819D02*
X156723809Y-105702438D01*
X156723809Y-105702438D02*
X156771428Y-105750057D01*
X156771428Y-105750057D02*
X156819047Y-105845295D01*
X156819047Y-105845295D02*
X156819047Y-105940533D01*
X156819047Y-105940533D02*
X156771428Y-106083390D01*
X156771428Y-106083390D02*
X156200000Y-106654819D01*
X156200000Y-106654819D02*
X156819047Y-106654819D01*
X157247619Y-106131009D02*
X157580952Y-106131009D01*
X157723809Y-106654819D02*
X157247619Y-106654819D01*
X157247619Y-106654819D02*
X157247619Y-105654819D01*
X157247619Y-105654819D02*
X157723809Y-105654819D01*
X128149798Y-116578796D02*
X127644722Y-117083872D01*
X127644722Y-117083872D02*
X127510035Y-117151216D01*
X127510035Y-117151216D02*
X127375348Y-117151216D01*
X127375348Y-117151216D02*
X127240661Y-117083872D01*
X127240661Y-117083872D02*
X127173317Y-117016529D01*
X128823233Y-117252231D02*
X128486516Y-116915514D01*
X128486516Y-116915514D02*
X128116127Y-117218559D01*
X128116127Y-117218559D02*
X128183470Y-117218559D01*
X128183470Y-117218559D02*
X128284485Y-117252231D01*
X128284485Y-117252231D02*
X128452844Y-117420590D01*
X128452844Y-117420590D02*
X128486516Y-117521605D01*
X128486516Y-117521605D02*
X128486516Y-117588949D01*
X128486516Y-117588949D02*
X128452844Y-117689964D01*
X128452844Y-117689964D02*
X128284485Y-117858323D01*
X128284485Y-117858323D02*
X128183470Y-117891994D01*
X128183470Y-117891994D02*
X128116127Y-117891994D01*
X128116127Y-117891994D02*
X128015111Y-117858323D01*
X128015111Y-117858323D02*
X127846753Y-117689964D01*
X127846753Y-117689964D02*
X127813081Y-117588949D01*
X127813081Y-117588949D02*
X127813081Y-117521605D01*
X170454532Y-115925937D02*
X170959608Y-116431013D01*
X170959608Y-116431013D02*
X171026952Y-116565700D01*
X171026952Y-116565700D02*
X171026952Y-116700387D01*
X171026952Y-116700387D02*
X170959608Y-116835074D01*
X170959608Y-116835074D02*
X170892265Y-116902418D01*
X171195311Y-115791250D02*
X171094295Y-115824921D01*
X171094295Y-115824921D02*
X171026952Y-115824921D01*
X171026952Y-115824921D02*
X170925937Y-115791250D01*
X170925937Y-115791250D02*
X170892265Y-115757578D01*
X170892265Y-115757578D02*
X170858593Y-115656563D01*
X170858593Y-115656563D02*
X170858593Y-115589219D01*
X170858593Y-115589219D02*
X170892265Y-115488204D01*
X170892265Y-115488204D02*
X171026952Y-115353517D01*
X171026952Y-115353517D02*
X171127967Y-115319845D01*
X171127967Y-115319845D02*
X171195311Y-115319845D01*
X171195311Y-115319845D02*
X171296326Y-115353517D01*
X171296326Y-115353517D02*
X171329998Y-115387189D01*
X171329998Y-115387189D02*
X171363669Y-115488204D01*
X171363669Y-115488204D02*
X171363669Y-115555547D01*
X171363669Y-115555547D02*
X171329998Y-115656563D01*
X171329998Y-115656563D02*
X171195311Y-115791250D01*
X171195311Y-115791250D02*
X171161639Y-115892265D01*
X171161639Y-115892265D02*
X171161639Y-115959608D01*
X171161639Y-115959608D02*
X171195311Y-116060624D01*
X171195311Y-116060624D02*
X171329998Y-116195311D01*
X171329998Y-116195311D02*
X171431013Y-116228982D01*
X171431013Y-116228982D02*
X171498356Y-116228982D01*
X171498356Y-116228982D02*
X171599372Y-116195311D01*
X171599372Y-116195311D02*
X171734059Y-116060624D01*
X171734059Y-116060624D02*
X171767730Y-115959608D01*
X171767730Y-115959608D02*
X171767730Y-115892265D01*
X171767730Y-115892265D02*
X171734059Y-115791250D01*
X171734059Y-115791250D02*
X171599372Y-115656563D01*
X171599372Y-115656563D02*
X171498356Y-115622891D01*
X171498356Y-115622891D02*
X171431013Y-115622891D01*
X171431013Y-115622891D02*
X171329998Y-115656563D01*
X171049798Y-73578796D02*
X170544722Y-74083872D01*
X170544722Y-74083872D02*
X170410035Y-74151216D01*
X170410035Y-74151216D02*
X170275348Y-74151216D01*
X170275348Y-74151216D02*
X170140661Y-74083872D01*
X170140661Y-74083872D02*
X170073317Y-74016529D01*
X171319172Y-73848170D02*
X171790577Y-74319575D01*
X171790577Y-74319575D02*
X170780424Y-74723636D01*
X173054819Y-95133333D02*
X173769104Y-95133333D01*
X173769104Y-95133333D02*
X173911961Y-95180952D01*
X173911961Y-95180952D02*
X174007200Y-95276190D01*
X174007200Y-95276190D02*
X174054819Y-95419047D01*
X174054819Y-95419047D02*
X174054819Y-95514285D01*
X173150057Y-94704761D02*
X173102438Y-94657142D01*
X173102438Y-94657142D02*
X173054819Y-94561904D01*
X173054819Y-94561904D02*
X173054819Y-94323809D01*
X173054819Y-94323809D02*
X173102438Y-94228571D01*
X173102438Y-94228571D02*
X173150057Y-94180952D01*
X173150057Y-94180952D02*
X173245295Y-94133333D01*
X173245295Y-94133333D02*
X173340533Y-94133333D01*
X173340533Y-94133333D02*
X173483390Y-94180952D01*
X173483390Y-94180952D02*
X174054819Y-94752380D01*
X174054819Y-94752380D02*
X174054819Y-94133333D01*
X148119048Y-71954819D02*
X148119048Y-72764342D01*
X148119048Y-72764342D02*
X148166667Y-72859580D01*
X148166667Y-72859580D02*
X148214286Y-72907200D01*
X148214286Y-72907200D02*
X148309524Y-72954819D01*
X148309524Y-72954819D02*
X148500000Y-72954819D01*
X148500000Y-72954819D02*
X148595238Y-72907200D01*
X148595238Y-72907200D02*
X148642857Y-72859580D01*
X148642857Y-72859580D02*
X148690476Y-72764342D01*
X148690476Y-72764342D02*
X148690476Y-71954819D01*
X149119048Y-72907200D02*
X149261905Y-72954819D01*
X149261905Y-72954819D02*
X149500000Y-72954819D01*
X149500000Y-72954819D02*
X149595238Y-72907200D01*
X149595238Y-72907200D02*
X149642857Y-72859580D01*
X149642857Y-72859580D02*
X149690476Y-72764342D01*
X149690476Y-72764342D02*
X149690476Y-72669104D01*
X149690476Y-72669104D02*
X149642857Y-72573866D01*
X149642857Y-72573866D02*
X149595238Y-72526247D01*
X149595238Y-72526247D02*
X149500000Y-72478628D01*
X149500000Y-72478628D02*
X149309524Y-72431009D01*
X149309524Y-72431009D02*
X149214286Y-72383390D01*
X149214286Y-72383390D02*
X149166667Y-72335771D01*
X149166667Y-72335771D02*
X149119048Y-72240533D01*
X149119048Y-72240533D02*
X149119048Y-72145295D01*
X149119048Y-72145295D02*
X149166667Y-72050057D01*
X149166667Y-72050057D02*
X149214286Y-72002438D01*
X149214286Y-72002438D02*
X149309524Y-71954819D01*
X149309524Y-71954819D02*
X149547619Y-71954819D01*
X149547619Y-71954819D02*
X149690476Y-72002438D01*
X150452381Y-72431009D02*
X150595238Y-72478628D01*
X150595238Y-72478628D02*
X150642857Y-72526247D01*
X150642857Y-72526247D02*
X150690476Y-72621485D01*
X150690476Y-72621485D02*
X150690476Y-72764342D01*
X150690476Y-72764342D02*
X150642857Y-72859580D01*
X150642857Y-72859580D02*
X150595238Y-72907200D01*
X150595238Y-72907200D02*
X150500000Y-72954819D01*
X150500000Y-72954819D02*
X150119048Y-72954819D01*
X150119048Y-72954819D02*
X150119048Y-71954819D01*
X150119048Y-71954819D02*
X150452381Y-71954819D01*
X150452381Y-71954819D02*
X150547619Y-72002438D01*
X150547619Y-72002438D02*
X150595238Y-72050057D01*
X150595238Y-72050057D02*
X150642857Y-72145295D01*
X150642857Y-72145295D02*
X150642857Y-72240533D01*
X150642857Y-72240533D02*
X150595238Y-72335771D01*
X150595238Y-72335771D02*
X150547619Y-72383390D01*
X150547619Y-72383390D02*
X150452381Y-72431009D01*
X150452381Y-72431009D02*
X150119048Y-72431009D01*
X151119048Y-72573866D02*
X151880953Y-72573866D01*
X152928571Y-72859580D02*
X152880952Y-72907200D01*
X152880952Y-72907200D02*
X152738095Y-72954819D01*
X152738095Y-72954819D02*
X152642857Y-72954819D01*
X152642857Y-72954819D02*
X152500000Y-72907200D01*
X152500000Y-72907200D02*
X152404762Y-72811961D01*
X152404762Y-72811961D02*
X152357143Y-72716723D01*
X152357143Y-72716723D02*
X152309524Y-72526247D01*
X152309524Y-72526247D02*
X152309524Y-72383390D01*
X152309524Y-72383390D02*
X152357143Y-72192914D01*
X152357143Y-72192914D02*
X152404762Y-72097676D01*
X152404762Y-72097676D02*
X152500000Y-72002438D01*
X152500000Y-72002438D02*
X152642857Y-71954819D01*
X152642857Y-71954819D02*
X152738095Y-71954819D01*
X152738095Y-71954819D02*
X152880952Y-72002438D01*
X152880952Y-72002438D02*
X152928571Y-72050057D01*
D11*
%TO.C,Q5*%
X172350000Y-84227500D02*
X172020000Y-83987500D01*
X172350000Y-83747500D01*
X172350000Y-84227500D01*
G36*
X172350000Y-84227500D02*
G01*
X172020000Y-83987500D01*
X172350000Y-83747500D01*
X172350000Y-84227500D01*
G37*
X173960000Y-81627500D02*
X173960000Y-83447500D01*
X172960000Y-81627500D02*
X173960000Y-81627500D01*
X170840000Y-81627500D02*
X171840000Y-81627500D01*
X173960000Y-83447500D02*
X173910000Y-83447500D01*
X172790000Y-83447500D02*
X172010000Y-83447500D01*
X170890000Y-83447500D02*
X170840000Y-83447500D01*
X170840000Y-83447500D02*
X170840000Y-81627500D01*
%TO.C,J6*%
X127297398Y-76618826D02*
X128322703Y-77644130D01*
X128322703Y-77644130D02*
X129595495Y-76371338D01*
X131271338Y-74695495D02*
X131971374Y-75395531D01*
X128626759Y-71301383D02*
X126201383Y-73726759D01*
X131518826Y-72397398D02*
X132544130Y-73422703D01*
X132544130Y-73422703D02*
X131271338Y-74695495D01*
%TO.C,U5*%
X152200000Y-96935000D02*
X152200000Y-97160000D01*
X152200000Y-93100000D02*
X152200000Y-93625000D01*
X152200000Y-93100000D02*
X151675000Y-93100000D01*
X151675000Y-97400000D02*
X151900000Y-97400000D01*
X147900000Y-97400000D02*
X148425000Y-97400000D01*
X147900000Y-97400000D02*
X147900000Y-96875000D01*
X147900000Y-93100000D02*
X148425000Y-93100000D01*
X147900000Y-93100000D02*
X147900000Y-93625000D01*
X152440000Y-97730000D02*
X151960000Y-97730000D01*
X152200000Y-97400000D01*
X152440000Y-97730000D01*
G36*
X152440000Y-97730000D02*
G01*
X151960000Y-97730000D01*
X152200000Y-97400000D01*
X152440000Y-97730000D01*
G37*
%TO.C,ESP32-WROOM-32E*%
X159320000Y-126760000D02*
X159320000Y-120600000D01*
X159320000Y-126760000D02*
X141080000Y-126760000D01*
X159320000Y-101800000D02*
X159320000Y-101020000D01*
X159320000Y-101020000D02*
X158320000Y-101020000D01*
X141080000Y-126760000D02*
X141080000Y-120345000D01*
X141080000Y-101800000D02*
X141080000Y-101020000D01*
X141080000Y-101020000D02*
X142080000Y-101020000D01*
X159325000Y-120375000D02*
X159325000Y-119875000D01*
X159825000Y-119875000D01*
X159325000Y-120375000D01*
G36*
X159325000Y-120375000D02*
G01*
X159325000Y-119875000D01*
X159825000Y-119875000D01*
X159325000Y-120375000D01*
G37*
%TO.C,U2*%
X157765000Y-80160000D02*
X157765000Y-76040000D01*
X157860000Y-80160000D02*
X157765000Y-80160000D01*
X162885000Y-80160000D02*
X162790000Y-80160000D01*
X157765000Y-76040000D02*
X157860000Y-76040000D01*
X162790000Y-76040000D02*
X162885000Y-76040000D01*
X162885000Y-76040000D02*
X162885000Y-80160000D01*
X157855000Y-80700000D02*
X157525000Y-80940000D01*
X157525000Y-80460000D01*
X157855000Y-80700000D01*
G36*
X157855000Y-80700000D02*
G01*
X157525000Y-80940000D01*
X157525000Y-80460000D01*
X157855000Y-80700000D01*
G37*
D12*
%TO.C,Q2*%
X133800000Y-92290000D02*
X133800000Y-92490000D01*
X135520000Y-92300000D02*
X133800000Y-92300000D01*
X133800000Y-92300000D02*
X133800000Y-92290000D01*
X135510000Y-92320000D02*
X135480000Y-92290000D01*
X135510000Y-92490000D02*
X135510000Y-92320000D01*
X133800000Y-94610000D02*
X133800000Y-94770000D01*
X133810000Y-94770000D02*
X135510000Y-94790000D01*
X133800000Y-94770000D02*
X133810000Y-94770000D01*
X135510000Y-94780000D02*
X135510000Y-94610000D01*
X135510000Y-94790000D02*
X135510000Y-94780000D01*
D13*
X133250000Y-92410000D02*
G75*
G02*
X133010000Y-92410000I-120000J0D01*
G01*
X133010000Y-92410000D02*
G75*
G02*
X133250000Y-92410000I120000J0D01*
G01*
D14*
X133580000Y-92550000D02*
G75*
G02*
X133520000Y-92550000I-30000J0D01*
G01*
X133520000Y-92550000D02*
G75*
G02*
X133580000Y-92550000I30000J0D01*
G01*
D11*
%TO.C,D1*%
X154110000Y-83650000D02*
X148600000Y-83650000D01*
X154110000Y-86950000D02*
X148600000Y-86950000D01*
X154110000Y-86950000D02*
X154110000Y-83650000D01*
%TO.C,R3*%
X151277500Y-81762742D02*
X151277500Y-82237258D01*
X152322500Y-81762742D02*
X152322500Y-82237258D01*
%TO.C,R4*%
X148877500Y-81737742D02*
X148877500Y-82212258D01*
X149922500Y-81737742D02*
X149922500Y-82212258D01*
%TO.C,R13*%
X139267258Y-82697500D02*
X138792742Y-82697500D01*
X139267258Y-83742500D02*
X138792742Y-83742500D01*
%TO.C,C8*%
X145840000Y-83160580D02*
X145840000Y-82879420D01*
X144820000Y-83160580D02*
X144820000Y-82879420D01*
%TO.C,C17*%
X167459420Y-83710000D02*
X167740580Y-83710000D01*
X167459420Y-82690000D02*
X167740580Y-82690000D01*
%TO.C,SW2*%
X142750000Y-72725000D02*
X142750000Y-71925000D01*
X140900000Y-73825000D02*
X139200000Y-73825000D01*
X137900000Y-73825000D02*
X137700000Y-73825000D01*
X135850000Y-72725000D02*
X135850000Y-71925000D01*
%TO.C,R28*%
X138162258Y-76622500D02*
X137687742Y-76622500D01*
X138162258Y-75577500D02*
X137687742Y-75577500D01*
%TO.C,J5*%
X131418826Y-118102602D02*
X132444130Y-117077297D01*
X132444130Y-117077297D02*
X131171338Y-115804505D01*
X129495495Y-114128662D02*
X130195531Y-113428626D01*
X126101383Y-116773241D02*
X128526759Y-119198617D01*
X127197398Y-113881174D02*
X128222703Y-112855870D01*
X128222703Y-112855870D02*
X129495495Y-114128662D01*
%TO.C,U3*%
X142090000Y-89730000D02*
X141365000Y-89730000D01*
X142090000Y-89005000D02*
X142090000Y-89730000D01*
X142090000Y-84510000D02*
X142090000Y-85235000D01*
X141365000Y-84510000D02*
X142090000Y-84510000D01*
X137595000Y-89730000D02*
X136870000Y-89730000D01*
X136870000Y-89730000D02*
X136870000Y-89005000D01*
X136870000Y-85235000D02*
X136870000Y-84510000D01*
X136870000Y-84510000D02*
X137595000Y-84510000D01*
X142920000Y-88860000D02*
X142590000Y-88620000D01*
X142920000Y-88380000D01*
X142920000Y-88860000D01*
G36*
X142920000Y-88860000D02*
G01*
X142590000Y-88620000D01*
X142920000Y-88380000D01*
X142920000Y-88860000D01*
G37*
%TO.C,D5*%
X166118055Y-113479863D02*
X167320137Y-114681945D01*
X166118055Y-113479863D02*
X167998959Y-111598959D01*
X167320137Y-114681945D02*
X169201041Y-112801041D01*
%TO.C,D4*%
X169525000Y-79090000D02*
X167825000Y-79090000D01*
X169525000Y-79090000D02*
X169525000Y-81750000D01*
X167825000Y-79090000D02*
X167825000Y-81750000D01*
%TO.C,D3*%
X134197021Y-77005061D02*
X132994939Y-75802979D01*
X134197021Y-77005061D02*
X132316117Y-78885965D01*
X132994939Y-75802979D02*
X131114035Y-77683883D01*
%TO.C,D2*%
X132737401Y-114739483D02*
X133939483Y-113537401D01*
X132737401Y-114739483D02*
X130856497Y-112858579D01*
X133939483Y-113537401D02*
X132058579Y-111656497D01*
%TO.C,Q6*%
X173760000Y-106090000D02*
X173760000Y-107910000D01*
X173710000Y-106090000D02*
X173760000Y-106090000D01*
X171810000Y-106090000D02*
X172590000Y-106090000D01*
X170640000Y-106090000D02*
X170690000Y-106090000D01*
X173760000Y-107910000D02*
X172760000Y-107910000D01*
X171640000Y-107910000D02*
X170640000Y-107910000D01*
X170640000Y-107910000D02*
X170640000Y-106090000D01*
X172580000Y-105550000D02*
X172250000Y-105790000D01*
X172250000Y-105310000D01*
X172580000Y-105550000D01*
G36*
X172580000Y-105550000D02*
G01*
X172250000Y-105790000D01*
X172250000Y-105310000D01*
X172580000Y-105550000D01*
G37*
%TO.C,Q4*%
X125840000Y-82310000D02*
X125840000Y-80490000D01*
X125890000Y-82310000D02*
X125840000Y-82310000D01*
X127790000Y-82310000D02*
X127010000Y-82310000D01*
X128960000Y-82310000D02*
X128910000Y-82310000D01*
X125840000Y-80490000D02*
X126840000Y-80490000D01*
X127960000Y-80490000D02*
X128960000Y-80490000D01*
X128960000Y-80490000D02*
X128960000Y-82310000D01*
X127350000Y-83090000D02*
X127020000Y-82850000D01*
X127350000Y-82610000D01*
X127350000Y-83090000D01*
G36*
X127350000Y-83090000D02*
G01*
X127020000Y-82850000D01*
X127350000Y-82610000D01*
X127350000Y-83090000D01*
G37*
%TO.C,Q3*%
X129560000Y-107290000D02*
X129560000Y-109110000D01*
X129510000Y-107290000D02*
X129560000Y-107290000D01*
X127610000Y-107290000D02*
X128390000Y-107290000D01*
X126440000Y-107290000D02*
X126490000Y-107290000D01*
X129560000Y-109110000D02*
X128560000Y-109110000D01*
X127440000Y-109110000D02*
X126440000Y-109110000D01*
X126440000Y-109110000D02*
X126440000Y-107290000D01*
X128380000Y-106750000D02*
X128050000Y-106990000D01*
X128050000Y-106510000D01*
X128380000Y-106750000D01*
G36*
X128380000Y-106750000D02*
G01*
X128050000Y-106990000D01*
X128050000Y-106510000D01*
X128380000Y-106750000D01*
G37*
D12*
%TO.C,U1*%
X159110000Y-88070000D02*
X159110000Y-88870000D01*
X159110000Y-86800000D02*
X157310000Y-86800000D01*
X159190000Y-89970000D02*
X157390000Y-89970000D01*
X156950000Y-86800000D02*
G75*
G02*
X156690000Y-86800000I-130000J0D01*
G01*
X156690000Y-86800000D02*
G75*
G02*
X156950000Y-86800000I130000J0D01*
G01*
D14*
X156930000Y-86910000D02*
G75*
G02*
X156870000Y-86910000I-30000J0D01*
G01*
X156870000Y-86910000D02*
G75*
G02*
X156930000Y-86910000I30000J0D01*
G01*
D11*
%TO.C,R27*%
X127477500Y-94862258D02*
X127477500Y-94387742D01*
X128522500Y-94862258D02*
X128522500Y-94387742D01*
%TO.C,R26*%
X127477500Y-98237258D02*
X127477500Y-97762742D01*
X128522500Y-98237258D02*
X128522500Y-97762742D01*
%TO.C,R25*%
X127477500Y-101637258D02*
X127477500Y-101162742D01*
X128522500Y-101637258D02*
X128522500Y-101162742D01*
%TO.C,R24*%
X172437258Y-104522500D02*
X171962742Y-104522500D01*
X172437258Y-103477500D02*
X171962742Y-103477500D01*
%TO.C,R23*%
X172187742Y-84877500D02*
X172662258Y-84877500D01*
X172187742Y-85922500D02*
X172662258Y-85922500D01*
%TO.C,R22*%
X127162742Y-83740000D02*
X127637258Y-83740000D01*
X127162742Y-84785000D02*
X127637258Y-84785000D01*
%TO.C,R21*%
X128237258Y-105722500D02*
X127762742Y-105722500D01*
X128237258Y-104677500D02*
X127762742Y-104677500D01*
%TO.C,R20*%
X151362742Y-90277500D02*
X151837258Y-90277500D01*
X151362742Y-91322500D02*
X151837258Y-91322500D01*
%TO.C,R19*%
X155587258Y-99582500D02*
X155112742Y-99582500D01*
X155587258Y-98537500D02*
X155112742Y-98537500D01*
%TO.C,R18*%
X155612258Y-97922500D02*
X155137742Y-97922500D01*
X155612258Y-96877500D02*
X155137742Y-96877500D01*
%TO.C,R17*%
X140762742Y-98077500D02*
X141237258Y-98077500D01*
X140762742Y-99122500D02*
X141237258Y-99122500D01*
%TO.C,R16*%
X161937742Y-116277500D02*
X162412258Y-116277500D01*
X161937742Y-117322500D02*
X162412258Y-117322500D01*
%TO.C,R15*%
X141852500Y-82182742D02*
X141852500Y-82657258D01*
X140807500Y-82182742D02*
X140807500Y-82657258D01*
%TO.C,R14*%
X138792742Y-81147500D02*
X139267258Y-81147500D01*
X138792742Y-82192500D02*
X139267258Y-82192500D01*
%TO.C,R12*%
X141762742Y-93677500D02*
X142237258Y-93677500D01*
X141762742Y-94722500D02*
X142237258Y-94722500D01*
%TO.C,R11*%
X141762742Y-92077500D02*
X142237258Y-92077500D01*
X141762742Y-93122500D02*
X142237258Y-93122500D01*
%TO.C,R9*%
X163037258Y-94522500D02*
X162562742Y-94522500D01*
X163037258Y-93477500D02*
X162562742Y-93477500D01*
%TO.C,R8*%
X162562742Y-95077500D02*
X163037258Y-95077500D01*
X162562742Y-96122500D02*
X163037258Y-96122500D01*
%TO.C,R7*%
X160862258Y-73322500D02*
X160387742Y-73322500D01*
X160862258Y-72277500D02*
X160387742Y-72277500D01*
%TO.C,R6*%
X160862258Y-71722500D02*
X160387742Y-71722500D01*
X160862258Y-70677500D02*
X160387742Y-70677500D01*
%TO.C,R5*%
X159212258Y-83322500D02*
X158737742Y-83322500D01*
X159212258Y-82277500D02*
X158737742Y-82277500D01*
%TO.C,R2*%
X157982258Y-93272500D02*
X157507742Y-93272500D01*
X157982258Y-92227500D02*
X157507742Y-92227500D01*
%TO.C,R1*%
X164152500Y-76687258D02*
X164152500Y-76212742D01*
X165197500Y-76687258D02*
X165197500Y-76212742D01*
%TO.C,Q1*%
X164777500Y-78190000D02*
X166297500Y-78190000D01*
X164777500Y-78240000D02*
X164777500Y-78190000D01*
X164777500Y-80140000D02*
X164777500Y-79360000D01*
X164777500Y-81310000D02*
X164777500Y-81260000D01*
X166297500Y-78190000D02*
X166297500Y-79190000D01*
X166297500Y-80310000D02*
X166297500Y-81310000D01*
X166297500Y-81310000D02*
X164777500Y-81310000D01*
X164477500Y-79700000D02*
X163997500Y-79700000D01*
X164237500Y-79370000D01*
X164477500Y-79700000D01*
G36*
X164477500Y-79700000D02*
G01*
X163997500Y-79700000D01*
X164237500Y-79370000D01*
X164477500Y-79700000D01*
G37*
%TO.C,LED6*%
X125465000Y-99472500D02*
X126935000Y-99472500D01*
X126935000Y-99472500D02*
X126935000Y-97187500D01*
X125465000Y-97187500D02*
X125465000Y-99472500D01*
%TO.C,LED5*%
X125465000Y-96097500D02*
X126935000Y-96097500D01*
X126935000Y-96097500D02*
X126935000Y-93812500D01*
X125465000Y-93812500D02*
X125465000Y-96097500D01*
%TO.C,LED4*%
X125465000Y-102885000D02*
X126935000Y-102885000D01*
X126935000Y-102885000D02*
X126935000Y-100600000D01*
X125465000Y-100600000D02*
X125465000Y-102885000D01*
%TO.C,LED3*%
X158997500Y-73535000D02*
X158997500Y-72065000D01*
X158997500Y-72065000D02*
X156712500Y-72065000D01*
X156712500Y-73535000D02*
X158997500Y-73535000D01*
%TO.C,LED2*%
X158997500Y-71935000D02*
X158997500Y-70465000D01*
X158997500Y-70465000D02*
X156712500Y-70465000D01*
X156712500Y-71935000D02*
X158997500Y-71935000D01*
%TO.C,LED1*%
X162315000Y-70465000D02*
X162315000Y-71935000D01*
X162315000Y-71935000D02*
X164600000Y-71935000D01*
X164600000Y-70465000D02*
X162315000Y-70465000D01*
%TO.C,J8*%
X167755870Y-116977297D02*
X169028662Y-115704505D01*
X168781174Y-118002602D02*
X167755870Y-116977297D01*
X171673241Y-119098617D02*
X174098617Y-116673241D01*
X169028662Y-115704505D02*
X168328626Y-115004469D01*
X171977297Y-112755870D02*
X170704505Y-114028662D01*
X173002602Y-113781174D02*
X171977297Y-112755870D01*
%TO.C,J7*%
X171801561Y-77519866D02*
X170528769Y-76247074D01*
X172826866Y-76494562D02*
X171801561Y-77519866D01*
X173922881Y-73602495D02*
X171497505Y-71177119D01*
X170528769Y-76247074D02*
X169828733Y-76947110D01*
X167580134Y-73298439D02*
X168852926Y-74571231D01*
X168605438Y-72273134D02*
X167580134Y-73298439D01*
%TO.C,J4*%
X161820000Y-97220000D02*
X163200000Y-97220000D01*
X161820000Y-98600000D02*
X161820000Y-97220000D01*
X161820000Y-99870000D02*
X161820000Y-112680000D01*
X161820000Y-99870000D02*
X164580000Y-99870000D01*
X161820000Y-112680000D02*
X164580000Y-112680000D01*
X164580000Y-99870000D02*
X164580000Y-112680000D01*
%TO.C,J3*%
X135820000Y-97220000D02*
X137200000Y-97220000D01*
X135820000Y-98600000D02*
X135820000Y-97220000D01*
X135820000Y-99870000D02*
X135820000Y-112680000D01*
X135820000Y-99870000D02*
X138580000Y-99870000D01*
X135820000Y-112680000D02*
X138580000Y-112680000D01*
X138580000Y-99870000D02*
X138580000Y-112680000D01*
%TO.C,J2*%
X174610000Y-90715000D02*
X174610000Y-98885000D01*
X173760000Y-90715000D02*
X174610000Y-90715000D01*
X170240000Y-90715000D02*
X169390000Y-90715000D01*
X169390000Y-90715000D02*
X169390000Y-93040000D01*
X169390000Y-93040000D02*
X167000000Y-93040000D01*
X174610000Y-98885000D02*
X173760000Y-98885000D01*
X170240000Y-98885000D02*
X169390000Y-98885000D01*
X169390000Y-98885000D02*
X169390000Y-96560000D01*
%TO.C,USB-C*%
X155060000Y-76250000D02*
X155060000Y-74330000D01*
X155060000Y-70615000D02*
X155060000Y-72320000D01*
X145900000Y-74330000D02*
X145900000Y-76250000D01*
X145900000Y-72320000D02*
X145900000Y-70615000D01*
X145900000Y-70615000D02*
X155060000Y-70615000D01*
%TO.C,C18*%
X167259420Y-109090000D02*
X167540580Y-109090000D01*
X167259420Y-110110000D02*
X167540580Y-110110000D01*
%TO.C,C16*%
X134112022Y-79209227D02*
X133913211Y-79408038D01*
X133390773Y-78487978D02*
X133191962Y-78686789D01*
%TO.C,C15*%
X132740580Y-110110000D02*
X132459420Y-110110000D01*
X132740580Y-109090000D02*
X132459420Y-109090000D01*
%TO.C,C14*%
X146510000Y-95059420D02*
X146510000Y-95340580D01*
X145490000Y-95059420D02*
X145490000Y-95340580D01*
%TO.C,C13*%
X148765580Y-91310000D02*
X148484420Y-91310000D01*
X148765580Y-90290000D02*
X148484420Y-90290000D01*
%TO.C,C12*%
X147340580Y-99310000D02*
X147059420Y-99310000D01*
X147340580Y-98290000D02*
X147059420Y-98290000D01*
%TO.C,C11*%
X162084420Y-114690000D02*
X162365580Y-114690000D01*
X162084420Y-115710000D02*
X162365580Y-115710000D01*
%TO.C,C10*%
X162034420Y-117890000D02*
X162315580Y-117890000D01*
X162034420Y-118910000D02*
X162315580Y-118910000D01*
%TO.C,C9*%
X164490000Y-117740580D02*
X164490000Y-117459420D01*
X165510000Y-117740580D02*
X165510000Y-117459420D01*
%TO.C,C7*%
X143220000Y-83160580D02*
X143220000Y-82879420D01*
X144240000Y-83160580D02*
X144240000Y-82879420D01*
%TO.C,C6*%
X144389420Y-84910000D02*
X144670580Y-84910000D01*
X144389420Y-85930000D02*
X144670580Y-85930000D01*
%TO.C,C5*%
X167484420Y-86290000D02*
X167765580Y-86290000D01*
X167484420Y-87310000D02*
X167765580Y-87310000D01*
%TO.C,C4*%
X162078748Y-88575000D02*
X162601252Y-88575000D01*
X162078748Y-90045000D02*
X162601252Y-90045000D01*
%TO.C,C3*%
X161979420Y-87040000D02*
X162260580Y-87040000D01*
X161979420Y-88060000D02*
X162260580Y-88060000D01*
%TO.C,C2*%
X157885580Y-91660000D02*
X157604420Y-91660000D01*
X157885580Y-90640000D02*
X157604420Y-90640000D01*
%TO.C,C1*%
X155860000Y-87809420D02*
X155860000Y-88090580D01*
X154840000Y-87809420D02*
X154840000Y-88090580D01*
%TD*%
M02*
