%TF.GenerationSoftware,KiCad,Pcbnew,9.0.7*%
%TF.CreationDate,2026-04-28T15:27:04+05:30*%
%TF.ProjectId,ESPDrone_OG,45535044-726f-46e6-955f-4f472e6b6963,rev?*%
%TF.SameCoordinates,Original*%
%TF.FileFunction,Copper,L2,Bot*%
%TF.FilePolarity,Positive*%
%FSLAX46Y46*%
G04 Gerber Fmt 4.6, Leading zero omitted, Abs format (unit mm)*
G04 Created by KiCad (PCBNEW 9.0.7) date 2026-04-28 15:27:04*
%MOMM*%
%LPD*%
G01*
G04 APERTURE LIST*
%TA.AperFunction,HeatsinkPad*%
%ADD10C,0.800000*%
%TD*%
%TA.AperFunction,HeatsinkPad*%
%ADD11R,2.900000X1.900000*%
%TD*%
%TA.AperFunction,ComponentPad*%
%ADD12R,1.700000X1.700000*%
%TD*%
%TA.AperFunction,ComponentPad*%
%ADD13C,1.700000*%
%TD*%
%TA.AperFunction,HeatsinkPad*%
%ADD14O,1.000000X2.100000*%
%TD*%
%TA.AperFunction,HeatsinkPad*%
%ADD15O,1.000000X1.800000*%
%TD*%
%TA.AperFunction,ViaPad*%
%ADD16C,0.800000*%
%TD*%
%TA.AperFunction,Conductor*%
%ADD17C,1.016000*%
%TD*%
%TA.AperFunction,Conductor*%
%ADD18C,0.254000*%
%TD*%
%TA.AperFunction,Conductor*%
%ADD19C,1.524000*%
%TD*%
%TA.AperFunction,Conductor*%
%ADD20C,0.508000*%
%TD*%
%TA.AperFunction,Conductor*%
%ADD21C,0.200000*%
%TD*%
G04 APERTURE END LIST*
D10*
%TO.P,ESP32-WROOM-32E,39,GND*%
%TO.N,GND*%
X153000000Y-112130000D03*
X153000000Y-110730000D03*
X151725000Y-112130000D03*
X151725000Y-110730000D03*
X150400000Y-112130000D03*
X150400000Y-110730000D03*
%TD*%
%TO.P,U2,9,EPAD*%
%TO.N,GND*%
X159425000Y-78100000D03*
D11*
X160325000Y-78100000D03*
D10*
X161225000Y-78100000D03*
%TD*%
D12*
%TO.P,J4,1,Pin_1*%
%TO.N,GND*%
X163200000Y-98600000D03*
D13*
%TO.P,J4,2,Pin_2*%
%TO.N,+BATT*%
X163200000Y-101140000D03*
%TO.P,J4,3,Pin_3*%
%TO.N,/SRV_1*%
X163200000Y-103680000D03*
%TO.P,J4,4,Pin_4*%
%TO.N,/SRV_2*%
X163200000Y-106220000D03*
%TO.P,J4,5,Pin_5*%
%TO.N,/SRV_3*%
X163200000Y-108760000D03*
%TO.P,J4,6,Pin_6*%
%TO.N,/SRV_4*%
X163200000Y-111300000D03*
%TD*%
D12*
%TO.P,J3,1,Pin_1*%
%TO.N,GND*%
X137200000Y-98600000D03*
D13*
%TO.P,J3,2,Pin_2*%
%TO.N,+3V3*%
X137200000Y-101140000D03*
%TO.P,J3,3,Pin_3*%
%TO.N,/RXD2*%
X137200000Y-103680000D03*
%TO.P,J3,4,Pin_4*%
%TO.N,/TXD2*%
X137200000Y-106220000D03*
%TO.P,J3,5,Pin_5*%
%TO.N,/SDA*%
X137200000Y-108760000D03*
%TO.P,J3,6,Pin_6*%
%TO.N,/SCL*%
X137200000Y-111300000D03*
%TD*%
D14*
%TO.P,USB-C,S1,SHIELD*%
%TO.N,GND*%
X154800000Y-77525000D03*
D15*
X154800000Y-73325000D03*
D14*
X146160000Y-77525000D03*
D15*
X146160000Y-73325000D03*
%TD*%
D16*
%TO.N,GND*%
X167950000Y-97850000D03*
X148225000Y-81925000D03*
%TO.N,+BATT*%
X166350000Y-73675000D03*
X165550000Y-73675000D03*
X164750000Y-73675000D03*
X163950000Y-73675000D03*
%TO.N,/SRV_2*%
X158500000Y-98750000D03*
X146525000Y-91475000D03*
%TO.N,Net-(LED1-A)*%
X166300000Y-71125000D03*
X157200000Y-94100000D03*
%TO.N,/D-*%
X149500000Y-79500000D03*
%TO.N,Net-(U3-VDD)*%
X136800000Y-83200000D03*
X144200000Y-86800000D03*
%TO.N,LDO_EN*%
X139000000Y-78800000D03*
X155200000Y-90400000D03*
%TO.N,/MOT_2*%
X137800000Y-91927000D03*
%TO.N,/MOT_3*%
X169400000Y-85400000D03*
%TO.N,/MOT_2*%
X155600000Y-108800000D03*
%TO.N,/MOT_3*%
X157400000Y-110200000D03*
%TO.N,/EN*%
X157000000Y-115600000D03*
%TO.N,/MOT_1*%
X139600000Y-103000000D03*
X132400000Y-106200000D03*
%TO.N,/MOT_4*%
X166200000Y-107000000D03*
X157400000Y-107800000D03*
%TO.N,/EN*%
X136800000Y-92400000D03*
%TO.N,/SCL*%
X145600000Y-107000000D03*
%TO.N,/SDA*%
X143473000Y-108400000D03*
%TO.N,/SCL*%
X150600000Y-99200000D03*
%TO.N,/SDA*%
X153200000Y-98200000D03*
%TO.N,/DTR*%
X141400000Y-91000000D03*
X132600000Y-91200000D03*
%TO.N,/RX*%
X143400000Y-113000000D03*
X145200000Y-113000000D03*
%TO.N,/LED_3*%
X133400000Y-99200000D03*
X139600000Y-108400000D03*
%TO.N,/IO0*%
X138800000Y-96000000D03*
X141200000Y-96600000D03*
%TO.N,+3V3*%
X153200000Y-92800000D03*
X146600000Y-92600000D03*
%TO.N,+BATT*%
X134600000Y-78000000D03*
X135200000Y-77400000D03*
X135800000Y-76800000D03*
X131842462Y-114842462D03*
X132342462Y-114342462D03*
X133375000Y-112400000D03*
X133375000Y-111600000D03*
X133375000Y-110800000D03*
X168015076Y-114584924D03*
X166625000Y-112600000D03*
X166625000Y-111600000D03*
X166625000Y-110600000D03*
X167900000Y-75700000D03*
X167200000Y-76400000D03*
X166475000Y-77125000D03*
%TO.N,+5V*%
X155000000Y-81000000D03*
X163000000Y-78000000D03*
%TO.N,/D-*%
X151405000Y-80000000D03*
%TO.N,GND*%
X133825000Y-104475000D03*
X129325000Y-99750000D03*
%TD*%
D17*
%TO.N,+BATT*%
X165925000Y-73675000D02*
X166600000Y-73675000D01*
X162725000Y-73675000D02*
X160800000Y-75600000D01*
X133400000Y-109200000D02*
X133400000Y-113000000D01*
X136800000Y-75600000D02*
X130800000Y-81600000D01*
X130800000Y-106600000D02*
X133400000Y-109200000D01*
X160800000Y-75600000D02*
X136800000Y-75600000D01*
X133400000Y-113000000D02*
X131400000Y-115000000D01*
X130800000Y-81600000D02*
X130800000Y-106600000D01*
X165925000Y-73675000D02*
X162725000Y-73675000D01*
D18*
%TO.N,/SRV_2*%
X158500000Y-98750000D02*
X158500000Y-96925000D01*
X158500000Y-96925000D02*
X153050000Y-91475000D01*
X153050000Y-91475000D02*
X146525000Y-91475000D01*
%TO.N,Net-(LED1-A)*%
X166300000Y-71125000D02*
X167700000Y-71125000D01*
X167700000Y-71125000D02*
X168300000Y-71725000D01*
X164575000Y-76425000D02*
X164575000Y-90050000D01*
X168300000Y-73325000D02*
X166750000Y-74875000D01*
X166750000Y-74875000D02*
X166125000Y-74875000D01*
X168300000Y-71725000D02*
X168300000Y-73325000D01*
X166125000Y-74875000D02*
X164575000Y-76425000D01*
X164575000Y-90050000D02*
X160525000Y-94100000D01*
X160525000Y-94100000D02*
X157200000Y-94100000D01*
%TO.N,/MOT_2*%
X137800000Y-91927000D02*
X140818000Y-94945000D01*
X140818000Y-94945000D02*
X154495000Y-94945000D01*
X154495000Y-94945000D02*
X155600000Y-96050000D01*
%TO.N,LDO_EN*%
X143600000Y-78800000D02*
X146300000Y-81500000D01*
X146300000Y-86675000D02*
X147350000Y-87725000D01*
X146300000Y-81500000D02*
X146300000Y-86675000D01*
X139000000Y-78800000D02*
X143600000Y-78800000D01*
X147350000Y-87725000D02*
X152525000Y-87725000D01*
X152525000Y-87725000D02*
X155200000Y-90400000D01*
%TO.N,Net-(U3-VDD)*%
X136800000Y-83200000D02*
X142200000Y-83200000D01*
X142200000Y-83200000D02*
X144200000Y-85200000D01*
X144200000Y-85200000D02*
X144200000Y-86800000D01*
%TO.N,/MOT_3*%
X169400000Y-85400000D02*
X169400000Y-89000000D01*
X169400000Y-89000000D02*
X157600000Y-100800000D01*
X157600000Y-100800000D02*
X157600000Y-106000000D01*
X157600000Y-106000000D02*
X156600000Y-107000000D01*
X156600000Y-107000000D02*
X156600000Y-109400000D01*
X156600000Y-109400000D02*
X157400000Y-110200000D01*
%TO.N,/EN*%
X136800000Y-92400000D02*
X139800000Y-95400000D01*
X148000000Y-114200000D02*
X148000000Y-115000000D01*
X139800000Y-95400000D02*
X141200000Y-95400000D01*
X141200000Y-95400000D02*
X142600000Y-96800000D01*
X142600000Y-96800000D02*
X142600000Y-109800000D01*
X148600000Y-115600000D02*
X157000000Y-115600000D01*
X142600000Y-109800000D02*
X145000000Y-112200000D01*
X148000000Y-115000000D02*
X148600000Y-115600000D01*
X145000000Y-112200000D02*
X146000000Y-112200000D01*
X146000000Y-112200000D02*
X148000000Y-114200000D01*
%TO.N,/SDA*%
X143473000Y-108400000D02*
X151200000Y-108400000D01*
X151200000Y-108400000D02*
X153200000Y-106400000D01*
X153200000Y-106400000D02*
X153200000Y-98200000D01*
%TO.N,/SCL*%
X150600000Y-104600000D02*
X150600000Y-99200000D01*
X148200000Y-107000000D02*
X150600000Y-104600000D01*
X145600000Y-107000000D02*
X148200000Y-107000000D01*
%TO.N,/MOT_1*%
X139200000Y-98000000D02*
X139200000Y-102600000D01*
X138000000Y-96800000D02*
X139200000Y-98000000D01*
X132400000Y-106200000D02*
X132400000Y-99170452D01*
X132400000Y-99170452D02*
X134770452Y-96800000D01*
X134770452Y-96800000D02*
X138000000Y-96800000D01*
X139200000Y-102600000D02*
X139600000Y-103000000D01*
%TO.N,/MOT_4*%
X166200000Y-107000000D02*
X165802000Y-107398000D01*
X165802000Y-107398000D02*
X157802000Y-107398000D01*
X157802000Y-107398000D02*
X157400000Y-107800000D01*
D19*
%TO.N,+BATT*%
X168200000Y-107600000D02*
X166600000Y-109200000D01*
X169400000Y-107600000D02*
X168200000Y-107600000D01*
X167740000Y-102740000D02*
X169400000Y-104400000D01*
X166600000Y-102740000D02*
X167740000Y-102740000D01*
X169400000Y-104400000D02*
X169400000Y-107600000D01*
X166600000Y-109200000D02*
X166600000Y-113400000D01*
X168015076Y-114584924D02*
X167784924Y-114584924D01*
X167784924Y-114584924D02*
X166600000Y-113400000D01*
X166600000Y-102740000D02*
X165000000Y-101140000D01*
D18*
%TO.N,/DTR*%
X132600000Y-91200000D02*
X141200000Y-91200000D01*
X141200000Y-91200000D02*
X141400000Y-91000000D01*
%TO.N,/RX*%
X145200000Y-113000000D02*
X143400000Y-113000000D01*
%TO.N,/LED_3*%
X139600000Y-108400000D02*
X139600000Y-106954056D01*
X137687944Y-105042000D02*
X136350112Y-105042000D01*
X139600000Y-106954056D02*
X137687944Y-105042000D01*
X136350112Y-105042000D02*
X133400000Y-102091888D01*
X133400000Y-102091888D02*
X133400000Y-99200000D01*
%TO.N,/IO0*%
X141200000Y-96600000D02*
X140600000Y-96000000D01*
X140600000Y-96000000D02*
X138800000Y-96000000D01*
%TO.N,+3V3*%
X146600000Y-92600000D02*
X153000000Y-92600000D01*
X153000000Y-92600000D02*
X153200000Y-92800000D01*
D19*
%TO.N,+BATT*%
X165000000Y-101140000D02*
X163200000Y-101140000D01*
X167900000Y-75700000D02*
X166400000Y-77200000D01*
X166400000Y-77200000D02*
X166400000Y-78400000D01*
X166400000Y-78400000D02*
X169400000Y-78400000D01*
X169400000Y-78400000D02*
X172600000Y-81600000D01*
X172600000Y-81600000D02*
X172600000Y-99200000D01*
X172600000Y-99200000D02*
X170660000Y-101140000D01*
X170660000Y-101140000D02*
X165000000Y-101140000D01*
D20*
%TO.N,+5V*%
X155000000Y-81000000D02*
X160735000Y-81000000D01*
X163000000Y-78735000D02*
X163000000Y-78000000D01*
X160735000Y-81000000D02*
X163000000Y-78735000D01*
D21*
%TO.N,/D-*%
X150905000Y-79500000D02*
X151405000Y-80000000D01*
X149500000Y-79500000D02*
X150905000Y-79500000D01*
D18*
%TO.N,/MOT_2*%
X155600000Y-96050000D02*
X155600000Y-108800000D01*
%TD*%
%TA.AperFunction,Conductor*%
%TO.N,GND*%
G36*
X168837487Y-70237890D02*
G01*
X168842323Y-70242323D01*
X175025924Y-76425924D01*
X175047664Y-76472544D01*
X175047950Y-76479098D01*
X175047950Y-78079982D01*
X175030357Y-78128320D01*
X174992213Y-78152619D01*
X174971007Y-78158301D01*
X174914713Y-78173385D01*
X174834783Y-78219534D01*
X174769534Y-78284783D01*
X174723385Y-78364713D01*
X174709594Y-78416180D01*
X174699500Y-78453856D01*
X174699500Y-78546144D01*
X174723386Y-78635288D01*
X174769531Y-78715212D01*
X174769532Y-78715213D01*
X174769534Y-78715216D01*
X174826144Y-78771826D01*
X174847884Y-78818446D01*
X174834570Y-78868133D01*
X174826144Y-78878174D01*
X174769534Y-78934783D01*
X174723385Y-79014713D01*
X174718811Y-79031785D01*
X174699500Y-79103856D01*
X174699500Y-79196144D01*
X174705887Y-79219979D01*
X174718811Y-79268216D01*
X174723386Y-79285288D01*
X174769531Y-79365212D01*
X174769532Y-79365213D01*
X174769534Y-79365216D01*
X174834785Y-79430467D01*
X174842421Y-79434876D01*
X174875485Y-79474282D01*
X174875483Y-79525722D01*
X174842421Y-79565124D01*
X174834785Y-79569532D01*
X174834785Y-79569533D01*
X174769534Y-79634783D01*
X174723385Y-79714713D01*
X174718811Y-79731785D01*
X174699500Y-79803856D01*
X174699500Y-79896144D01*
X174714642Y-79952656D01*
X174715623Y-79956318D01*
X174723386Y-79985288D01*
X174769531Y-80065212D01*
X174769532Y-80065213D01*
X174769534Y-80065216D01*
X174834785Y-80130467D01*
X174842421Y-80134876D01*
X174875485Y-80174282D01*
X174875483Y-80225722D01*
X174842421Y-80265124D01*
X174834785Y-80269532D01*
X174834785Y-80269533D01*
X174769534Y-80334783D01*
X174723385Y-80414713D01*
X174709594Y-80466180D01*
X174699500Y-80503856D01*
X174699500Y-80596144D01*
X174723386Y-80685288D01*
X174769531Y-80765212D01*
X174769532Y-80765213D01*
X174769534Y-80765216D01*
X174834785Y-80830467D01*
X174842421Y-80834876D01*
X174875485Y-80874282D01*
X174875483Y-80925722D01*
X174842421Y-80965124D01*
X174834785Y-80969532D01*
X174834785Y-80969533D01*
X174769534Y-81034783D01*
X174723385Y-81114713D01*
X174714371Y-81148357D01*
X174699500Y-81203856D01*
X174699500Y-81296144D01*
X174705691Y-81319249D01*
X174720251Y-81373590D01*
X174723386Y-81385288D01*
X174769531Y-81465212D01*
X174769532Y-81465213D01*
X174769534Y-81465216D01*
X174834783Y-81530465D01*
X174834785Y-81530466D01*
X174834788Y-81530469D01*
X174914712Y-81576614D01*
X174992214Y-81597380D01*
X175034350Y-81626883D01*
X175047950Y-81670017D01*
X175047950Y-108779982D01*
X175030357Y-108828320D01*
X174992213Y-108852619D01*
X174971007Y-108858301D01*
X174914713Y-108873385D01*
X174878088Y-108894531D01*
X174835277Y-108919249D01*
X174834783Y-108919534D01*
X174769534Y-108984783D01*
X174723385Y-109064713D01*
X174712537Y-109105201D01*
X174699500Y-109153856D01*
X174699500Y-109246144D01*
X174723386Y-109335288D01*
X174769531Y-109415212D01*
X174769532Y-109415213D01*
X174769534Y-109415216D01*
X174826144Y-109471826D01*
X174847884Y-109518446D01*
X174834570Y-109568133D01*
X174826144Y-109578174D01*
X174769534Y-109634783D01*
X174723385Y-109714713D01*
X174712086Y-109756884D01*
X174699500Y-109803856D01*
X174699500Y-109896144D01*
X174707610Y-109926410D01*
X174718811Y-109968216D01*
X174723386Y-109985288D01*
X174769531Y-110065212D01*
X174769532Y-110065213D01*
X174769534Y-110065216D01*
X174834785Y-110130467D01*
X174842421Y-110134876D01*
X174875485Y-110174282D01*
X174875483Y-110225722D01*
X174842421Y-110265124D01*
X174834785Y-110269532D01*
X174834785Y-110269533D01*
X174769534Y-110334783D01*
X174723385Y-110414713D01*
X174718811Y-110431785D01*
X174699500Y-110503856D01*
X174699500Y-110596144D01*
X174723386Y-110685288D01*
X174769531Y-110765212D01*
X174769532Y-110765213D01*
X174769534Y-110765216D01*
X174834785Y-110830467D01*
X174842421Y-110834876D01*
X174875485Y-110874282D01*
X174875483Y-110925722D01*
X174842421Y-110965124D01*
X174834785Y-110969532D01*
X174834785Y-110969533D01*
X174769534Y-111034783D01*
X174723385Y-111114713D01*
X174709594Y-111166180D01*
X174699500Y-111203856D01*
X174699500Y-111296144D01*
X174723386Y-111385288D01*
X174769531Y-111465212D01*
X174769532Y-111465213D01*
X174769534Y-111465216D01*
X174834785Y-111530467D01*
X174842421Y-111534876D01*
X174875485Y-111574282D01*
X174875483Y-111625722D01*
X174842421Y-111665124D01*
X174834785Y-111669532D01*
X174834785Y-111669533D01*
X174769534Y-111734783D01*
X174723385Y-111814713D01*
X174712616Y-111854907D01*
X174699500Y-111903856D01*
X174699500Y-111996144D01*
X174723386Y-112085288D01*
X174769531Y-112165212D01*
X174769532Y-112165213D01*
X174769534Y-112165216D01*
X174834783Y-112230465D01*
X174834785Y-112230466D01*
X174834788Y-112230469D01*
X174914712Y-112276614D01*
X174992214Y-112297380D01*
X175034350Y-112326883D01*
X175047950Y-112370017D01*
X175047950Y-113871754D01*
X175030357Y-113920092D01*
X175026860Y-113923976D01*
X168945334Y-120225314D01*
X168928886Y-120233342D01*
X168914462Y-120244612D01*
X168906376Y-120244329D01*
X168899107Y-120247878D01*
X168881345Y-120243455D01*
X168863053Y-120242816D01*
X168852634Y-120236305D01*
X168849191Y-120235448D01*
X168840905Y-120228976D01*
X168810028Y-120201174D01*
X168808545Y-120199767D01*
X168808290Y-120199676D01*
X168806225Y-120199731D01*
X131379539Y-120199731D01*
X131331201Y-120182138D01*
X131326571Y-120177911D01*
X125071182Y-113970824D01*
X125049262Y-113924288D01*
X125048950Y-113917444D01*
X125048950Y-112339149D01*
X125066543Y-112290811D01*
X125104685Y-112266512D01*
X125160288Y-112251614D01*
X125240212Y-112205469D01*
X125305469Y-112140212D01*
X125351614Y-112060288D01*
X125375500Y-111971144D01*
X125375500Y-111878856D01*
X125351614Y-111789712D01*
X125305469Y-111709788D01*
X125305466Y-111709785D01*
X125305465Y-111709783D01*
X125240215Y-111644533D01*
X125240212Y-111644531D01*
X125232579Y-111640124D01*
X125199515Y-111600720D01*
X125199515Y-111549280D01*
X125232579Y-111509875D01*
X125240212Y-111505469D01*
X125305469Y-111440212D01*
X125351614Y-111360288D01*
X125375500Y-111271144D01*
X125375500Y-111178856D01*
X125351614Y-111089712D01*
X125305469Y-111009788D01*
X125305466Y-111009785D01*
X125305465Y-111009783D01*
X125240215Y-110944533D01*
X125240212Y-110944531D01*
X125232579Y-110940124D01*
X125199515Y-110900720D01*
X125199515Y-110849280D01*
X125232579Y-110809875D01*
X125240212Y-110805469D01*
X125305469Y-110740212D01*
X125351614Y-110660288D01*
X125375500Y-110571144D01*
X125375500Y-110478856D01*
X125351614Y-110389712D01*
X125305469Y-110309788D01*
X125305466Y-110309785D01*
X125305465Y-110309783D01*
X125240215Y-110244533D01*
X125240212Y-110244531D01*
X125232579Y-110240124D01*
X125199515Y-110200720D01*
X125199515Y-110149280D01*
X125232579Y-110109875D01*
X125240212Y-110105469D01*
X125305469Y-110040212D01*
X125351614Y-109960288D01*
X125375500Y-109871144D01*
X125375500Y-109778856D01*
X125351614Y-109689712D01*
X125305469Y-109609788D01*
X125305466Y-109609785D01*
X125305465Y-109609783D01*
X125248856Y-109553174D01*
X125227116Y-109506554D01*
X125240430Y-109456867D01*
X125248856Y-109446826D01*
X125305465Y-109390216D01*
X125305469Y-109390212D01*
X125351614Y-109310288D01*
X125375500Y-109221144D01*
X125375500Y-109128856D01*
X125351614Y-109039712D01*
X125305469Y-108959788D01*
X125305466Y-108959785D01*
X125305465Y-108959783D01*
X125240216Y-108894534D01*
X125240213Y-108894532D01*
X125240212Y-108894531D01*
X125160288Y-108848386D01*
X125160287Y-108848385D01*
X125160286Y-108848385D01*
X125117597Y-108836947D01*
X125104686Y-108833487D01*
X125062550Y-108803983D01*
X125048950Y-108760850D01*
X125048950Y-81664149D01*
X125066543Y-81615811D01*
X125104685Y-81591512D01*
X125160288Y-81576614D01*
X125240212Y-81530469D01*
X125240463Y-81530218D01*
X130091500Y-81530218D01*
X130091500Y-106669782D01*
X130118727Y-106806661D01*
X130166063Y-106920943D01*
X130172135Y-106935601D01*
X130249672Y-107051643D01*
X130249674Y-107051645D01*
X130249676Y-107051648D01*
X132669474Y-109471445D01*
X132691214Y-109518065D01*
X132691500Y-109524619D01*
X132691500Y-112675380D01*
X132673907Y-112723718D01*
X132669474Y-112728554D01*
X130849676Y-114548351D01*
X130849674Y-114548354D01*
X130772134Y-114664400D01*
X130718727Y-114793338D01*
X130691500Y-114930217D01*
X130691500Y-115069782D01*
X130718727Y-115206661D01*
X130770869Y-115332546D01*
X130772135Y-115335601D01*
X130849672Y-115451643D01*
X130849674Y-115451645D01*
X130849676Y-115451648D01*
X130948351Y-115550323D01*
X130948354Y-115550325D01*
X130948357Y-115550328D01*
X131064399Y-115627865D01*
X131193339Y-115681273D01*
X131296229Y-115701739D01*
X131330217Y-115708500D01*
X131330218Y-115708500D01*
X131469783Y-115708500D01*
X131492492Y-115703982D01*
X131606661Y-115681273D01*
X131735601Y-115627865D01*
X131851643Y-115550328D01*
X131958484Y-115443485D01*
X131992192Y-115424024D01*
X132074246Y-115402039D01*
X132211178Y-115322982D01*
X132322982Y-115211178D01*
X132402039Y-115074246D01*
X132424024Y-114992191D01*
X132428038Y-114985239D01*
X132428508Y-114979874D01*
X132443485Y-114958484D01*
X132458483Y-114943486D01*
X132492191Y-114924024D01*
X132574246Y-114902039D01*
X132711178Y-114822982D01*
X132822982Y-114711178D01*
X132902039Y-114574246D01*
X132924024Y-114492191D01*
X132943485Y-114458484D01*
X133950328Y-113451643D01*
X134027865Y-113335601D01*
X134081273Y-113206661D01*
X134108500Y-113069782D01*
X134108500Y-112930219D01*
X134108500Y-111196534D01*
X136149500Y-111196534D01*
X136149500Y-111403465D01*
X136174762Y-111530469D01*
X136189870Y-111606420D01*
X136269059Y-111797598D01*
X136384023Y-111969655D01*
X136384024Y-111969656D01*
X136384027Y-111969660D01*
X136530339Y-112115972D01*
X136530342Y-112115974D01*
X136530345Y-112115977D01*
X136702402Y-112230941D01*
X136893580Y-112310130D01*
X137039469Y-112339149D01*
X137096534Y-112350500D01*
X137096535Y-112350500D01*
X137303466Y-112350500D01*
X137344056Y-112342426D01*
X137506420Y-112310130D01*
X137697598Y-112230941D01*
X137869655Y-112115977D01*
X138015977Y-111969655D01*
X138130941Y-111797598D01*
X138210130Y-111606420D01*
X138250500Y-111403465D01*
X138250500Y-111196535D01*
X138246983Y-111178856D01*
X138229252Y-111089712D01*
X138210130Y-110993580D01*
X138130941Y-110802402D01*
X138015977Y-110630345D01*
X138015974Y-110630342D01*
X138015972Y-110630339D01*
X137869660Y-110484027D01*
X137869656Y-110484024D01*
X137869655Y-110484023D01*
X137697598Y-110369059D01*
X137506420Y-110289870D01*
X137506417Y-110289869D01*
X137506416Y-110289869D01*
X137303466Y-110249500D01*
X137303465Y-110249500D01*
X137096535Y-110249500D01*
X137096534Y-110249500D01*
X136893583Y-110289869D01*
X136893580Y-110289870D01*
X136702403Y-110369058D01*
X136530339Y-110484027D01*
X136384027Y-110630339D01*
X136269058Y-110802403D01*
X136189870Y-110993580D01*
X136189869Y-110993583D01*
X136149500Y-111196534D01*
X134108500Y-111196534D01*
X134108500Y-109130219D01*
X134081273Y-108993338D01*
X134067288Y-108959576D01*
X134049986Y-108917806D01*
X134049985Y-108917805D01*
X134027865Y-108864399D01*
X133950328Y-108748357D01*
X133950325Y-108748354D01*
X133950323Y-108748351D01*
X133907987Y-108706015D01*
X133858506Y-108656534D01*
X136149500Y-108656534D01*
X136149500Y-108863465D01*
X136182980Y-109031784D01*
X136189870Y-109066420D01*
X136226088Y-109153858D01*
X136264314Y-109246144D01*
X136269059Y-109257598D01*
X136384023Y-109429655D01*
X136384024Y-109429656D01*
X136384027Y-109429660D01*
X136530339Y-109575972D01*
X136530342Y-109575974D01*
X136530345Y-109575977D01*
X136702402Y-109690941D01*
X136893580Y-109770130D01*
X137045796Y-109800407D01*
X137096534Y-109810500D01*
X137096535Y-109810500D01*
X137303466Y-109810500D01*
X137344056Y-109802426D01*
X137506420Y-109770130D01*
X137697598Y-109690941D01*
X137869655Y-109575977D01*
X138015977Y-109429655D01*
X138130941Y-109257598D01*
X138210130Y-109066420D01*
X138250500Y-108863465D01*
X138250500Y-108656535D01*
X138210130Y-108453580D01*
X138130941Y-108262402D01*
X138015977Y-108090345D01*
X138015974Y-108090342D01*
X138015972Y-108090339D01*
X137869660Y-107944027D01*
X137869656Y-107944024D01*
X137869655Y-107944023D01*
X137697598Y-107829059D01*
X137506420Y-107749870D01*
X137506417Y-107749869D01*
X137506416Y-107749869D01*
X137303466Y-107709500D01*
X137303465Y-107709500D01*
X137096535Y-107709500D01*
X137096534Y-107709500D01*
X136893583Y-107749869D01*
X136893580Y-107749870D01*
X136702403Y-107829058D01*
X136530339Y-107944027D01*
X136384027Y-108090339D01*
X136269058Y-108262403D01*
X136189870Y-108453580D01*
X136189869Y-108453583D01*
X136149500Y-108656534D01*
X133858506Y-108656534D01*
X132082737Y-106880766D01*
X132060997Y-106834146D01*
X132074311Y-106784459D01*
X132116448Y-106754954D01*
X132164687Y-106758115D01*
X132168209Y-106759573D01*
X132168216Y-106759577D01*
X132320943Y-106800500D01*
X132320946Y-106800500D01*
X132479054Y-106800500D01*
X132479057Y-106800500D01*
X132631784Y-106759577D01*
X132768716Y-106680520D01*
X132880520Y-106568716D01*
X132959577Y-106431784D01*
X133000500Y-106279057D01*
X133000500Y-106120943D01*
X132959577Y-105968216D01*
X132880520Y-105831284D01*
X132880518Y-105831282D01*
X132880516Y-105831279D01*
X132768720Y-105719483D01*
X132768717Y-105719481D01*
X132768716Y-105719480D01*
X132765098Y-105717391D01*
X132732035Y-105677986D01*
X132727500Y-105652267D01*
X132727500Y-99516846D01*
X132745093Y-99468508D01*
X132789642Y-99442788D01*
X132840300Y-99451721D01*
X132867824Y-99479245D01*
X132913925Y-99559095D01*
X132919479Y-99568714D01*
X132919483Y-99568720D01*
X133031279Y-99680516D01*
X133031282Y-99680518D01*
X133031284Y-99680520D01*
X133034896Y-99682605D01*
X133067963Y-99722007D01*
X133072500Y-99747732D01*
X133072500Y-102048772D01*
X133072500Y-102135004D01*
X133076553Y-102150129D01*
X133094819Y-102218299D01*
X133137934Y-102292976D01*
X133137938Y-102292982D01*
X136149017Y-105304061D01*
X136149020Y-105304063D01*
X136149022Y-105304065D01*
X136223702Y-105347181D01*
X136306996Y-105369500D01*
X136383319Y-105369500D01*
X136431657Y-105387093D01*
X136457377Y-105431642D01*
X136448444Y-105482300D01*
X136436493Y-105497874D01*
X136384028Y-105550338D01*
X136384027Y-105550339D01*
X136269058Y-105722403D01*
X136189870Y-105913580D01*
X136189869Y-105913583D01*
X136149500Y-106116534D01*
X136149500Y-106323465D01*
X136188489Y-106519480D01*
X136189870Y-106526420D01*
X136233304Y-106631279D01*
X136259623Y-106694819D01*
X136269059Y-106717598D01*
X136384023Y-106889655D01*
X136384024Y-106889656D01*
X136384027Y-106889660D01*
X136530339Y-107035972D01*
X136530342Y-107035974D01*
X136530345Y-107035977D01*
X136702402Y-107150941D01*
X136893580Y-107230130D01*
X137045796Y-107260407D01*
X137096534Y-107270500D01*
X137096535Y-107270500D01*
X137303466Y-107270500D01*
X137345891Y-107262061D01*
X137506420Y-107230130D01*
X137697598Y-107150941D01*
X137869655Y-107035977D01*
X138015977Y-106889655D01*
X138130941Y-106717598D01*
X138210130Y-106526420D01*
X138250500Y-106323465D01*
X138250500Y-106249259D01*
X138268093Y-106200921D01*
X138312642Y-106175201D01*
X138363300Y-106184134D01*
X138378874Y-106196085D01*
X139250474Y-107067685D01*
X139272214Y-107114305D01*
X139272500Y-107120859D01*
X139272500Y-107852267D01*
X139254907Y-107900605D01*
X139234901Y-107917392D01*
X139231282Y-107919481D01*
X139231279Y-107919483D01*
X139119483Y-108031279D01*
X139119479Y-108031285D01*
X139040423Y-108168214D01*
X139028273Y-108213560D01*
X138999500Y-108320943D01*
X138999500Y-108479057D01*
X139021935Y-108562786D01*
X139040423Y-108631785D01*
X139119479Y-108768714D01*
X139119483Y-108768720D01*
X139231279Y-108880516D01*
X139231282Y-108880518D01*
X139231284Y-108880520D01*
X139368216Y-108959577D01*
X139520943Y-109000500D01*
X139520946Y-109000500D01*
X139679054Y-109000500D01*
X139679057Y-109000500D01*
X139831784Y-108959577D01*
X139968716Y-108880520D01*
X140080520Y-108768716D01*
X140159577Y-108631784D01*
X140200500Y-108479057D01*
X140200500Y-108320943D01*
X140159577Y-108168216D01*
X140080520Y-108031284D01*
X140080518Y-108031282D01*
X140080516Y-108031279D01*
X139968720Y-107919483D01*
X139968717Y-107919481D01*
X139968716Y-107919480D01*
X139965098Y-107917391D01*
X139932035Y-107877986D01*
X139927500Y-107852267D01*
X139927500Y-106910941D01*
X139921798Y-106889660D01*
X139905181Y-106827646D01*
X139862065Y-106752966D01*
X139801090Y-106691991D01*
X138940378Y-105831279D01*
X137889038Y-104779938D01*
X137889032Y-104779934D01*
X137814355Y-104736819D01*
X137790772Y-104730500D01*
X137756863Y-104721414D01*
X137714728Y-104691910D01*
X137701414Y-104642223D01*
X137723154Y-104595602D01*
X137734540Y-104586257D01*
X137869655Y-104495977D01*
X138015977Y-104349655D01*
X138130941Y-104177598D01*
X138210130Y-103986420D01*
X138250500Y-103783465D01*
X138250500Y-103576535D01*
X138210130Y-103373580D01*
X138130941Y-103182402D01*
X138015977Y-103010345D01*
X138015974Y-103010342D01*
X138015972Y-103010339D01*
X137869660Y-102864027D01*
X137869656Y-102864024D01*
X137869655Y-102864023D01*
X137697598Y-102749059D01*
X137506420Y-102669870D01*
X137506417Y-102669869D01*
X137506416Y-102669869D01*
X137303466Y-102629500D01*
X137303465Y-102629500D01*
X137096535Y-102629500D01*
X137096534Y-102629500D01*
X136893583Y-102669869D01*
X136893580Y-102669870D01*
X136702403Y-102749058D01*
X136530339Y-102864027D01*
X136384027Y-103010339D01*
X136269058Y-103182403D01*
X136189870Y-103373580D01*
X136189869Y-103373583D01*
X136152873Y-103559576D01*
X136149500Y-103576535D01*
X136149500Y-103783465D01*
X136189870Y-103986420D01*
X136269059Y-104177598D01*
X136384023Y-104349655D01*
X136384024Y-104349656D01*
X136384027Y-104349660D01*
X136530339Y-104495972D01*
X136530342Y-104495974D01*
X136530345Y-104495977D01*
X136651268Y-104576774D01*
X136681684Y-104618257D01*
X136678320Y-104669586D01*
X136642748Y-104706745D01*
X136609488Y-104714500D01*
X136516915Y-104714500D01*
X136468577Y-104696907D01*
X136463741Y-104692474D01*
X133749526Y-101978259D01*
X133727786Y-101931639D01*
X133727500Y-101925085D01*
X133727500Y-99747732D01*
X133745093Y-99699394D01*
X133765102Y-99682606D01*
X133768716Y-99680520D01*
X133880520Y-99568716D01*
X133959577Y-99431784D01*
X134000500Y-99279057D01*
X134000500Y-99120943D01*
X133959577Y-98968216D01*
X133959576Y-98968214D01*
X133959576Y-98968213D01*
X133897360Y-98860451D01*
X133880521Y-98831285D01*
X133880516Y-98831279D01*
X133768720Y-98719483D01*
X133768714Y-98719479D01*
X133765660Y-98717716D01*
X133733926Y-98699394D01*
X133631785Y-98640423D01*
X133592377Y-98629864D01*
X133569416Y-98623711D01*
X133527280Y-98594207D01*
X133513966Y-98544520D01*
X133535705Y-98497901D01*
X134884081Y-97149526D01*
X134930701Y-97127786D01*
X134937255Y-97127500D01*
X136148527Y-97127500D01*
X136196865Y-97145093D01*
X136222585Y-97189642D01*
X136213652Y-97240300D01*
X136174807Y-97273159D01*
X136104036Y-97299555D01*
X136104034Y-97299556D01*
X135987096Y-97387096D01*
X135899556Y-97504034D01*
X135899555Y-97504036D01*
X135848505Y-97640904D01*
X135848504Y-97640907D01*
X135842000Y-97701406D01*
X135842000Y-98346000D01*
X136769297Y-98346000D01*
X136734075Y-98407007D01*
X136700000Y-98534174D01*
X136700000Y-98665826D01*
X136734075Y-98792993D01*
X136769297Y-98854000D01*
X135842000Y-98854000D01*
X135842000Y-99498593D01*
X135848504Y-99559092D01*
X135848505Y-99559095D01*
X135899555Y-99695963D01*
X135899556Y-99695965D01*
X135987096Y-99812903D01*
X136104034Y-99900443D01*
X136104036Y-99900444D01*
X136240904Y-99951494D01*
X136240907Y-99951495D01*
X136301406Y-99957999D01*
X136301418Y-99958000D01*
X136994112Y-99958000D01*
X137042450Y-99975593D01*
X137068170Y-100020142D01*
X137059237Y-100070800D01*
X137019832Y-100103865D01*
X137008784Y-100106954D01*
X136985303Y-100111625D01*
X136893582Y-100129869D01*
X136893580Y-100129870D01*
X136702403Y-100209058D01*
X136530339Y-100324027D01*
X136384027Y-100470339D01*
X136269058Y-100642403D01*
X136221638Y-100756885D01*
X136189870Y-100833580D01*
X136149500Y-101036535D01*
X136149500Y-101243465D01*
X136189870Y-101446420D01*
X136269059Y-101637598D01*
X136384023Y-101809655D01*
X136384024Y-101809656D01*
X136384027Y-101809660D01*
X136530339Y-101955972D01*
X136530342Y-101955974D01*
X136530345Y-101955977D01*
X136702402Y-102070941D01*
X136893580Y-102150130D01*
X137045796Y-102180407D01*
X137096534Y-102190500D01*
X137096535Y-102190500D01*
X137303466Y-102190500D01*
X137344056Y-102182426D01*
X137506420Y-102150130D01*
X137697598Y-102070941D01*
X137869655Y-101955977D01*
X138015977Y-101809655D01*
X138130941Y-101637598D01*
X138210130Y-101446420D01*
X138250500Y-101243465D01*
X138250500Y-101036535D01*
X138210130Y-100833580D01*
X138130941Y-100642402D01*
X138015977Y-100470345D01*
X138015974Y-100470342D01*
X138015972Y-100470339D01*
X137869660Y-100324027D01*
X137869656Y-100324024D01*
X137869655Y-100324023D01*
X137697598Y-100209059D01*
X137506420Y-100129870D01*
X137506418Y-100129869D01*
X137506417Y-100129869D01*
X137423074Y-100113291D01*
X137391216Y-100106954D01*
X137347241Y-100080269D01*
X137330706Y-100031559D01*
X137349350Y-99983617D01*
X137394448Y-99958875D01*
X137405888Y-99958000D01*
X138098582Y-99958000D01*
X138098593Y-99957999D01*
X138159092Y-99951495D01*
X138159095Y-99951494D01*
X138295963Y-99900444D01*
X138295965Y-99900443D01*
X138412903Y-99812903D01*
X138500443Y-99695965D01*
X138500444Y-99695963D01*
X138551494Y-99559095D01*
X138551495Y-99559092D01*
X138557999Y-99498593D01*
X138558000Y-99498582D01*
X138558000Y-98854000D01*
X137630703Y-98854000D01*
X137665925Y-98792993D01*
X137700000Y-98665826D01*
X137700000Y-98534174D01*
X137665925Y-98407007D01*
X137630703Y-98346000D01*
X138558000Y-98346000D01*
X138558000Y-98002703D01*
X138575593Y-97954365D01*
X138620142Y-97928645D01*
X138670800Y-97937578D01*
X138686374Y-97949529D01*
X138850474Y-98113629D01*
X138872214Y-98160249D01*
X138872500Y-98166803D01*
X138872500Y-102556884D01*
X138872500Y-102643116D01*
X138879669Y-102669869D01*
X138894819Y-102726411D01*
X138907895Y-102749059D01*
X138937935Y-102801090D01*
X138981117Y-102844272D01*
X139002857Y-102890891D01*
X139000582Y-102916902D01*
X138999500Y-102920940D01*
X138999500Y-102920943D01*
X138999500Y-103079057D01*
X139030192Y-103193602D01*
X139040423Y-103231785D01*
X139119479Y-103368714D01*
X139119483Y-103368720D01*
X139231279Y-103480516D01*
X139231282Y-103480518D01*
X139231284Y-103480520D01*
X139368216Y-103559577D01*
X139520943Y-103600500D01*
X139520946Y-103600500D01*
X139679054Y-103600500D01*
X139679057Y-103600500D01*
X139831784Y-103559577D01*
X139968716Y-103480520D01*
X140080520Y-103368716D01*
X140159577Y-103231784D01*
X140200500Y-103079057D01*
X140200500Y-102920943D01*
X140159577Y-102768216D01*
X140080520Y-102631284D01*
X140080518Y-102631282D01*
X140080516Y-102631279D01*
X139968720Y-102519483D01*
X139968714Y-102519479D01*
X139831785Y-102440423D01*
X139793602Y-102430192D01*
X139679057Y-102399500D01*
X139679054Y-102399500D01*
X139602700Y-102399500D01*
X139554362Y-102381907D01*
X139528642Y-102337358D01*
X139527500Y-102324300D01*
X139527500Y-97956885D01*
X139505180Y-97873588D01*
X139480753Y-97831279D01*
X139462065Y-97798910D01*
X139401090Y-97737935D01*
X138808248Y-97145093D01*
X138201094Y-96537938D01*
X138201088Y-96537934D01*
X138126411Y-96494819D01*
X138073046Y-96480520D01*
X138043116Y-96472500D01*
X134813568Y-96472500D01*
X134727336Y-96472500D01*
X134697406Y-96480520D01*
X134644040Y-96494819D01*
X134569363Y-96537934D01*
X134569357Y-96537938D01*
X132761297Y-98346000D01*
X132198910Y-98908387D01*
X132168422Y-98938874D01*
X132137935Y-98969361D01*
X132137934Y-98969363D01*
X132094819Y-99044040D01*
X132088955Y-99065925D01*
X132074213Y-99120945D01*
X132072500Y-99127337D01*
X132072500Y-105652267D01*
X132054907Y-105700605D01*
X132034901Y-105717392D01*
X132031282Y-105719481D01*
X132031279Y-105719483D01*
X131919483Y-105831279D01*
X131919479Y-105831285D01*
X131840423Y-105968214D01*
X131820354Y-106043114D01*
X131799500Y-106120943D01*
X131799500Y-106279057D01*
X131812763Y-106328554D01*
X131840424Y-106431787D01*
X131841883Y-106435309D01*
X131844128Y-106486700D01*
X131812814Y-106527510D01*
X131762594Y-106538645D01*
X131719234Y-106517262D01*
X131530526Y-106328554D01*
X131508786Y-106281934D01*
X131508500Y-106275380D01*
X131508500Y-83120943D01*
X136199500Y-83120943D01*
X136199500Y-83279057D01*
X136230192Y-83393602D01*
X136240423Y-83431785D01*
X136319479Y-83568714D01*
X136319483Y-83568720D01*
X136431279Y-83680516D01*
X136431282Y-83680518D01*
X136431284Y-83680520D01*
X136568216Y-83759577D01*
X136720943Y-83800500D01*
X136720946Y-83800500D01*
X136879054Y-83800500D01*
X136879057Y-83800500D01*
X137031784Y-83759577D01*
X137168716Y-83680520D01*
X137280520Y-83568716D01*
X137282608Y-83565098D01*
X137322014Y-83532035D01*
X137347733Y-83527500D01*
X142033197Y-83527500D01*
X142081535Y-83545093D01*
X142086371Y-83549526D01*
X143850474Y-85313629D01*
X143872214Y-85360249D01*
X143872500Y-85366803D01*
X143872500Y-86252267D01*
X143854907Y-86300605D01*
X143834901Y-86317392D01*
X143831282Y-86319481D01*
X143831279Y-86319483D01*
X143719483Y-86431279D01*
X143719479Y-86431285D01*
X143640423Y-86568214D01*
X143623363Y-86631884D01*
X143599500Y-86720943D01*
X143599500Y-86879057D01*
X143630192Y-86993602D01*
X143640423Y-87031785D01*
X143719479Y-87168714D01*
X143719483Y-87168720D01*
X143831279Y-87280516D01*
X143831282Y-87280518D01*
X143831284Y-87280520D01*
X143968216Y-87359577D01*
X144120943Y-87400500D01*
X144120946Y-87400500D01*
X144279054Y-87400500D01*
X144279057Y-87400500D01*
X144431784Y-87359577D01*
X144568716Y-87280520D01*
X144680520Y-87168716D01*
X144759577Y-87031784D01*
X144800500Y-86879057D01*
X144800500Y-86720943D01*
X144759577Y-86568216D01*
X144680520Y-86431284D01*
X144680518Y-86431282D01*
X144680516Y-86431279D01*
X144568720Y-86319483D01*
X144568717Y-86319481D01*
X144568716Y-86319480D01*
X144565098Y-86317391D01*
X144532035Y-86277986D01*
X144527500Y-86252267D01*
X144527500Y-85156885D01*
X144505180Y-85073588D01*
X144480753Y-85031279D01*
X144462065Y-84998910D01*
X144401090Y-84937935D01*
X143406689Y-83943534D01*
X142401094Y-82937938D01*
X142401088Y-82937934D01*
X142326411Y-82894819D01*
X142298645Y-82887379D01*
X142243116Y-82872500D01*
X142243114Y-82872500D01*
X137347733Y-82872500D01*
X137299395Y-82854907D01*
X137282608Y-82834901D01*
X137280520Y-82831284D01*
X137280518Y-82831282D01*
X137280516Y-82831279D01*
X137168720Y-82719483D01*
X137168714Y-82719479D01*
X137031785Y-82640423D01*
X136993602Y-82630192D01*
X136879057Y-82599500D01*
X136720943Y-82599500D01*
X136629306Y-82624053D01*
X136568214Y-82640423D01*
X136431285Y-82719479D01*
X136431279Y-82719483D01*
X136319483Y-82831279D01*
X136319479Y-82831285D01*
X136240423Y-82968214D01*
X136219961Y-83044579D01*
X136199500Y-83120943D01*
X131508500Y-83120943D01*
X131508500Y-81924618D01*
X131526093Y-81876280D01*
X131530515Y-81871455D01*
X134849890Y-78552079D01*
X134865450Y-78540138D01*
X134968716Y-78480520D01*
X135080520Y-78368716D01*
X135140138Y-78265450D01*
X135152079Y-78249890D01*
X135449890Y-77952079D01*
X135465450Y-77940138D01*
X135568716Y-77880520D01*
X135680520Y-77768716D01*
X135740137Y-77665453D01*
X135752079Y-77649890D01*
X136049890Y-77352079D01*
X136065450Y-77340138D01*
X136168716Y-77280520D01*
X136280520Y-77168716D01*
X136340138Y-77065450D01*
X136352076Y-77049893D01*
X137071446Y-76330524D01*
X137118065Y-76308786D01*
X137124619Y-76308500D01*
X145252340Y-76308500D01*
X145300678Y-76326093D01*
X145326398Y-76370642D01*
X145317465Y-76421300D01*
X145314867Y-76425479D01*
X145266721Y-76497534D01*
X145190738Y-76680973D01*
X145190737Y-76680974D01*
X145152000Y-76875720D01*
X145152000Y-77271000D01*
X145860000Y-77271000D01*
X145860000Y-77779000D01*
X145152000Y-77779000D01*
X145152000Y-78174279D01*
X145190737Y-78369025D01*
X145190738Y-78369026D01*
X145266721Y-78552465D01*
X145377037Y-78717564D01*
X145377039Y-78717567D01*
X145517432Y-78857960D01*
X145517435Y-78857962D01*
X145682534Y-78968278D01*
X145865973Y-79044261D01*
X145865975Y-79044262D01*
X145906000Y-79052223D01*
X145906000Y-78235060D01*
X145919940Y-78259205D01*
X145975795Y-78315060D01*
X146044204Y-78354556D01*
X146120504Y-78375000D01*
X146199496Y-78375000D01*
X146275796Y-78354556D01*
X146344205Y-78315060D01*
X146400060Y-78259205D01*
X146414000Y-78235060D01*
X146414000Y-79052223D01*
X146454024Y-79044262D01*
X146454026Y-79044261D01*
X146637465Y-78968278D01*
X146802564Y-78857962D01*
X146802567Y-78857960D01*
X146942960Y-78717567D01*
X146942962Y-78717564D01*
X147053278Y-78552465D01*
X147129261Y-78369026D01*
X147129262Y-78369025D01*
X147168000Y-78174279D01*
X147168000Y-77779000D01*
X146460000Y-77779000D01*
X146460000Y-77271000D01*
X147093363Y-77271000D01*
X147141701Y-77288593D01*
X147158488Y-77308601D01*
X147169492Y-77327660D01*
X147169498Y-77327669D01*
X147267330Y-77425501D01*
X147267333Y-77425503D01*
X147267335Y-77425505D01*
X147293174Y-77440423D01*
X147387161Y-77494687D01*
X147387163Y-77494687D01*
X147387164Y-77494688D01*
X147391508Y-77495852D01*
X147433646Y-77525352D01*
X147446963Y-77575038D01*
X147446107Y-77581546D01*
X147444500Y-77590661D01*
X147444500Y-78676067D01*
X147434743Y-78713110D01*
X146731045Y-79956309D01*
X146731040Y-79956318D01*
X146710993Y-80005822D01*
X146701242Y-80043314D01*
X146701240Y-80043324D01*
X146694628Y-80096320D01*
X146701855Y-81259918D01*
X146684562Y-81308364D01*
X146640174Y-81334360D01*
X146589461Y-81325742D01*
X146572333Y-81312386D01*
X146566064Y-81305837D01*
X146562065Y-81298910D01*
X146501090Y-81237935D01*
X145158317Y-79895162D01*
X143801094Y-78537938D01*
X143801088Y-78537934D01*
X143726411Y-78494819D01*
X143673046Y-78480520D01*
X143643116Y-78472500D01*
X143643114Y-78472500D01*
X139547733Y-78472500D01*
X139499395Y-78454907D01*
X139482608Y-78434901D01*
X139480520Y-78431284D01*
X139480518Y-78431282D01*
X139480516Y-78431279D01*
X139368720Y-78319483D01*
X139368714Y-78319479D01*
X139231785Y-78240423D01*
X139193602Y-78230192D01*
X139079057Y-78199500D01*
X138920943Y-78199500D01*
X138829306Y-78224053D01*
X138768214Y-78240423D01*
X138631285Y-78319479D01*
X138631279Y-78319483D01*
X138519483Y-78431279D01*
X138519479Y-78431285D01*
X138440423Y-78568214D01*
X138422452Y-78635286D01*
X138399500Y-78720943D01*
X138399500Y-78879057D01*
X138415943Y-78940423D01*
X138440423Y-79031785D01*
X138495684Y-79127500D01*
X138507301Y-79147622D01*
X138519479Y-79168714D01*
X138519483Y-79168720D01*
X138631279Y-79280516D01*
X138631282Y-79280518D01*
X138631284Y-79280520D01*
X138768216Y-79359577D01*
X138920943Y-79400500D01*
X138920946Y-79400500D01*
X139079054Y-79400500D01*
X139079057Y-79400500D01*
X139231784Y-79359577D01*
X139368716Y-79280520D01*
X139480520Y-79168716D01*
X139482608Y-79165098D01*
X139522014Y-79132035D01*
X139547733Y-79127500D01*
X143433197Y-79127500D01*
X143481535Y-79145093D01*
X143486371Y-79149526D01*
X145950474Y-81613629D01*
X145972214Y-81660249D01*
X145972500Y-81666803D01*
X145972500Y-86631884D01*
X145972500Y-86718116D01*
X145987379Y-86773645D01*
X145994819Y-86801411D01*
X146037934Y-86876088D01*
X146037938Y-86876094D01*
X147087935Y-87926090D01*
X147148910Y-87987065D01*
X147223590Y-88030181D01*
X147306884Y-88052500D01*
X152358197Y-88052500D01*
X152406535Y-88070093D01*
X152411371Y-88074526D01*
X154581117Y-90244272D01*
X154602857Y-90290892D01*
X154600582Y-90316902D01*
X154599500Y-90320940D01*
X154599500Y-90320943D01*
X154599500Y-90479057D01*
X154630192Y-90593602D01*
X154640423Y-90631785D01*
X154719479Y-90768714D01*
X154719483Y-90768720D01*
X154831279Y-90880516D01*
X154831282Y-90880518D01*
X154831284Y-90880520D01*
X154968216Y-90959577D01*
X155120943Y-91000500D01*
X155120946Y-91000500D01*
X155279054Y-91000500D01*
X155279057Y-91000500D01*
X155431784Y-90959577D01*
X155568716Y-90880520D01*
X155680520Y-90768716D01*
X155759577Y-90631784D01*
X155800500Y-90479057D01*
X155800500Y-90320943D01*
X155759577Y-90168216D01*
X155680520Y-90031284D01*
X155680518Y-90031282D01*
X155680516Y-90031279D01*
X155568720Y-89919483D01*
X155568714Y-89919479D01*
X155431785Y-89840423D01*
X155393602Y-89830192D01*
X155279057Y-89799500D01*
X155120943Y-89799500D01*
X155120940Y-89799500D01*
X155116902Y-89800582D01*
X155065659Y-89796094D01*
X155044272Y-89781117D01*
X152726094Y-87462938D01*
X152726088Y-87462934D01*
X152651411Y-87419819D01*
X152623645Y-87412379D01*
X152568116Y-87397500D01*
X152568114Y-87397500D01*
X147516803Y-87397500D01*
X147468465Y-87379907D01*
X147463629Y-87375474D01*
X146649526Y-86561371D01*
X146627786Y-86514751D01*
X146627500Y-86508197D01*
X146627500Y-84262977D01*
X146645093Y-84214639D01*
X146689642Y-84188919D01*
X146740300Y-84197852D01*
X146768416Y-84226421D01*
X146780847Y-84248769D01*
X146947505Y-84457091D01*
X147003021Y-84526485D01*
X147019500Y-84573462D01*
X147019500Y-85981321D01*
X147025559Y-86030853D01*
X147034299Y-86066046D01*
X147052119Y-86112655D01*
X147248113Y-86482865D01*
X147267441Y-86512775D01*
X147267451Y-86512789D01*
X147267454Y-86512793D01*
X147283397Y-86533312D01*
X147283404Y-86533320D01*
X147293154Y-86544955D01*
X147368017Y-86597490D01*
X147368021Y-86597492D01*
X147415639Y-86616927D01*
X147415642Y-86616927D01*
X147415643Y-86616928D01*
X147485399Y-86632013D01*
X148024025Y-86652729D01*
X149370585Y-86704520D01*
X149370585Y-86704519D01*
X149370590Y-86704520D01*
X149427403Y-86698765D01*
X149467603Y-86688913D01*
X149520644Y-86667744D01*
X150162751Y-86300826D01*
X150194879Y-86278132D01*
X150216592Y-86259437D01*
X150230319Y-86246473D01*
X150277625Y-86168201D01*
X150293769Y-86119360D01*
X150304061Y-86048734D01*
X150256550Y-84457091D01*
X150254295Y-84432260D01*
X150251551Y-84414256D01*
X150250833Y-84409867D01*
X150215447Y-84325534D01*
X150203463Y-84308808D01*
X150185492Y-84283723D01*
X150149773Y-84248769D01*
X150134481Y-84233804D01*
X150134477Y-84233801D01*
X149710240Y-83943534D01*
X149654936Y-83916817D01*
X149654937Y-83916817D01*
X149612473Y-83903680D01*
X149612474Y-83903680D01*
X149586441Y-83899745D01*
X149551736Y-83894500D01*
X149551732Y-83894500D01*
X147778845Y-83894500D01*
X147730507Y-83876907D01*
X147704787Y-83832358D01*
X147703647Y-83819798D01*
X147684450Y-80920943D01*
X154399500Y-80920943D01*
X154399500Y-81079057D01*
X154418068Y-81148354D01*
X154440423Y-81231785D01*
X154519479Y-81368714D01*
X154519483Y-81368720D01*
X154631279Y-81480516D01*
X154631282Y-81480518D01*
X154631284Y-81480520D01*
X154768216Y-81559577D01*
X154920943Y-81600500D01*
X154920946Y-81600500D01*
X155079054Y-81600500D01*
X155079057Y-81600500D01*
X155231784Y-81559577D01*
X155368716Y-81480520D01*
X155368720Y-81480516D01*
X155372711Y-81476526D01*
X155419331Y-81454786D01*
X155425885Y-81454500D01*
X160670545Y-81454500D01*
X160670561Y-81454501D01*
X160675164Y-81454501D01*
X160794836Y-81454501D01*
X160886002Y-81430072D01*
X160910431Y-81423527D01*
X161014070Y-81363691D01*
X161098691Y-81279070D01*
X161104876Y-81272885D01*
X161104883Y-81272875D01*
X163272875Y-79104883D01*
X163272885Y-79104876D01*
X163363691Y-79014070D01*
X163363987Y-79013558D01*
X163423527Y-78910431D01*
X163430072Y-78886002D01*
X163454501Y-78794836D01*
X163454501Y-78675164D01*
X163454501Y-78670562D01*
X163454500Y-78670544D01*
X163454500Y-78425884D01*
X163472093Y-78377546D01*
X163476518Y-78372717D01*
X163480520Y-78368716D01*
X163559577Y-78231784D01*
X163600500Y-78079057D01*
X163600500Y-77920943D01*
X163559577Y-77768216D01*
X163480520Y-77631284D01*
X163480518Y-77631282D01*
X163480516Y-77631279D01*
X163368720Y-77519483D01*
X163368714Y-77519479D01*
X163354360Y-77511192D01*
X163290787Y-77474488D01*
X163231785Y-77440423D01*
X163176094Y-77425501D01*
X163079057Y-77399500D01*
X162920943Y-77399500D01*
X162844783Y-77419907D01*
X162768214Y-77440423D01*
X162631285Y-77519479D01*
X162631279Y-77519483D01*
X162519483Y-77631279D01*
X162519479Y-77631285D01*
X162440423Y-77768214D01*
X162437533Y-77779000D01*
X162399500Y-77920943D01*
X162399500Y-78079057D01*
X162424775Y-78173385D01*
X162440423Y-78231785D01*
X162519479Y-78368714D01*
X162519478Y-78368714D01*
X162519479Y-78368715D01*
X162519480Y-78368716D01*
X162523471Y-78372707D01*
X162530410Y-78387585D01*
X162540965Y-78400164D01*
X162543814Y-78416327D01*
X162545213Y-78419325D01*
X162545500Y-78425884D01*
X162545500Y-78515592D01*
X162527907Y-78563930D01*
X162523474Y-78568766D01*
X160568766Y-80523474D01*
X160522146Y-80545214D01*
X160515592Y-80545500D01*
X155425885Y-80545500D01*
X155377547Y-80527907D01*
X155372711Y-80523474D01*
X155368720Y-80519483D01*
X155368714Y-80519479D01*
X155231785Y-80440423D01*
X155193602Y-80430192D01*
X155079057Y-80399500D01*
X154920943Y-80399500D01*
X154829306Y-80424053D01*
X154768214Y-80440423D01*
X154631285Y-80519479D01*
X154631279Y-80519483D01*
X154519483Y-80631279D01*
X154519479Y-80631285D01*
X154440423Y-80768214D01*
X154419961Y-80844579D01*
X154399500Y-80920943D01*
X147684450Y-80920943D01*
X147681060Y-80409066D01*
X147693532Y-80367091D01*
X148319213Y-79420943D01*
X148899500Y-79420943D01*
X148899500Y-79579057D01*
X148914432Y-79634783D01*
X148940423Y-79731785D01*
X149019479Y-79868714D01*
X149019483Y-79868720D01*
X149131279Y-79980516D01*
X149131282Y-79980518D01*
X149131284Y-79980520D01*
X149268216Y-80059577D01*
X149420943Y-80100500D01*
X149420946Y-80100500D01*
X149579054Y-80100500D01*
X149579057Y-80100500D01*
X149731784Y-80059577D01*
X149868716Y-79980520D01*
X149980520Y-79868716D01*
X149998196Y-79838100D01*
X150037601Y-79805035D01*
X150063321Y-79800500D01*
X150738770Y-79800500D01*
X150787108Y-79818093D01*
X150812828Y-79862642D01*
X150811408Y-79895160D01*
X150804500Y-79920943D01*
X150804500Y-80079057D01*
X150830640Y-80176614D01*
X150845423Y-80231785D01*
X150924479Y-80368714D01*
X150924483Y-80368720D01*
X151036279Y-80480516D01*
X151036282Y-80480518D01*
X151036284Y-80480520D01*
X151173216Y-80559577D01*
X151325943Y-80600500D01*
X151325946Y-80600500D01*
X151484054Y-80600500D01*
X151484057Y-80600500D01*
X151636784Y-80559577D01*
X151773716Y-80480520D01*
X151885520Y-80368716D01*
X151964577Y-80231784D01*
X152005500Y-80079057D01*
X152005500Y-79920943D01*
X151964577Y-79768216D01*
X151885520Y-79631284D01*
X151885518Y-79631282D01*
X151885516Y-79631279D01*
X151773720Y-79519483D01*
X151773714Y-79519479D01*
X151636785Y-79440423D01*
X151598602Y-79430192D01*
X151484057Y-79399500D01*
X151325943Y-79399500D01*
X151308532Y-79404165D01*
X151291792Y-79408650D01*
X151240548Y-79404165D01*
X151219159Y-79389188D01*
X151089511Y-79259540D01*
X151078107Y-79252956D01*
X151052922Y-79238415D01*
X151020992Y-79219980D01*
X151020989Y-79219979D01*
X150944562Y-79199500D01*
X150944560Y-79199500D01*
X150063321Y-79199500D01*
X150014983Y-79181907D01*
X149998196Y-79161900D01*
X149991052Y-79149526D01*
X149980520Y-79131284D01*
X149980518Y-79131282D01*
X149980516Y-79131279D01*
X149868720Y-79019483D01*
X149868714Y-79019479D01*
X149860457Y-79014712D01*
X149793226Y-78975896D01*
X149731785Y-78940423D01*
X149693602Y-78930192D01*
X149579057Y-78899500D01*
X149420943Y-78899500D01*
X149329306Y-78924053D01*
X149268214Y-78940423D01*
X149131285Y-79019479D01*
X149131279Y-79019483D01*
X149019483Y-79131279D01*
X149019479Y-79131285D01*
X148940423Y-79268214D01*
X148919961Y-79344579D01*
X148899500Y-79420943D01*
X148319213Y-79420943D01*
X148356067Y-79365212D01*
X148658937Y-78907213D01*
X148658937Y-78907212D01*
X148676594Y-78869531D01*
X148684318Y-78853049D01*
X148696793Y-78811569D01*
X148705500Y-78752384D01*
X148705500Y-77328837D01*
X148723093Y-77280499D01*
X148723538Y-77279974D01*
X148872008Y-77106759D01*
X148916824Y-77081509D01*
X148929104Y-77080500D01*
X151967248Y-77080500D01*
X152015586Y-77098093D01*
X152031483Y-77116599D01*
X152249330Y-77474489D01*
X152258536Y-77489612D01*
X152269500Y-77528712D01*
X152269500Y-78774800D01*
X152269808Y-78781867D01*
X152270281Y-78792712D01*
X152270467Y-78794835D01*
X152271423Y-78805762D01*
X152298173Y-78890607D01*
X152306284Y-78904656D01*
X152323896Y-78935162D01*
X152348982Y-78968278D01*
X152354753Y-78975896D01*
X152431579Y-79025515D01*
X152431582Y-79025516D01*
X152479916Y-79043108D01*
X152550200Y-79055500D01*
X153174790Y-79055500D01*
X153174800Y-79055500D01*
X153192704Y-79054719D01*
X153205762Y-79053577D01*
X153290607Y-79026827D01*
X153335156Y-79001107D01*
X153335158Y-79001104D01*
X153335162Y-79001103D01*
X153349529Y-78990219D01*
X153375896Y-78970247D01*
X153425515Y-78893421D01*
X153443108Y-78845083D01*
X153455500Y-78774800D01*
X153455500Y-77583830D01*
X153473093Y-77535492D01*
X153511235Y-77511193D01*
X153572836Y-77494688D01*
X153692665Y-77425505D01*
X153790505Y-77327665D01*
X153797845Y-77314951D01*
X153801512Y-77308601D01*
X153840916Y-77275535D01*
X153866637Y-77271000D01*
X154500000Y-77271000D01*
X154500000Y-77779000D01*
X153792000Y-77779000D01*
X153792000Y-78174279D01*
X153830737Y-78369025D01*
X153830738Y-78369026D01*
X153906721Y-78552465D01*
X154017037Y-78717564D01*
X154017039Y-78717567D01*
X154157432Y-78857960D01*
X154157435Y-78857962D01*
X154322534Y-78968278D01*
X154505973Y-79044261D01*
X154505975Y-79044262D01*
X154546000Y-79052223D01*
X154546000Y-78235060D01*
X154559940Y-78259205D01*
X154615795Y-78315060D01*
X154684204Y-78354556D01*
X154760504Y-78375000D01*
X154839496Y-78375000D01*
X154915796Y-78354556D01*
X154984205Y-78315060D01*
X155040060Y-78259205D01*
X155054000Y-78235060D01*
X155054000Y-79052223D01*
X155094024Y-79044262D01*
X155094026Y-79044261D01*
X155277465Y-78968278D01*
X155381881Y-78898509D01*
X158985699Y-78898509D01*
X158985699Y-78898510D01*
X158994900Y-78904658D01*
X158994900Y-78904659D01*
X159160146Y-78973105D01*
X159160149Y-78973106D01*
X159335569Y-79008000D01*
X159514431Y-79008000D01*
X159689850Y-78973106D01*
X159689853Y-78973105D01*
X159855101Y-78904656D01*
X159855105Y-78904655D01*
X159864300Y-78898510D01*
X159864300Y-78898509D01*
X160785699Y-78898509D01*
X160785699Y-78898510D01*
X160794900Y-78904658D01*
X160794900Y-78904659D01*
X160960146Y-78973105D01*
X160960149Y-78973106D01*
X161135569Y-79008000D01*
X161314431Y-79008000D01*
X161489850Y-78973106D01*
X161489853Y-78973105D01*
X161655101Y-78904656D01*
X161655105Y-78904655D01*
X161664300Y-78898510D01*
X161664300Y-78898509D01*
X161225001Y-78459210D01*
X161224999Y-78459210D01*
X160785699Y-78898509D01*
X159864300Y-78898509D01*
X159425001Y-78459210D01*
X159424999Y-78459210D01*
X158985699Y-78898509D01*
X155381881Y-78898509D01*
X155442564Y-78857962D01*
X155442567Y-78857960D01*
X155483217Y-78817311D01*
X155582960Y-78717567D01*
X155582962Y-78717564D01*
X155693278Y-78552465D01*
X155769261Y-78369026D01*
X155769262Y-78369025D01*
X155808000Y-78174279D01*
X155808000Y-78010569D01*
X158517000Y-78010569D01*
X158517000Y-78189430D01*
X158551893Y-78364850D01*
X158551894Y-78364853D01*
X158620342Y-78530101D01*
X158626488Y-78539299D01*
X158626490Y-78539300D01*
X159065790Y-78100000D01*
X159065790Y-78099999D01*
X159026009Y-78060218D01*
X159225000Y-78060218D01*
X159225000Y-78139782D01*
X159255448Y-78213291D01*
X159311709Y-78269552D01*
X159385218Y-78300000D01*
X159464782Y-78300000D01*
X159538291Y-78269552D01*
X159594552Y-78213291D01*
X159625000Y-78139782D01*
X159625000Y-78099998D01*
X159784210Y-78099998D01*
X159784210Y-78100001D01*
X160223509Y-78539300D01*
X160223510Y-78539300D01*
X160229655Y-78530105D01*
X160229658Y-78530098D01*
X160255523Y-78467655D01*
X160290275Y-78429729D01*
X160341275Y-78423014D01*
X160384659Y-78450653D01*
X160394474Y-78467654D01*
X160420337Y-78530092D01*
X160420342Y-78530101D01*
X160426488Y-78539299D01*
X160426490Y-78539300D01*
X160865790Y-78100000D01*
X160865790Y-78099999D01*
X160826009Y-78060218D01*
X161025000Y-78060218D01*
X161025000Y-78139782D01*
X161055448Y-78213291D01*
X161111709Y-78269552D01*
X161185218Y-78300000D01*
X161264782Y-78300000D01*
X161338291Y-78269552D01*
X161394552Y-78213291D01*
X161425000Y-78139782D01*
X161425000Y-78099998D01*
X161584210Y-78099998D01*
X161584210Y-78100001D01*
X162023509Y-78539300D01*
X162023510Y-78539300D01*
X162029655Y-78530105D01*
X162029656Y-78530101D01*
X162098105Y-78364853D01*
X162098106Y-78364850D01*
X162133000Y-78189430D01*
X162133000Y-78010569D01*
X162098106Y-77835149D01*
X162098105Y-77835146D01*
X162029658Y-77669900D01*
X162023510Y-77660699D01*
X162023509Y-77660699D01*
X161584210Y-78099998D01*
X161425000Y-78099998D01*
X161425000Y-78060218D01*
X161394552Y-77986709D01*
X161338291Y-77930448D01*
X161264782Y-77900000D01*
X161185218Y-77900000D01*
X161111709Y-77930448D01*
X161055448Y-77986709D01*
X161025000Y-78060218D01*
X160826009Y-78060218D01*
X160426489Y-77660698D01*
X160420341Y-77669901D01*
X160394476Y-77732345D01*
X160359723Y-77770270D01*
X160308723Y-77776984D01*
X160265340Y-77749345D01*
X160255524Y-77732345D01*
X160229658Y-77669900D01*
X160223510Y-77660699D01*
X160223509Y-77660699D01*
X159784210Y-78099998D01*
X159625000Y-78099998D01*
X159625000Y-78060218D01*
X159594552Y-77986709D01*
X159538291Y-77930448D01*
X159464782Y-77900000D01*
X159385218Y-77900000D01*
X159311709Y-77930448D01*
X159255448Y-77986709D01*
X159225000Y-78060218D01*
X159026009Y-78060218D01*
X158626489Y-77660698D01*
X158620341Y-77669901D01*
X158551894Y-77835146D01*
X158551893Y-77835149D01*
X158517000Y-78010569D01*
X155808000Y-78010569D01*
X155808000Y-77779000D01*
X155100000Y-77779000D01*
X155100000Y-77301489D01*
X158985698Y-77301489D01*
X159424999Y-77740790D01*
X159425001Y-77740790D01*
X159864300Y-77301489D01*
X160785698Y-77301489D01*
X161224999Y-77740790D01*
X161225001Y-77740790D01*
X161664300Y-77301490D01*
X161664299Y-77301488D01*
X161655101Y-77295342D01*
X161489853Y-77226894D01*
X161489850Y-77226893D01*
X161314431Y-77192000D01*
X161135569Y-77192000D01*
X160960149Y-77226893D01*
X160960146Y-77226894D01*
X160794901Y-77295341D01*
X160785698Y-77301489D01*
X159864300Y-77301489D01*
X159864299Y-77301488D01*
X159855101Y-77295342D01*
X159689853Y-77226894D01*
X159689850Y-77226893D01*
X159514431Y-77192000D01*
X159335569Y-77192000D01*
X159160149Y-77226893D01*
X159160146Y-77226894D01*
X158994901Y-77295341D01*
X158985698Y-77301489D01*
X155100000Y-77301489D01*
X155100000Y-77271000D01*
X155808000Y-77271000D01*
X155808000Y-76875720D01*
X155769262Y-76680974D01*
X155769261Y-76680973D01*
X155693278Y-76497534D01*
X155645133Y-76425479D01*
X155632907Y-76375513D01*
X155655659Y-76329378D01*
X155702742Y-76308661D01*
X155707660Y-76308500D01*
X160869782Y-76308500D01*
X160938221Y-76294886D01*
X161006662Y-76281273D01*
X161059040Y-76259577D01*
X161135601Y-76227865D01*
X161251643Y-76150328D01*
X162996445Y-74405526D01*
X163043065Y-74383786D01*
X163049619Y-74383500D01*
X166596796Y-74383500D01*
X166618068Y-74391242D01*
X166639929Y-74397100D01*
X166641901Y-74399916D01*
X166645134Y-74401093D01*
X166656453Y-74420698D01*
X166669434Y-74439237D01*
X166669134Y-74442663D01*
X166670854Y-74445642D01*
X166666922Y-74467935D01*
X166664950Y-74490481D01*
X166662272Y-74494304D01*
X166661921Y-74496300D01*
X166649970Y-74511874D01*
X166636370Y-74525474D01*
X166589750Y-74547214D01*
X166583196Y-74547500D01*
X166168116Y-74547500D01*
X166081884Y-74547500D01*
X166040237Y-74558659D01*
X165998588Y-74569819D01*
X165923911Y-74612934D01*
X165923905Y-74612938D01*
X164742047Y-75794798D01*
X164373910Y-76162935D01*
X164343422Y-76193422D01*
X164312935Y-76223909D01*
X164312934Y-76223911D01*
X164269819Y-76298588D01*
X164266713Y-76310181D01*
X164250513Y-76370642D01*
X164247500Y-76381885D01*
X164247500Y-89883197D01*
X164229907Y-89931535D01*
X164225474Y-89936371D01*
X160411371Y-93750474D01*
X160364751Y-93772214D01*
X160358197Y-93772500D01*
X157747733Y-93772500D01*
X157699395Y-93754907D01*
X157682608Y-93734901D01*
X157680520Y-93731284D01*
X157680518Y-93731282D01*
X157680516Y-93731279D01*
X157568720Y-93619483D01*
X157568714Y-93619479D01*
X157431785Y-93540423D01*
X157393602Y-93530192D01*
X157279057Y-93499500D01*
X157120943Y-93499500D01*
X157029306Y-93524053D01*
X156968214Y-93540423D01*
X156831285Y-93619479D01*
X156831279Y-93619483D01*
X156719483Y-93731279D01*
X156719479Y-93731285D01*
X156640423Y-93868214D01*
X156619961Y-93944579D01*
X156599500Y-94020943D01*
X156599500Y-94179057D01*
X156630192Y-94293602D01*
X156640423Y-94331785D01*
X156719480Y-94468717D01*
X156722191Y-94472250D01*
X156737656Y-94521310D01*
X156717968Y-94568833D01*
X156672339Y-94592582D01*
X156622119Y-94581446D01*
X156609354Y-94571199D01*
X153251094Y-91212938D01*
X153251088Y-91212934D01*
X153176411Y-91169819D01*
X153148645Y-91162379D01*
X153093116Y-91147500D01*
X153093114Y-91147500D01*
X147072733Y-91147500D01*
X147024395Y-91129907D01*
X147007608Y-91109901D01*
X147005520Y-91106284D01*
X147005518Y-91106282D01*
X147005516Y-91106279D01*
X146893720Y-90994483D01*
X146893714Y-90994479D01*
X146756785Y-90915423D01*
X146718602Y-90905192D01*
X146604057Y-90874500D01*
X146445943Y-90874500D01*
X146354306Y-90899053D01*
X146293214Y-90915423D01*
X146156285Y-90994479D01*
X146156279Y-90994483D01*
X146044483Y-91106279D01*
X146044479Y-91106285D01*
X145965423Y-91243214D01*
X145955820Y-91279054D01*
X145924500Y-91395943D01*
X145924500Y-91554057D01*
X145947609Y-91640300D01*
X145965423Y-91706785D01*
X146044479Y-91843714D01*
X146044483Y-91843720D01*
X146156279Y-91955516D01*
X146156282Y-91955518D01*
X146156284Y-91955520D01*
X146223548Y-91994354D01*
X146256613Y-92033758D01*
X146256613Y-92085198D01*
X146234346Y-92115571D01*
X146234769Y-92115994D01*
X146232022Y-92118740D01*
X146231734Y-92119134D01*
X146231282Y-92119480D01*
X146119483Y-92231279D01*
X146119479Y-92231285D01*
X146040423Y-92368214D01*
X146019961Y-92444579D01*
X145999500Y-92520943D01*
X145999500Y-92679057D01*
X146023524Y-92768716D01*
X146040423Y-92831785D01*
X146119479Y-92968714D01*
X146119483Y-92968720D01*
X146231279Y-93080516D01*
X146231282Y-93080518D01*
X146231284Y-93080520D01*
X146368216Y-93159577D01*
X146520943Y-93200500D01*
X146520946Y-93200500D01*
X146679054Y-93200500D01*
X146679057Y-93200500D01*
X146831784Y-93159577D01*
X146968716Y-93080520D01*
X147080520Y-92968716D01*
X147082608Y-92965098D01*
X147122014Y-92932035D01*
X147147733Y-92927500D01*
X152554777Y-92927500D01*
X152603115Y-92945093D01*
X152627415Y-92983237D01*
X152640423Y-93031785D01*
X152719479Y-93168714D01*
X152719483Y-93168720D01*
X152831279Y-93280516D01*
X152831282Y-93280518D01*
X152831284Y-93280520D01*
X152968216Y-93359577D01*
X153120943Y-93400500D01*
X153120946Y-93400500D01*
X153279054Y-93400500D01*
X153279057Y-93400500D01*
X153431784Y-93359577D01*
X153568716Y-93280520D01*
X153680520Y-93168716D01*
X153759577Y-93031784D01*
X153800500Y-92879057D01*
X153800500Y-92870203D01*
X153818093Y-92821865D01*
X153862642Y-92796145D01*
X153913300Y-92805078D01*
X153928874Y-92817029D01*
X158150474Y-97038629D01*
X158172214Y-97085249D01*
X158172500Y-97091803D01*
X158172500Y-98202267D01*
X158154907Y-98250605D01*
X158134901Y-98267392D01*
X158131282Y-98269481D01*
X158131279Y-98269483D01*
X158019483Y-98381279D01*
X158019479Y-98381285D01*
X157940423Y-98518214D01*
X157920061Y-98594207D01*
X157899500Y-98670943D01*
X157899500Y-98829057D01*
X157920757Y-98908388D01*
X157940423Y-98981785D01*
X158019479Y-99118714D01*
X158019483Y-99118720D01*
X158131279Y-99230516D01*
X158131282Y-99230518D01*
X158131284Y-99230520D01*
X158191660Y-99265378D01*
X158268213Y-99309576D01*
X158268215Y-99309576D01*
X158268216Y-99309577D01*
X158420943Y-99350500D01*
X158420947Y-99350500D01*
X158425579Y-99351741D01*
X158467716Y-99381246D01*
X158481030Y-99430933D01*
X158459291Y-99477553D01*
X158459290Y-99477553D01*
X157612822Y-100324023D01*
X157398910Y-100537935D01*
X157368422Y-100568422D01*
X157337935Y-100598909D01*
X157337934Y-100598911D01*
X157294819Y-100673588D01*
X157272500Y-100756885D01*
X157272500Y-105833197D01*
X157254907Y-105881535D01*
X157250474Y-105886371D01*
X156398910Y-106737935D01*
X156381891Y-106754954D01*
X156337935Y-106798909D01*
X156337934Y-106798911D01*
X156294819Y-106873588D01*
X156282130Y-106920945D01*
X156276455Y-106942126D01*
X156272500Y-106956885D01*
X156272500Y-108483153D01*
X156254907Y-108531491D01*
X156210358Y-108557211D01*
X156159700Y-108548278D01*
X156132175Y-108520753D01*
X156093032Y-108452956D01*
X156080520Y-108431284D01*
X156080518Y-108431282D01*
X156080516Y-108431279D01*
X155968720Y-108319483D01*
X155968717Y-108319481D01*
X155968716Y-108319480D01*
X155965098Y-108317391D01*
X155932035Y-108277986D01*
X155927500Y-108252267D01*
X155927500Y-96006885D01*
X155925481Y-95999349D01*
X155905181Y-95923590D01*
X155862065Y-95848910D01*
X155801090Y-95787935D01*
X155285655Y-95272500D01*
X154696094Y-94682938D01*
X154696088Y-94682934D01*
X154621411Y-94639819D01*
X154593645Y-94632379D01*
X154538116Y-94617500D01*
X154538114Y-94617500D01*
X140984803Y-94617500D01*
X140936465Y-94599907D01*
X140931629Y-94595474D01*
X138418882Y-92082727D01*
X138397142Y-92036107D01*
X138399419Y-92010089D01*
X138400500Y-92006057D01*
X138400500Y-91847943D01*
X138359577Y-91695216D01*
X138359576Y-91695215D01*
X138359576Y-91695213D01*
X138327872Y-91640300D01*
X138318940Y-91589641D01*
X138344660Y-91545093D01*
X138392997Y-91527500D01*
X141092507Y-91527500D01*
X141130106Y-91537574D01*
X141168216Y-91559577D01*
X141320943Y-91600500D01*
X141320946Y-91600500D01*
X141479054Y-91600500D01*
X141479057Y-91600500D01*
X141631784Y-91559577D01*
X141768716Y-91480520D01*
X141880520Y-91368716D01*
X141959577Y-91231784D01*
X142000500Y-91079057D01*
X142000500Y-90920943D01*
X141959577Y-90768216D01*
X141880520Y-90631284D01*
X141880518Y-90631282D01*
X141880516Y-90631279D01*
X141768720Y-90519483D01*
X141768714Y-90519479D01*
X141631785Y-90440423D01*
X141593602Y-90430192D01*
X141479057Y-90399500D01*
X141320943Y-90399500D01*
X141229306Y-90424053D01*
X141168214Y-90440423D01*
X141031285Y-90519479D01*
X141031279Y-90519483D01*
X140919483Y-90631279D01*
X140919479Y-90631285D01*
X140840423Y-90768214D01*
X140827415Y-90816763D01*
X140797910Y-90858900D01*
X140754777Y-90872500D01*
X133147733Y-90872500D01*
X133099395Y-90854907D01*
X133082608Y-90834901D01*
X133080520Y-90831284D01*
X133080518Y-90831282D01*
X133080516Y-90831279D01*
X132968720Y-90719483D01*
X132968714Y-90719479D01*
X132831785Y-90640423D01*
X132793602Y-90630192D01*
X132679057Y-90599500D01*
X132520943Y-90599500D01*
X132429306Y-90624053D01*
X132368214Y-90640423D01*
X132231285Y-90719479D01*
X132231279Y-90719483D01*
X132119483Y-90831279D01*
X132119479Y-90831285D01*
X132040423Y-90968214D01*
X132019961Y-91044579D01*
X131999500Y-91120943D01*
X131999500Y-91279057D01*
X132023524Y-91368716D01*
X132040423Y-91431785D01*
X132119479Y-91568714D01*
X132119483Y-91568720D01*
X132231279Y-91680516D01*
X132231282Y-91680518D01*
X132231284Y-91680520D01*
X132368216Y-91759577D01*
X132520943Y-91800500D01*
X132520946Y-91800500D01*
X132679054Y-91800500D01*
X132679057Y-91800500D01*
X132831784Y-91759577D01*
X132968716Y-91680520D01*
X133080520Y-91568716D01*
X133082608Y-91565098D01*
X133122014Y-91532035D01*
X133147733Y-91527500D01*
X137207003Y-91527500D01*
X137255341Y-91545093D01*
X137281061Y-91589642D01*
X137272128Y-91640300D01*
X137240423Y-91695213D01*
X137216127Y-91785888D01*
X137206963Y-91820093D01*
X137204141Y-91830624D01*
X137174636Y-91872761D01*
X137124949Y-91886075D01*
X137093904Y-91876287D01*
X137031784Y-91840423D01*
X137030575Y-91840099D01*
X136879057Y-91799500D01*
X136720943Y-91799500D01*
X136644089Y-91820093D01*
X136568214Y-91840423D01*
X136431285Y-91919479D01*
X136431279Y-91919483D01*
X136319483Y-92031279D01*
X136319479Y-92031285D01*
X136240423Y-92168214D01*
X136223524Y-92231284D01*
X136199500Y-92320943D01*
X136199500Y-92479057D01*
X136213028Y-92529544D01*
X136240423Y-92631785D01*
X136319479Y-92768714D01*
X136319483Y-92768720D01*
X136431279Y-92880516D01*
X136431282Y-92880518D01*
X136431284Y-92880520D01*
X136568216Y-92959577D01*
X136720943Y-93000500D01*
X136720946Y-93000500D01*
X136879054Y-93000500D01*
X136879057Y-93000500D01*
X136883086Y-92999420D01*
X136934327Y-93003899D01*
X136955727Y-93018882D01*
X139480971Y-95544126D01*
X139502711Y-95590746D01*
X139489397Y-95640433D01*
X139447260Y-95669938D01*
X139427797Y-95672500D01*
X139347733Y-95672500D01*
X139299395Y-95654907D01*
X139282608Y-95634901D01*
X139280520Y-95631284D01*
X139280518Y-95631282D01*
X139280516Y-95631279D01*
X139168720Y-95519483D01*
X139168714Y-95519479D01*
X139031785Y-95440423D01*
X138993602Y-95430192D01*
X138879057Y-95399500D01*
X138720943Y-95399500D01*
X138629306Y-95424053D01*
X138568214Y-95440423D01*
X138431285Y-95519479D01*
X138431279Y-95519483D01*
X138319483Y-95631279D01*
X138319479Y-95631285D01*
X138240423Y-95768214D01*
X138235139Y-95787935D01*
X138199500Y-95920943D01*
X138199500Y-96079057D01*
X138222161Y-96163629D01*
X138240423Y-96231785D01*
X138319479Y-96368714D01*
X138319483Y-96368720D01*
X138431279Y-96480516D01*
X138431282Y-96480518D01*
X138431284Y-96480520D01*
X138568216Y-96559577D01*
X138720943Y-96600500D01*
X138720946Y-96600500D01*
X138879054Y-96600500D01*
X138879057Y-96600500D01*
X139031784Y-96559577D01*
X139168716Y-96480520D01*
X139280520Y-96368716D01*
X139282608Y-96365098D01*
X139322014Y-96332035D01*
X139347733Y-96327500D01*
X140433197Y-96327500D01*
X140448624Y-96333115D01*
X140464978Y-96334546D01*
X140478422Y-96343960D01*
X140481535Y-96345093D01*
X140486371Y-96349526D01*
X140581117Y-96444272D01*
X140602857Y-96490892D01*
X140600582Y-96516902D01*
X140599500Y-96520940D01*
X140599500Y-96520943D01*
X140599500Y-96679057D01*
X140611519Y-96723911D01*
X140640423Y-96831785D01*
X140719479Y-96968714D01*
X140719483Y-96968720D01*
X140831279Y-97080516D01*
X140831282Y-97080518D01*
X140831284Y-97080520D01*
X140968216Y-97159577D01*
X141120943Y-97200500D01*
X141120946Y-97200500D01*
X141279054Y-97200500D01*
X141279057Y-97200500D01*
X141431784Y-97159577D01*
X141568716Y-97080520D01*
X141680520Y-96968716D01*
X141759577Y-96831784D01*
X141800500Y-96679057D01*
X141800500Y-96645203D01*
X141818093Y-96596865D01*
X141862642Y-96571145D01*
X141913300Y-96580078D01*
X141928874Y-96592029D01*
X142250474Y-96913629D01*
X142272214Y-96960249D01*
X142272500Y-96966803D01*
X142272500Y-109756884D01*
X142272500Y-109843116D01*
X142280010Y-109871144D01*
X142294819Y-109926411D01*
X142337934Y-110001088D01*
X142337938Y-110001094D01*
X143540701Y-111203856D01*
X144737935Y-112401090D01*
X144777268Y-112440423D01*
X144790630Y-112453785D01*
X144812369Y-112500406D01*
X144799055Y-112550093D01*
X144790630Y-112560133D01*
X144719480Y-112631283D01*
X144717392Y-112634901D01*
X144677986Y-112667965D01*
X144652267Y-112672500D01*
X143947733Y-112672500D01*
X143899395Y-112654907D01*
X143882608Y-112634901D01*
X143880520Y-112631284D01*
X143880518Y-112631282D01*
X143880516Y-112631279D01*
X143768720Y-112519483D01*
X143768714Y-112519479D01*
X143631785Y-112440423D01*
X143593602Y-112430192D01*
X143479057Y-112399500D01*
X143320943Y-112399500D01*
X143229306Y-112424053D01*
X143168214Y-112440423D01*
X143031285Y-112519479D01*
X143031279Y-112519483D01*
X142919483Y-112631279D01*
X142919479Y-112631285D01*
X142840423Y-112768214D01*
X142819961Y-112844579D01*
X142799500Y-112920943D01*
X142799500Y-113079057D01*
X142830192Y-113193602D01*
X142840423Y-113231785D01*
X142919479Y-113368714D01*
X142919483Y-113368720D01*
X143031279Y-113480516D01*
X143031282Y-113480518D01*
X143031284Y-113480520D01*
X143168216Y-113559577D01*
X143320943Y-113600500D01*
X143320946Y-113600500D01*
X143479054Y-113600500D01*
X143479057Y-113600500D01*
X143631784Y-113559577D01*
X143768716Y-113480520D01*
X143880520Y-113368716D01*
X143882608Y-113365098D01*
X143922014Y-113332035D01*
X143947733Y-113327500D01*
X144652267Y-113327500D01*
X144700605Y-113345093D01*
X144717392Y-113365099D01*
X144719481Y-113368717D01*
X144719483Y-113368720D01*
X144831279Y-113480516D01*
X144831282Y-113480518D01*
X144831284Y-113480520D01*
X144968216Y-113559577D01*
X145120943Y-113600500D01*
X145120946Y-113600500D01*
X145279054Y-113600500D01*
X145279057Y-113600500D01*
X145431784Y-113559577D01*
X145568716Y-113480520D01*
X145680520Y-113368716D01*
X145759577Y-113231784D01*
X145800500Y-113079057D01*
X145800500Y-112920943D01*
X145759577Y-112768216D01*
X145685724Y-112640299D01*
X145683422Y-112627242D01*
X145676792Y-112615758D01*
X145679094Y-112602700D01*
X145676792Y-112589642D01*
X145683422Y-112578157D01*
X145685725Y-112565100D01*
X145695881Y-112556577D01*
X145702512Y-112545093D01*
X145714973Y-112540557D01*
X145725130Y-112532035D01*
X145750850Y-112527500D01*
X145833197Y-112527500D01*
X145881535Y-112545093D01*
X145886371Y-112549526D01*
X147650474Y-114313629D01*
X147672214Y-114360249D01*
X147672500Y-114366803D01*
X147672500Y-114956884D01*
X147672500Y-115043116D01*
X147680842Y-115074247D01*
X147694819Y-115126411D01*
X147728823Y-115185307D01*
X147736430Y-115198484D01*
X147737934Y-115201088D01*
X147737938Y-115201094D01*
X148398905Y-115862061D01*
X148398908Y-115862063D01*
X148398910Y-115862065D01*
X148473590Y-115905181D01*
X148556884Y-115927500D01*
X148643116Y-115927500D01*
X156452267Y-115927500D01*
X156500605Y-115945093D01*
X156517392Y-115965099D01*
X156519481Y-115968717D01*
X156519483Y-115968720D01*
X156631279Y-116080516D01*
X156631282Y-116080518D01*
X156631284Y-116080520D01*
X156768216Y-116159577D01*
X156920943Y-116200500D01*
X156920946Y-116200500D01*
X157079054Y-116200500D01*
X157079057Y-116200500D01*
X157231784Y-116159577D01*
X157368716Y-116080520D01*
X157480520Y-115968716D01*
X157559577Y-115831784D01*
X157600500Y-115679057D01*
X157600500Y-115520943D01*
X157559577Y-115368216D01*
X157480520Y-115231284D01*
X157480518Y-115231282D01*
X157480516Y-115231279D01*
X157368720Y-115119483D01*
X157368714Y-115119479D01*
X157231785Y-115040423D01*
X157193602Y-115030192D01*
X157079057Y-114999500D01*
X156920943Y-114999500D01*
X156829306Y-115024053D01*
X156768214Y-115040423D01*
X156631285Y-115119479D01*
X156631279Y-115119483D01*
X156519483Y-115231279D01*
X156519481Y-115231282D01*
X156517392Y-115234901D01*
X156477986Y-115267965D01*
X156452267Y-115272500D01*
X148766803Y-115272500D01*
X148718465Y-115254907D01*
X148713629Y-115250474D01*
X148349526Y-114886371D01*
X148327786Y-114839751D01*
X148327500Y-114833197D01*
X148327500Y-114156885D01*
X148320031Y-114129010D01*
X148305181Y-114073590D01*
X148262065Y-113998910D01*
X148201090Y-113937935D01*
X147233326Y-112970171D01*
X146201094Y-111937938D01*
X146201088Y-111937934D01*
X146126411Y-111894819D01*
X146098645Y-111887379D01*
X146043116Y-111872500D01*
X146043114Y-111872500D01*
X145166803Y-111872500D01*
X145118465Y-111854907D01*
X145113629Y-111850474D01*
X144459689Y-111196534D01*
X162149500Y-111196534D01*
X162149500Y-111403465D01*
X162174762Y-111530469D01*
X162189870Y-111606420D01*
X162269059Y-111797598D01*
X162384023Y-111969655D01*
X162384024Y-111969656D01*
X162384027Y-111969660D01*
X162530339Y-112115972D01*
X162530342Y-112115974D01*
X162530345Y-112115977D01*
X162702402Y-112230941D01*
X162893580Y-112310130D01*
X163039469Y-112339149D01*
X163096534Y-112350500D01*
X163096535Y-112350500D01*
X163303466Y-112350500D01*
X163344056Y-112342426D01*
X163506420Y-112310130D01*
X163697598Y-112230941D01*
X163869655Y-112115977D01*
X164015977Y-111969655D01*
X164130941Y-111797598D01*
X164210130Y-111606420D01*
X164250500Y-111403465D01*
X164250500Y-111196535D01*
X164246983Y-111178856D01*
X164229252Y-111089712D01*
X164210130Y-110993580D01*
X164130941Y-110802402D01*
X164015977Y-110630345D01*
X164015974Y-110630342D01*
X164015972Y-110630339D01*
X163869660Y-110484027D01*
X163869656Y-110484024D01*
X163869655Y-110484023D01*
X163697598Y-110369059D01*
X163506420Y-110289870D01*
X163506417Y-110289869D01*
X163506416Y-110289869D01*
X163303466Y-110249500D01*
X163303465Y-110249500D01*
X163096535Y-110249500D01*
X163096534Y-110249500D01*
X162893583Y-110289869D01*
X162893580Y-110289870D01*
X162702403Y-110369058D01*
X162530339Y-110484027D01*
X162384027Y-110630339D01*
X162269058Y-110802403D01*
X162189870Y-110993580D01*
X162189869Y-110993583D01*
X162149500Y-111196534D01*
X144459689Y-111196534D01*
X142949526Y-109686371D01*
X142927786Y-109639751D01*
X142927500Y-109633197D01*
X142927500Y-108885285D01*
X142945093Y-108836947D01*
X142989642Y-108811227D01*
X143040300Y-108820160D01*
X143055874Y-108832111D01*
X143104279Y-108880516D01*
X143104282Y-108880518D01*
X143104284Y-108880520D01*
X143241216Y-108959577D01*
X143393943Y-109000500D01*
X143393946Y-109000500D01*
X143552054Y-109000500D01*
X143552057Y-109000500D01*
X143704784Y-108959577D01*
X143841716Y-108880520D01*
X143953520Y-108768716D01*
X143955608Y-108765098D01*
X143995014Y-108732035D01*
X144020733Y-108727500D01*
X151243114Y-108727500D01*
X151243116Y-108727500D01*
X151326410Y-108705181D01*
X151401090Y-108662065D01*
X153462065Y-106601090D01*
X153505181Y-106526410D01*
X153527500Y-106443116D01*
X153527500Y-106356884D01*
X153527500Y-98747732D01*
X153545093Y-98699394D01*
X153565102Y-98682606D01*
X153568716Y-98680520D01*
X153680520Y-98568716D01*
X153759577Y-98431784D01*
X153800500Y-98279057D01*
X153800500Y-98120943D01*
X153759577Y-97968216D01*
X153680520Y-97831284D01*
X153680518Y-97831282D01*
X153680516Y-97831279D01*
X153568720Y-97719483D01*
X153568714Y-97719479D01*
X153431785Y-97640423D01*
X153393602Y-97630192D01*
X153279057Y-97599500D01*
X153120943Y-97599500D01*
X153029306Y-97624053D01*
X152968214Y-97640423D01*
X152831285Y-97719479D01*
X152831279Y-97719483D01*
X152719483Y-97831279D01*
X152719479Y-97831285D01*
X152640423Y-97968214D01*
X152631182Y-98002703D01*
X152599500Y-98120943D01*
X152599500Y-98279057D01*
X152626890Y-98381279D01*
X152640423Y-98431785D01*
X152719479Y-98568714D01*
X152719483Y-98568720D01*
X152831279Y-98680516D01*
X152831282Y-98680518D01*
X152831284Y-98680520D01*
X152834896Y-98682605D01*
X152867963Y-98722007D01*
X152872500Y-98747732D01*
X152872500Y-106233197D01*
X152854907Y-106281535D01*
X152850474Y-106286371D01*
X151086371Y-108050474D01*
X151039751Y-108072214D01*
X151033197Y-108072500D01*
X144020733Y-108072500D01*
X143972395Y-108054907D01*
X143955608Y-108034901D01*
X143953520Y-108031284D01*
X143953518Y-108031282D01*
X143953516Y-108031279D01*
X143841720Y-107919483D01*
X143841714Y-107919479D01*
X143704785Y-107840423D01*
X143662369Y-107829058D01*
X143552057Y-107799500D01*
X143393943Y-107799500D01*
X143310931Y-107821743D01*
X143241214Y-107840423D01*
X143104285Y-107919479D01*
X143104279Y-107919483D01*
X143055874Y-107967889D01*
X143009254Y-107989629D01*
X142959567Y-107976315D01*
X142930062Y-107934178D01*
X142927500Y-107914715D01*
X142927500Y-106920943D01*
X144999500Y-106920943D01*
X144999500Y-107079057D01*
X145026847Y-107181118D01*
X145040423Y-107231785D01*
X145119479Y-107368714D01*
X145119483Y-107368720D01*
X145231279Y-107480516D01*
X145231282Y-107480518D01*
X145231284Y-107480520D01*
X145368216Y-107559577D01*
X145520943Y-107600500D01*
X145520946Y-107600500D01*
X145679054Y-107600500D01*
X145679057Y-107600500D01*
X145831784Y-107559577D01*
X145968716Y-107480520D01*
X146080520Y-107368716D01*
X146082608Y-107365098D01*
X146122014Y-107332035D01*
X146147733Y-107327500D01*
X148243114Y-107327500D01*
X148243116Y-107327500D01*
X148326410Y-107305181D01*
X148401090Y-107262065D01*
X150862065Y-104801090D01*
X150905181Y-104726410D01*
X150927500Y-104643116D01*
X150927500Y-104556884D01*
X150927500Y-99747732D01*
X150945093Y-99699394D01*
X150965102Y-99682606D01*
X150968716Y-99680520D01*
X151080520Y-99568716D01*
X151159577Y-99431784D01*
X151200500Y-99279057D01*
X151200500Y-99120943D01*
X151159577Y-98968216D01*
X151080520Y-98831284D01*
X151080518Y-98831282D01*
X151080516Y-98831279D01*
X150968720Y-98719483D01*
X150968714Y-98719479D01*
X150965660Y-98717716D01*
X150933926Y-98699394D01*
X150831785Y-98640423D01*
X150793602Y-98630192D01*
X150679057Y-98599500D01*
X150520943Y-98599500D01*
X150430582Y-98623712D01*
X150368214Y-98640423D01*
X150231285Y-98719479D01*
X150231279Y-98719483D01*
X150119483Y-98831279D01*
X150119479Y-98831285D01*
X150040423Y-98968214D01*
X150036787Y-98981784D01*
X149999500Y-99120943D01*
X149999500Y-99279057D01*
X150007678Y-99309576D01*
X150040423Y-99431785D01*
X150119479Y-99568714D01*
X150119483Y-99568720D01*
X150231279Y-99680516D01*
X150231282Y-99680518D01*
X150231284Y-99680520D01*
X150234896Y-99682605D01*
X150267963Y-99722007D01*
X150272500Y-99747732D01*
X150272500Y-104433197D01*
X150254907Y-104481535D01*
X150250474Y-104486371D01*
X148086371Y-106650474D01*
X148039751Y-106672214D01*
X148033197Y-106672500D01*
X146147733Y-106672500D01*
X146099395Y-106654907D01*
X146082608Y-106634901D01*
X146080520Y-106631284D01*
X146080518Y-106631282D01*
X146080516Y-106631279D01*
X145968720Y-106519483D01*
X145968714Y-106519479D01*
X145831785Y-106440423D01*
X145793602Y-106430192D01*
X145679057Y-106399500D01*
X145520943Y-106399500D01*
X145429306Y-106424053D01*
X145368214Y-106440423D01*
X145231285Y-106519479D01*
X145231279Y-106519483D01*
X145119483Y-106631279D01*
X145119479Y-106631285D01*
X145040423Y-106768214D01*
X145024499Y-106827644D01*
X144999500Y-106920943D01*
X142927500Y-106920943D01*
X142927500Y-96756885D01*
X142927500Y-96756884D01*
X142905181Y-96673590D01*
X142862065Y-96598910D01*
X142801090Y-96537935D01*
X141664029Y-95400874D01*
X141642289Y-95354254D01*
X141655603Y-95304567D01*
X141697740Y-95275062D01*
X141717203Y-95272500D01*
X154328197Y-95272500D01*
X154376535Y-95290093D01*
X154381371Y-95294526D01*
X155250474Y-96163629D01*
X155272214Y-96210249D01*
X155272500Y-96216803D01*
X155272500Y-108252267D01*
X155254907Y-108300605D01*
X155234901Y-108317392D01*
X155231282Y-108319481D01*
X155231279Y-108319483D01*
X155119483Y-108431279D01*
X155119479Y-108431285D01*
X155040423Y-108568214D01*
X155035541Y-108586436D01*
X154999500Y-108720943D01*
X154999500Y-108879057D01*
X155030119Y-108993329D01*
X155040423Y-109031785D01*
X155119479Y-109168714D01*
X155119483Y-109168720D01*
X155231279Y-109280516D01*
X155231282Y-109280518D01*
X155231284Y-109280520D01*
X155326142Y-109335286D01*
X155363551Y-109356884D01*
X155368216Y-109359577D01*
X155520943Y-109400500D01*
X155520946Y-109400500D01*
X155679054Y-109400500D01*
X155679057Y-109400500D01*
X155831784Y-109359577D01*
X155968716Y-109280520D01*
X156080520Y-109168716D01*
X156132175Y-109079245D01*
X156171580Y-109046181D01*
X156223020Y-109046181D01*
X156262425Y-109079246D01*
X156272500Y-109116846D01*
X156272500Y-109356884D01*
X156272500Y-109443116D01*
X156275810Y-109455469D01*
X156294819Y-109526411D01*
X156337934Y-109601088D01*
X156337938Y-109601094D01*
X156781117Y-110044272D01*
X156802857Y-110090892D01*
X156800582Y-110116902D01*
X156799500Y-110120940D01*
X156799500Y-110120943D01*
X156799500Y-110279057D01*
X156814432Y-110334783D01*
X156840423Y-110431785D01*
X156919479Y-110568714D01*
X156919483Y-110568720D01*
X157031279Y-110680516D01*
X157031282Y-110680518D01*
X157031284Y-110680520D01*
X157168216Y-110759577D01*
X157320943Y-110800500D01*
X157320946Y-110800500D01*
X157479054Y-110800500D01*
X157479057Y-110800500D01*
X157631784Y-110759577D01*
X157768716Y-110680520D01*
X157880520Y-110568716D01*
X157959577Y-110431784D01*
X158000500Y-110279057D01*
X158000500Y-110120943D01*
X157959577Y-109968216D01*
X157880520Y-109831284D01*
X157880518Y-109831282D01*
X157880516Y-109831279D01*
X157768720Y-109719483D01*
X157768714Y-109719479D01*
X157760457Y-109714712D01*
X157673219Y-109664345D01*
X157631785Y-109640423D01*
X157592247Y-109629829D01*
X157479057Y-109599500D01*
X157320943Y-109599500D01*
X157320940Y-109599500D01*
X157316902Y-109600582D01*
X157265659Y-109596094D01*
X157244272Y-109581117D01*
X156949526Y-109286371D01*
X156927786Y-109239751D01*
X156927500Y-109233197D01*
X156927500Y-108350850D01*
X156945093Y-108302512D01*
X156989642Y-108276792D01*
X157040299Y-108285724D01*
X157168216Y-108359577D01*
X157320943Y-108400500D01*
X157320946Y-108400500D01*
X157479054Y-108400500D01*
X157479057Y-108400500D01*
X157631784Y-108359577D01*
X157768716Y-108280520D01*
X157880520Y-108168716D01*
X157959577Y-108031784D01*
X158000500Y-107879057D01*
X158000500Y-107800700D01*
X158018093Y-107752362D01*
X158062642Y-107726642D01*
X158075700Y-107725500D01*
X162609488Y-107725500D01*
X162657826Y-107743093D01*
X162683546Y-107787642D01*
X162674613Y-107838300D01*
X162651269Y-107863224D01*
X162567075Y-107919481D01*
X162530339Y-107944027D01*
X162384027Y-108090339D01*
X162269058Y-108262403D01*
X162189870Y-108453580D01*
X162189869Y-108453583D01*
X162149500Y-108656534D01*
X162149500Y-108863465D01*
X162182980Y-109031784D01*
X162189870Y-109066420D01*
X162226088Y-109153858D01*
X162264314Y-109246144D01*
X162269059Y-109257598D01*
X162384023Y-109429655D01*
X162384024Y-109429656D01*
X162384027Y-109429660D01*
X162530339Y-109575972D01*
X162530342Y-109575974D01*
X162530345Y-109575977D01*
X162702402Y-109690941D01*
X162893580Y-109770130D01*
X163045796Y-109800407D01*
X163096534Y-109810500D01*
X163096535Y-109810500D01*
X163303466Y-109810500D01*
X163344056Y-109802426D01*
X163506420Y-109770130D01*
X163697598Y-109690941D01*
X163869655Y-109575977D01*
X164015977Y-109429655D01*
X164130941Y-109257598D01*
X164210130Y-109066420D01*
X164250500Y-108863465D01*
X164250500Y-108656535D01*
X164210130Y-108453580D01*
X164130941Y-108262402D01*
X164015977Y-108090345D01*
X164015974Y-108090342D01*
X164015972Y-108090339D01*
X163869660Y-107944027D01*
X163869656Y-107944024D01*
X163869655Y-107944023D01*
X163748731Y-107863225D01*
X163718316Y-107821743D01*
X163721680Y-107770414D01*
X163757252Y-107733255D01*
X163790512Y-107725500D01*
X165845114Y-107725500D01*
X165845116Y-107725500D01*
X165928410Y-107703181D01*
X166003090Y-107660065D01*
X166044273Y-107618880D01*
X166090891Y-107597142D01*
X166116907Y-107599418D01*
X166120943Y-107600500D01*
X166120946Y-107600500D01*
X166279054Y-107600500D01*
X166279057Y-107600500D01*
X166431784Y-107559577D01*
X166568716Y-107480520D01*
X166680520Y-107368716D01*
X166759577Y-107231784D01*
X166800500Y-107079057D01*
X166800500Y-106920943D01*
X166759577Y-106768216D01*
X166750772Y-106752966D01*
X166730352Y-106717596D01*
X166680520Y-106631284D01*
X166680518Y-106631282D01*
X166680516Y-106631279D01*
X166568720Y-106519483D01*
X166568714Y-106519479D01*
X166431785Y-106440423D01*
X166393602Y-106430192D01*
X166279057Y-106399500D01*
X166120943Y-106399500D01*
X166029306Y-106424053D01*
X165968214Y-106440423D01*
X165831285Y-106519479D01*
X165831279Y-106519483D01*
X165719483Y-106631279D01*
X165719479Y-106631285D01*
X165640423Y-106768214D01*
X165624499Y-106827644D01*
X165599500Y-106920943D01*
X165599500Y-106920945D01*
X165599500Y-106995300D01*
X165581907Y-107043638D01*
X165537358Y-107069358D01*
X165524300Y-107070500D01*
X164016681Y-107070500D01*
X163968343Y-107052907D01*
X163942623Y-107008358D01*
X163951556Y-106957700D01*
X163963507Y-106942126D01*
X164015971Y-106889661D01*
X164015972Y-106889660D01*
X164015977Y-106889655D01*
X164130941Y-106717598D01*
X164210130Y-106526420D01*
X164250500Y-106323465D01*
X164250500Y-106116535D01*
X164210130Y-105913580D01*
X164130941Y-105722402D01*
X164015977Y-105550345D01*
X164015974Y-105550342D01*
X164015972Y-105550339D01*
X163869660Y-105404027D01*
X163869656Y-105404024D01*
X163869655Y-105404023D01*
X163697598Y-105289059D01*
X163506420Y-105209870D01*
X163506417Y-105209869D01*
X163506416Y-105209869D01*
X163303466Y-105169500D01*
X163303465Y-105169500D01*
X163096535Y-105169500D01*
X163096534Y-105169500D01*
X162893583Y-105209869D01*
X162893580Y-105209870D01*
X162702403Y-105289058D01*
X162530339Y-105404027D01*
X162384027Y-105550339D01*
X162269058Y-105722403D01*
X162189870Y-105913580D01*
X162189869Y-105913583D01*
X162149500Y-106116534D01*
X162149500Y-106323465D01*
X162188489Y-106519480D01*
X162189870Y-106526420D01*
X162233304Y-106631279D01*
X162259623Y-106694819D01*
X162269059Y-106717598D01*
X162384023Y-106889655D01*
X162384024Y-106889656D01*
X162384027Y-106889660D01*
X162436493Y-106942126D01*
X162458233Y-106988746D01*
X162444919Y-107038433D01*
X162402782Y-107067938D01*
X162383319Y-107070500D01*
X157845116Y-107070500D01*
X157758884Y-107070500D01*
X157717237Y-107081659D01*
X157675588Y-107092819D01*
X157600911Y-107135934D01*
X157600908Y-107135935D01*
X157555725Y-107181118D01*
X157509105Y-107202856D01*
X157483097Y-107200582D01*
X157479057Y-107199500D01*
X157320943Y-107199500D01*
X157244579Y-107219961D01*
X157168213Y-107240423D01*
X157040300Y-107314274D01*
X157027243Y-107316576D01*
X157015758Y-107323207D01*
X157002697Y-107320903D01*
X156989641Y-107323206D01*
X156978159Y-107316576D01*
X156965100Y-107314274D01*
X156956576Y-107304115D01*
X156945093Y-107297486D01*
X156940558Y-107285026D01*
X156932035Y-107274869D01*
X156927500Y-107249149D01*
X156927500Y-107166803D01*
X156945093Y-107118465D01*
X156949526Y-107113629D01*
X157862061Y-106201094D01*
X157862065Y-106201090D01*
X157905181Y-106126410D01*
X157927500Y-106043116D01*
X157927500Y-105956884D01*
X157927500Y-103576535D01*
X162149500Y-103576535D01*
X162149500Y-103783465D01*
X162189870Y-103986420D01*
X162269059Y-104177598D01*
X162384023Y-104349655D01*
X162384024Y-104349656D01*
X162384027Y-104349660D01*
X162530339Y-104495972D01*
X162530342Y-104495974D01*
X162530345Y-104495977D01*
X162702402Y-104610941D01*
X162893580Y-104690130D01*
X163045796Y-104720407D01*
X163096534Y-104730500D01*
X163096535Y-104730500D01*
X163303466Y-104730500D01*
X163349139Y-104721415D01*
X163506420Y-104690130D01*
X163697598Y-104610941D01*
X163869655Y-104495977D01*
X164015977Y-104349655D01*
X164130941Y-104177598D01*
X164210130Y-103986420D01*
X164250500Y-103783465D01*
X164250500Y-103576535D01*
X164210130Y-103373580D01*
X164130941Y-103182402D01*
X164015977Y-103010345D01*
X164015974Y-103010342D01*
X164015972Y-103010339D01*
X163869660Y-102864027D01*
X163869656Y-102864024D01*
X163869655Y-102864023D01*
X163697598Y-102749059D01*
X163506420Y-102669870D01*
X163506417Y-102669869D01*
X163506416Y-102669869D01*
X163303466Y-102629500D01*
X163303465Y-102629500D01*
X163096535Y-102629500D01*
X163096534Y-102629500D01*
X162893583Y-102669869D01*
X162893580Y-102669870D01*
X162702403Y-102749058D01*
X162530339Y-102864027D01*
X162384027Y-103010339D01*
X162269058Y-103182403D01*
X162189870Y-103373580D01*
X162189869Y-103373583D01*
X162152873Y-103559576D01*
X162149500Y-103576535D01*
X157927500Y-103576535D01*
X157927500Y-100966803D01*
X157945093Y-100918465D01*
X157949526Y-100913629D01*
X169662061Y-89201094D01*
X169662065Y-89201090D01*
X169705181Y-89126410D01*
X169727500Y-89043116D01*
X169727500Y-88956884D01*
X169727500Y-85947732D01*
X169745093Y-85899394D01*
X169765102Y-85882606D01*
X169768716Y-85880520D01*
X169880520Y-85768716D01*
X169959577Y-85631784D01*
X170000500Y-85479057D01*
X170000500Y-85320943D01*
X169959577Y-85168216D01*
X169880520Y-85031284D01*
X169880518Y-85031282D01*
X169880516Y-85031279D01*
X169768720Y-84919483D01*
X169768714Y-84919479D01*
X169631785Y-84840423D01*
X169593602Y-84830192D01*
X169479057Y-84799500D01*
X169320943Y-84799500D01*
X169229306Y-84824053D01*
X169168214Y-84840423D01*
X169031285Y-84919479D01*
X169031279Y-84919483D01*
X168919483Y-85031279D01*
X168919479Y-85031285D01*
X168840423Y-85168214D01*
X168819961Y-85244579D01*
X168799500Y-85320943D01*
X168799500Y-85479057D01*
X168830192Y-85593602D01*
X168840423Y-85631785D01*
X168919479Y-85768714D01*
X168919483Y-85768720D01*
X169031279Y-85880516D01*
X169031282Y-85880518D01*
X169031284Y-85880520D01*
X169034896Y-85882605D01*
X169067963Y-85922007D01*
X169072500Y-85947732D01*
X169072500Y-88833196D01*
X169054907Y-88881534D01*
X169050474Y-88886370D01*
X159227553Y-98709290D01*
X159180933Y-98731030D01*
X159131246Y-98717716D01*
X159101741Y-98675579D01*
X159100500Y-98670947D01*
X159100500Y-98670943D01*
X159059577Y-98518216D01*
X159059576Y-98518214D01*
X159059576Y-98518213D01*
X158995371Y-98407007D01*
X158980520Y-98381284D01*
X158980518Y-98381282D01*
X158980516Y-98381279D01*
X158868720Y-98269483D01*
X158868717Y-98269481D01*
X158868716Y-98269480D01*
X158865098Y-98267391D01*
X158832035Y-98227986D01*
X158827500Y-98202267D01*
X158827500Y-96881885D01*
X158827500Y-96881884D01*
X158805181Y-96798590D01*
X158762065Y-96723910D01*
X158701090Y-96662935D01*
X156728800Y-94690645D01*
X156707060Y-94644025D01*
X156720374Y-94594338D01*
X156762511Y-94564833D01*
X156813755Y-94569317D01*
X156827751Y-94577809D01*
X156831285Y-94580521D01*
X156941279Y-94644025D01*
X156968216Y-94659577D01*
X157120943Y-94700500D01*
X157120946Y-94700500D01*
X157279054Y-94700500D01*
X157279057Y-94700500D01*
X157431784Y-94659577D01*
X157568716Y-94580520D01*
X157680520Y-94468716D01*
X157682608Y-94465098D01*
X157722014Y-94432035D01*
X157747733Y-94427500D01*
X160568114Y-94427500D01*
X160568116Y-94427500D01*
X160651410Y-94405181D01*
X160726090Y-94362065D01*
X164837065Y-90251090D01*
X164880181Y-90176410D01*
X164902500Y-90093116D01*
X164902500Y-90006884D01*
X164902500Y-76591803D01*
X164920093Y-76543465D01*
X164924526Y-76538629D01*
X166238629Y-75224526D01*
X166285249Y-75202786D01*
X166291803Y-75202500D01*
X166793117Y-75202500D01*
X166854250Y-75186119D01*
X166905494Y-75190601D01*
X166941868Y-75226975D01*
X166946352Y-75278219D01*
X166926888Y-75311930D01*
X165652381Y-76586436D01*
X165652379Y-76586439D01*
X165547042Y-76744086D01*
X165495964Y-76867402D01*
X165474489Y-76919245D01*
X165474487Y-76919252D01*
X165437500Y-77105201D01*
X165437500Y-78494798D01*
X165473376Y-78675164D01*
X165474488Y-78680751D01*
X165547044Y-78855915D01*
X165652378Y-79013558D01*
X165652380Y-79013560D01*
X165652382Y-79013563D01*
X165786436Y-79147617D01*
X165786439Y-79147619D01*
X165786442Y-79147622D01*
X165944085Y-79252956D01*
X166119249Y-79325512D01*
X166258713Y-79353253D01*
X166305201Y-79362500D01*
X166305202Y-79362500D01*
X168970171Y-79362500D01*
X169018509Y-79380093D01*
X169023345Y-79384526D01*
X171615474Y-81976654D01*
X171637214Y-82023274D01*
X171637500Y-82029828D01*
X171637500Y-98770171D01*
X171619907Y-98818509D01*
X171615474Y-98823345D01*
X170283345Y-100155474D01*
X170236725Y-100177214D01*
X170230171Y-100177500D01*
X163636367Y-100177500D01*
X163607589Y-100171776D01*
X163568233Y-100155474D01*
X163506420Y-100129870D01*
X163506418Y-100129869D01*
X163506417Y-100129869D01*
X163423074Y-100113291D01*
X163391216Y-100106954D01*
X163347241Y-100080269D01*
X163330706Y-100031559D01*
X163349350Y-99983617D01*
X163394448Y-99958875D01*
X163405888Y-99958000D01*
X164098582Y-99958000D01*
X164098593Y-99957999D01*
X164159092Y-99951495D01*
X164159095Y-99951494D01*
X164295963Y-99900444D01*
X164295965Y-99900443D01*
X164412903Y-99812903D01*
X164500443Y-99695965D01*
X164500444Y-99695963D01*
X164551494Y-99559095D01*
X164551495Y-99559092D01*
X164557999Y-99498593D01*
X164558000Y-99498582D01*
X164558000Y-98854000D01*
X163630703Y-98854000D01*
X163665925Y-98792993D01*
X163700000Y-98665826D01*
X163700000Y-98534174D01*
X163665925Y-98407007D01*
X163630703Y-98346000D01*
X164558000Y-98346000D01*
X164558000Y-97701418D01*
X164557999Y-97701406D01*
X164551495Y-97640907D01*
X164551494Y-97640904D01*
X164500444Y-97504036D01*
X164500443Y-97504034D01*
X164412903Y-97387096D01*
X164295965Y-97299556D01*
X164295963Y-97299555D01*
X164159095Y-97248505D01*
X164159092Y-97248504D01*
X164098593Y-97242000D01*
X163454000Y-97242000D01*
X163454000Y-98169297D01*
X163392993Y-98134075D01*
X163265826Y-98100000D01*
X163134174Y-98100000D01*
X163007007Y-98134075D01*
X162946000Y-98169297D01*
X162946000Y-97242000D01*
X162301406Y-97242000D01*
X162240907Y-97248504D01*
X162240904Y-97248505D01*
X162104036Y-97299555D01*
X162104034Y-97299556D01*
X161987096Y-97387096D01*
X161899556Y-97504034D01*
X161899555Y-97504036D01*
X161848505Y-97640904D01*
X161848504Y-97640907D01*
X161842000Y-97701406D01*
X161842000Y-98346000D01*
X162769297Y-98346000D01*
X162734075Y-98407007D01*
X162700000Y-98534174D01*
X162700000Y-98665826D01*
X162734075Y-98792993D01*
X162769297Y-98854000D01*
X161842000Y-98854000D01*
X161842000Y-99498593D01*
X161848504Y-99559092D01*
X161848505Y-99559095D01*
X161899555Y-99695963D01*
X161899556Y-99695965D01*
X161987096Y-99812903D01*
X162104034Y-99900443D01*
X162104036Y-99900444D01*
X162240904Y-99951494D01*
X162240907Y-99951495D01*
X162301406Y-99957999D01*
X162301418Y-99958000D01*
X162994112Y-99958000D01*
X163042450Y-99975593D01*
X163068170Y-100020142D01*
X163059237Y-100070800D01*
X163019832Y-100103865D01*
X163008784Y-100106954D01*
X162985303Y-100111625D01*
X162893582Y-100129869D01*
X162893580Y-100129870D01*
X162702403Y-100209058D01*
X162530339Y-100324027D01*
X162384027Y-100470339D01*
X162269058Y-100642403D01*
X162221638Y-100756885D01*
X162189870Y-100833580D01*
X162149500Y-101036535D01*
X162149500Y-101243465D01*
X162189870Y-101446420D01*
X162269059Y-101637598D01*
X162384023Y-101809655D01*
X162384024Y-101809656D01*
X162384027Y-101809660D01*
X162530339Y-101955972D01*
X162530342Y-101955974D01*
X162530345Y-101955977D01*
X162702402Y-102070941D01*
X162893580Y-102150130D01*
X163045796Y-102180407D01*
X163096534Y-102190500D01*
X163096535Y-102190500D01*
X163303466Y-102190500D01*
X163344056Y-102182426D01*
X163506420Y-102150130D01*
X163607589Y-102108223D01*
X163636367Y-102102500D01*
X164570171Y-102102500D01*
X164618509Y-102120093D01*
X164623345Y-102124526D01*
X165986436Y-103487618D01*
X165986439Y-103487620D01*
X165986442Y-103487623D01*
X166144085Y-103592957D01*
X166267945Y-103644260D01*
X166267947Y-103644261D01*
X166319241Y-103665509D01*
X166319243Y-103665509D01*
X166319249Y-103665512D01*
X166443217Y-103690170D01*
X166505201Y-103702500D01*
X166505202Y-103702500D01*
X166505203Y-103702500D01*
X166694798Y-103702500D01*
X167310171Y-103702500D01*
X167358509Y-103720093D01*
X167363345Y-103724526D01*
X168415474Y-104776655D01*
X168437214Y-104823275D01*
X168437500Y-104829829D01*
X168437500Y-106562300D01*
X168419907Y-106610638D01*
X168375358Y-106636358D01*
X168362300Y-106637500D01*
X168105201Y-106637500D01*
X167919252Y-106674487D01*
X167919245Y-106674489D01*
X167870165Y-106694818D01*
X167870166Y-106694819D01*
X167744086Y-106747042D01*
X167586439Y-106852379D01*
X167586436Y-106852381D01*
X165852381Y-108586436D01*
X165852379Y-108586439D01*
X165747042Y-108744086D01*
X165697595Y-108863465D01*
X165674488Y-108919249D01*
X165674487Y-108919252D01*
X165637500Y-109105201D01*
X165637500Y-113494798D01*
X165674488Y-113680753D01*
X165674489Y-113680754D01*
X165685982Y-113708500D01*
X165747043Y-113855915D01*
X165852377Y-114013558D01*
X165852379Y-114013560D01*
X165852381Y-114013563D01*
X167171360Y-115332542D01*
X167171363Y-115332544D01*
X167171366Y-115332547D01*
X167329009Y-115437881D01*
X167452869Y-115489184D01*
X167452871Y-115489185D01*
X167504165Y-115510433D01*
X167504167Y-115510433D01*
X167504173Y-115510436D01*
X167628141Y-115535094D01*
X167690125Y-115547424D01*
X167690126Y-115547424D01*
X168109875Y-115547424D01*
X168147064Y-115540026D01*
X168295827Y-115510436D01*
X168470991Y-115437880D01*
X168628634Y-115332546D01*
X168762698Y-115198482D01*
X168868032Y-115040839D01*
X168940588Y-114865675D01*
X168977576Y-114679722D01*
X168977576Y-114490126D01*
X168940588Y-114304173D01*
X168868032Y-114129009D01*
X168762698Y-113971366D01*
X168762695Y-113971363D01*
X168762693Y-113971360D01*
X168628639Y-113837306D01*
X168628636Y-113837304D01*
X168628634Y-113837302D01*
X168470991Y-113731968D01*
X168295827Y-113659412D01*
X168295824Y-113659411D01*
X168295823Y-113659411D01*
X168224284Y-113645181D01*
X168185781Y-113624600D01*
X167584526Y-113023345D01*
X167562786Y-112976725D01*
X167562500Y-112970171D01*
X167562500Y-109629829D01*
X167580093Y-109581491D01*
X167584526Y-109576655D01*
X168576655Y-108584526D01*
X168623275Y-108562786D01*
X168629829Y-108562500D01*
X169494799Y-108562500D01*
X169531988Y-108555102D01*
X169680751Y-108525512D01*
X169855915Y-108452956D01*
X170013558Y-108347622D01*
X170147622Y-108213558D01*
X170252956Y-108055915D01*
X170325512Y-107880751D01*
X170362500Y-107694798D01*
X170362500Y-104305202D01*
X170325512Y-104119249D01*
X170304260Y-104067945D01*
X170252957Y-103944085D01*
X170147623Y-103786442D01*
X170147620Y-103786439D01*
X170147618Y-103786436D01*
X168592055Y-102230874D01*
X168570315Y-102184254D01*
X168583629Y-102134567D01*
X168625766Y-102105062D01*
X168645229Y-102102500D01*
X170754799Y-102102500D01*
X170816782Y-102090170D01*
X170940751Y-102065512D01*
X170963992Y-102055884D01*
X170992055Y-102044260D01*
X170992055Y-102044259D01*
X171115915Y-101992957D01*
X171273558Y-101887623D01*
X173347622Y-99813558D01*
X173452957Y-99655915D01*
X173489234Y-99568333D01*
X173525512Y-99480751D01*
X173562500Y-99294798D01*
X173562500Y-81505202D01*
X173557590Y-81480520D01*
X173546253Y-81423523D01*
X173525512Y-81319249D01*
X173452956Y-81144085D01*
X173347622Y-80986442D01*
X173213558Y-80852378D01*
X172420756Y-80059576D01*
X170013563Y-77652381D01*
X170013560Y-77652379D01*
X170013559Y-77652378D01*
X170013558Y-77652377D01*
X169855915Y-77547043D01*
X169789371Y-77519480D01*
X169727171Y-77493716D01*
X169727171Y-77493715D01*
X169680754Y-77474489D01*
X169680752Y-77474488D01*
X169680751Y-77474488D01*
X169680749Y-77474487D01*
X169680747Y-77474487D01*
X169494799Y-77437500D01*
X169494798Y-77437500D01*
X167705229Y-77437500D01*
X167656891Y-77419907D01*
X167631171Y-77375358D01*
X167640104Y-77324700D01*
X167652055Y-77309126D01*
X168647617Y-76313563D01*
X168647616Y-76313563D01*
X168647622Y-76313558D01*
X168649879Y-76310181D01*
X168707523Y-76223911D01*
X168752957Y-76155915D01*
X168825511Y-75980751D01*
X168862499Y-75794798D01*
X168862499Y-75605203D01*
X168825511Y-75419250D01*
X168752957Y-75244085D01*
X168725362Y-75202786D01*
X168647625Y-75086445D01*
X168647617Y-75086436D01*
X168513563Y-74952382D01*
X168513554Y-74952374D01*
X168355917Y-74847044D01*
X168355913Y-74847042D01*
X168180754Y-74774490D01*
X168180751Y-74774489D01*
X167994798Y-74737501D01*
X167994797Y-74737501D01*
X167805202Y-74737501D01*
X167805201Y-74737501D01*
X167619247Y-74774489D01*
X167619244Y-74774490D01*
X167446866Y-74845890D01*
X167395475Y-74848133D01*
X167354666Y-74816818D01*
X167343532Y-74766598D01*
X167364915Y-74723240D01*
X168562061Y-73526094D01*
X168562065Y-73526090D01*
X168605181Y-73451410D01*
X168627500Y-73368116D01*
X168627500Y-73281884D01*
X168627500Y-71681884D01*
X168605181Y-71598590D01*
X168562065Y-71523910D01*
X168501090Y-71462935D01*
X168242209Y-71204054D01*
X167901094Y-70862938D01*
X167901088Y-70862934D01*
X167826411Y-70819819D01*
X167798645Y-70812379D01*
X167743116Y-70797500D01*
X167743114Y-70797500D01*
X166847733Y-70797500D01*
X166799395Y-70779907D01*
X166782608Y-70759901D01*
X166780520Y-70756284D01*
X166780518Y-70756282D01*
X166780516Y-70756279D01*
X166668720Y-70644483D01*
X166668714Y-70644479D01*
X166531785Y-70565423D01*
X166493602Y-70555192D01*
X166379057Y-70524500D01*
X166220943Y-70524500D01*
X166129306Y-70549053D01*
X166068214Y-70565423D01*
X165931285Y-70644479D01*
X165931279Y-70644483D01*
X165819483Y-70756279D01*
X165819479Y-70756285D01*
X165740423Y-70893214D01*
X165719961Y-70969579D01*
X165699500Y-71045943D01*
X165699500Y-71204057D01*
X165730192Y-71318602D01*
X165740423Y-71356785D01*
X165819479Y-71493714D01*
X165819483Y-71493720D01*
X165931279Y-71605516D01*
X165931282Y-71605518D01*
X165931284Y-71605520D01*
X166039278Y-71667870D01*
X166063551Y-71681884D01*
X166068216Y-71684577D01*
X166220943Y-71725500D01*
X166220946Y-71725500D01*
X166379054Y-71725500D01*
X166379057Y-71725500D01*
X166531784Y-71684577D01*
X166668716Y-71605520D01*
X166780520Y-71493716D01*
X166782608Y-71490098D01*
X166822014Y-71457035D01*
X166847733Y-71452500D01*
X167533197Y-71452500D01*
X167581535Y-71470093D01*
X167586371Y-71474526D01*
X167950474Y-71838629D01*
X167972214Y-71885249D01*
X167972500Y-71891803D01*
X167972500Y-73158196D01*
X167954907Y-73206534D01*
X167950474Y-73211370D01*
X167436874Y-73724970D01*
X167390254Y-73746710D01*
X167340567Y-73733396D01*
X167311062Y-73691259D01*
X167308500Y-73671796D01*
X167308500Y-73605218D01*
X167292760Y-73526088D01*
X167281273Y-73468338D01*
X167227864Y-73339399D01*
X167150328Y-73223358D01*
X167150325Y-73223355D01*
X167150323Y-73223352D01*
X167051647Y-73124676D01*
X167051644Y-73124674D01*
X167051642Y-73124672D01*
X166935601Y-73047136D01*
X166935596Y-73047134D01*
X166897836Y-73031493D01*
X166806662Y-72993727D01*
X166806659Y-72993726D01*
X166806658Y-72993726D01*
X166669782Y-72966500D01*
X166669781Y-72966500D01*
X165994781Y-72966500D01*
X162794781Y-72966500D01*
X162655218Y-72966500D01*
X162655215Y-72966500D01*
X162586778Y-72980112D01*
X162586778Y-72980113D01*
X162518338Y-72993727D01*
X162480572Y-73009369D01*
X162434985Y-73028252D01*
X162389400Y-73047134D01*
X162273354Y-73124674D01*
X162273351Y-73124676D01*
X160528555Y-74869474D01*
X160481935Y-74891214D01*
X160475381Y-74891500D01*
X136730216Y-74891500D01*
X136710740Y-74895373D01*
X136710740Y-74895374D01*
X136671960Y-74903087D01*
X136593341Y-74918726D01*
X136593334Y-74918728D01*
X136517806Y-74950012D01*
X136517807Y-74950013D01*
X136464400Y-74972134D01*
X136348354Y-75049674D01*
X136348351Y-75049676D01*
X130249676Y-81148351D01*
X130249674Y-81148354D01*
X130172135Y-81264398D01*
X130149416Y-81319249D01*
X130118727Y-81393338D01*
X130118726Y-81393341D01*
X130091500Y-81530218D01*
X125240463Y-81530218D01*
X125265480Y-81505201D01*
X125297331Y-81473351D01*
X125305465Y-81465216D01*
X125305469Y-81465212D01*
X125351614Y-81385288D01*
X125375500Y-81296144D01*
X125375500Y-81203856D01*
X125351614Y-81114712D01*
X125305469Y-81034788D01*
X125305466Y-81034785D01*
X125305465Y-81034783D01*
X125240215Y-80969533D01*
X125240212Y-80969531D01*
X125232579Y-80965124D01*
X125199515Y-80925720D01*
X125199515Y-80874280D01*
X125232579Y-80834875D01*
X125240212Y-80830469D01*
X125305469Y-80765212D01*
X125351614Y-80685288D01*
X125375500Y-80596144D01*
X125375500Y-80503856D01*
X125351614Y-80414712D01*
X125305469Y-80334788D01*
X125305466Y-80334785D01*
X125305465Y-80334783D01*
X125240215Y-80269533D01*
X125240212Y-80269531D01*
X125232579Y-80265124D01*
X125199515Y-80225720D01*
X125199515Y-80174280D01*
X125232579Y-80134875D01*
X125240212Y-80130469D01*
X125305469Y-80065212D01*
X125351614Y-79985288D01*
X125375500Y-79896144D01*
X125375500Y-79803856D01*
X125351614Y-79714712D01*
X125305469Y-79634788D01*
X125305466Y-79634785D01*
X125305465Y-79634783D01*
X125240215Y-79569533D01*
X125240212Y-79569531D01*
X125232579Y-79565124D01*
X125199515Y-79525720D01*
X125199515Y-79474280D01*
X125232579Y-79434875D01*
X125240212Y-79430469D01*
X125305469Y-79365212D01*
X125351614Y-79285288D01*
X125375500Y-79196144D01*
X125375500Y-79103856D01*
X125351614Y-79014712D01*
X125305469Y-78934788D01*
X125305466Y-78934785D01*
X125305465Y-78934783D01*
X125248856Y-78878174D01*
X125227116Y-78831554D01*
X125240430Y-78781867D01*
X125248856Y-78771826D01*
X125305465Y-78715216D01*
X125305469Y-78715212D01*
X125351614Y-78635288D01*
X125375500Y-78546144D01*
X125375500Y-78453856D01*
X125351614Y-78364712D01*
X125305469Y-78284788D01*
X125305466Y-78284785D01*
X125305465Y-78284783D01*
X125240216Y-78219534D01*
X125240213Y-78219532D01*
X125240212Y-78219531D01*
X125160288Y-78173386D01*
X125160287Y-78173385D01*
X125160286Y-78173385D01*
X125121656Y-78163034D01*
X125104686Y-78158487D01*
X125062550Y-78128983D01*
X125048950Y-78085850D01*
X125048950Y-76460021D01*
X125048960Y-76459832D01*
X125048950Y-76459820D01*
X125048950Y-76459807D01*
X125048950Y-76444849D01*
X125049947Y-76444849D01*
X125050165Y-76444247D01*
X125048824Y-76413533D01*
X125067582Y-76382757D01*
X129220167Y-72263393D01*
X137174500Y-72263393D01*
X137174500Y-72263394D01*
X137174500Y-72386606D01*
X137198537Y-72507452D01*
X137245689Y-72621286D01*
X137314142Y-72723733D01*
X137314144Y-72723735D01*
X137314146Y-72723738D01*
X137401261Y-72810853D01*
X137401264Y-72810855D01*
X137401267Y-72810858D01*
X137503714Y-72879311D01*
X137617548Y-72926463D01*
X137698112Y-72942487D01*
X137738393Y-72950500D01*
X137738394Y-72950500D01*
X137861607Y-72950500D01*
X137891817Y-72944490D01*
X137982452Y-72926463D01*
X138096286Y-72879311D01*
X138198733Y-72810858D01*
X138285858Y-72723733D01*
X138354311Y-72621286D01*
X138401463Y-72507452D01*
X138425500Y-72386606D01*
X138425500Y-72263394D01*
X138425500Y-72263393D01*
X140174500Y-72263393D01*
X140174500Y-72263394D01*
X140174500Y-72386606D01*
X140198537Y-72507452D01*
X140245689Y-72621286D01*
X140314142Y-72723733D01*
X140314144Y-72723735D01*
X140314146Y-72723738D01*
X140401261Y-72810853D01*
X140401264Y-72810855D01*
X140401267Y-72810858D01*
X140503714Y-72879311D01*
X140617548Y-72926463D01*
X140698112Y-72942487D01*
X140738393Y-72950500D01*
X140738394Y-72950500D01*
X140861607Y-72950500D01*
X140891817Y-72944490D01*
X140982452Y-72926463D01*
X141096286Y-72879311D01*
X141176490Y-72825720D01*
X145152000Y-72825720D01*
X145152000Y-73071000D01*
X145860000Y-73071000D01*
X145860000Y-73579000D01*
X145152000Y-73579000D01*
X145152000Y-73824279D01*
X145190737Y-74019025D01*
X145190738Y-74019026D01*
X145266721Y-74202465D01*
X145377037Y-74367564D01*
X145377039Y-74367567D01*
X145517432Y-74507960D01*
X145517435Y-74507962D01*
X145682534Y-74618278D01*
X145865973Y-74694261D01*
X145865975Y-74694262D01*
X145906000Y-74702223D01*
X145906000Y-73885060D01*
X145919940Y-73909205D01*
X145975795Y-73965060D01*
X146044204Y-74004556D01*
X146120504Y-74025000D01*
X146199496Y-74025000D01*
X146275796Y-74004556D01*
X146344205Y-73965060D01*
X146400060Y-73909205D01*
X146414000Y-73885060D01*
X146414000Y-74702223D01*
X146454024Y-74694262D01*
X146454026Y-74694261D01*
X146637465Y-74618278D01*
X146802564Y-74507962D01*
X146802567Y-74507960D01*
X146942960Y-74367567D01*
X146942962Y-74367564D01*
X147053278Y-74202465D01*
X147129261Y-74019026D01*
X147129262Y-74019025D01*
X147168000Y-73824279D01*
X147168000Y-73579000D01*
X146460000Y-73579000D01*
X146460000Y-73071000D01*
X147168000Y-73071000D01*
X147168000Y-72825720D01*
X153792000Y-72825720D01*
X153792000Y-73071000D01*
X154500000Y-73071000D01*
X154500000Y-73579000D01*
X153792000Y-73579000D01*
X153792000Y-73824279D01*
X153830737Y-74019025D01*
X153830738Y-74019026D01*
X153906721Y-74202465D01*
X154017037Y-74367564D01*
X154017039Y-74367567D01*
X154157432Y-74507960D01*
X154157435Y-74507962D01*
X154322534Y-74618278D01*
X154505973Y-74694261D01*
X154505975Y-74694262D01*
X154546000Y-74702223D01*
X154546000Y-73885060D01*
X154559940Y-73909205D01*
X154615795Y-73965060D01*
X154684204Y-74004556D01*
X154760504Y-74025000D01*
X154839496Y-74025000D01*
X154915796Y-74004556D01*
X154984205Y-73965060D01*
X155040060Y-73909205D01*
X155054000Y-73885060D01*
X155054000Y-74702223D01*
X155094024Y-74694262D01*
X155094026Y-74694261D01*
X155277465Y-74618278D01*
X155442564Y-74507962D01*
X155442567Y-74507960D01*
X155582960Y-74367567D01*
X155582962Y-74367564D01*
X155693278Y-74202465D01*
X155769261Y-74019026D01*
X155769262Y-74019025D01*
X155808000Y-73824279D01*
X155808000Y-73579000D01*
X155100000Y-73579000D01*
X155100000Y-73071000D01*
X155808000Y-73071000D01*
X155808000Y-72825720D01*
X155769262Y-72630974D01*
X155769261Y-72630973D01*
X155693278Y-72447534D01*
X155582962Y-72282435D01*
X155582960Y-72282432D01*
X155442567Y-72142039D01*
X155442564Y-72142037D01*
X155277465Y-72031721D01*
X155094020Y-71955736D01*
X155094021Y-71955736D01*
X155054000Y-71947775D01*
X155054000Y-72764939D01*
X155040060Y-72740795D01*
X154984205Y-72684940D01*
X154915796Y-72645444D01*
X154839496Y-72625000D01*
X154760504Y-72625000D01*
X154684204Y-72645444D01*
X154615795Y-72684940D01*
X154559940Y-72740795D01*
X154546000Y-72764939D01*
X154546000Y-71947775D01*
X154545999Y-71947775D01*
X154505979Y-71955736D01*
X154322534Y-72031721D01*
X154157435Y-72142037D01*
X154157432Y-72142039D01*
X154017039Y-72282432D01*
X154017037Y-72282435D01*
X153906721Y-72447534D01*
X153830738Y-72630973D01*
X153830737Y-72630974D01*
X153792000Y-72825720D01*
X147168000Y-72825720D01*
X147129262Y-72630974D01*
X147129261Y-72630973D01*
X147053278Y-72447534D01*
X146942962Y-72282435D01*
X146942960Y-72282432D01*
X146802567Y-72142039D01*
X146802564Y-72142037D01*
X146637465Y-72031721D01*
X146454020Y-71955736D01*
X146454021Y-71955736D01*
X146414000Y-71947775D01*
X146414000Y-72764939D01*
X146400060Y-72740795D01*
X146344205Y-72684940D01*
X146275796Y-72645444D01*
X146199496Y-72625000D01*
X146120504Y-72625000D01*
X146044204Y-72645444D01*
X145975795Y-72684940D01*
X145919940Y-72740795D01*
X145906000Y-72764939D01*
X145906000Y-71947775D01*
X145905999Y-71947775D01*
X145865979Y-71955736D01*
X145682534Y-72031721D01*
X145517435Y-72142037D01*
X145517432Y-72142039D01*
X145377039Y-72282432D01*
X145377037Y-72282435D01*
X145266721Y-72447534D01*
X145190738Y-72630973D01*
X145190737Y-72630974D01*
X145152000Y-72825720D01*
X141176490Y-72825720D01*
X141198733Y-72810858D01*
X141200387Y-72809204D01*
X141240739Y-72768853D01*
X141285853Y-72723738D01*
X141285858Y-72723733D01*
X141354311Y-72621286D01*
X141401463Y-72507452D01*
X141425500Y-72386606D01*
X141425500Y-72263394D01*
X141401463Y-72142548D01*
X141354311Y-72028714D01*
X141285858Y-71926267D01*
X141285855Y-71926264D01*
X141285853Y-71926261D01*
X141198738Y-71839146D01*
X141198735Y-71839144D01*
X141198733Y-71839142D01*
X141096286Y-71770689D01*
X140982452Y-71723537D01*
X140982450Y-71723536D01*
X140982449Y-71723536D01*
X140861607Y-71699500D01*
X140861606Y-71699500D01*
X140738394Y-71699500D01*
X140738393Y-71699500D01*
X140617550Y-71723536D01*
X140617548Y-71723537D01*
X140503715Y-71770688D01*
X140401264Y-71839144D01*
X140401261Y-71839146D01*
X140314146Y-71926261D01*
X140314144Y-71926264D01*
X140245688Y-72028715D01*
X140198537Y-72142548D01*
X140198536Y-72142550D01*
X140174500Y-72263393D01*
X138425500Y-72263393D01*
X138401463Y-72142548D01*
X138354311Y-72028714D01*
X138285858Y-71926267D01*
X138285855Y-71926264D01*
X138285853Y-71926261D01*
X138198738Y-71839146D01*
X138198735Y-71839144D01*
X138198733Y-71839142D01*
X138096286Y-71770689D01*
X137982452Y-71723537D01*
X137982450Y-71723536D01*
X137982449Y-71723536D01*
X137861607Y-71699500D01*
X137861606Y-71699500D01*
X137738394Y-71699500D01*
X137738393Y-71699500D01*
X137617550Y-71723536D01*
X137617548Y-71723537D01*
X137503715Y-71770688D01*
X137401264Y-71839144D01*
X137401261Y-71839146D01*
X137314146Y-71926261D01*
X137314144Y-71926264D01*
X137245688Y-72028715D01*
X137198537Y-72142548D01*
X137198536Y-72142550D01*
X137174500Y-72263393D01*
X129220167Y-72263393D01*
X131253034Y-70246789D01*
X131299739Y-70225239D01*
X131305932Y-70224979D01*
X138334203Y-70220297D01*
X168789149Y-70220297D01*
X168837487Y-70237890D01*
G37*
%TD.AperFunction*%
%TD*%
M02*
