%TF.GenerationSoftware,KiCad,Pcbnew,9.0.7*%
%TF.CreationDate,2026-04-28T15:27:04+05:30*%
%TF.ProjectId,ESPDrone_OG,45535044-726f-46e6-955f-4f472e6b6963,rev?*%
%TF.SameCoordinates,Original*%
%TF.FileFunction,Soldermask,Bot*%
%TF.FilePolarity,Negative*%
%FSLAX46Y46*%
G04 Gerber Fmt 4.6, Leading zero omitted, Abs format (unit mm)*
G04 Created by KiCad (PCBNEW 9.0.7) date 2026-04-28 15:27:04*
%MOMM*%
%LPD*%
G01*
G04 APERTURE LIST*
%ADD10C,0.300000*%
%ADD11C,0.850000*%
%ADD12R,1.700000X1.700000*%
%ADD13C,1.700000*%
%ADD14C,0.650000*%
%ADD15O,1.000000X2.100000*%
%ADD16O,1.000000X1.800000*%
G04 APERTURE END LIST*
D10*
%TO.C,REF\u002A\u002A*%
X184800000Y-81250000D03*
%TD*%
%TO.C,REF\u002A\u002A*%
X184800000Y-80550000D03*
%TD*%
%TO.C,REF\u002A\u002A*%
X184800000Y-79150000D03*
%TD*%
%TO.C,REF\u002A\u002A*%
X184800000Y-79850000D03*
%TD*%
%TO.C,REF\u002A\u002A*%
X184800000Y-78500000D03*
%TD*%
%TO.C,REF\u002A\u002A*%
X175050000Y-81250000D03*
%TD*%
%TO.C,REF\u002A\u002A*%
X175050000Y-80550000D03*
%TD*%
%TO.C,REF\u002A\u002A*%
X175050000Y-79150000D03*
%TD*%
%TO.C,REF\u002A\u002A*%
X175050000Y-79850000D03*
%TD*%
%TO.C,REF\u002A\u002A*%
X175050000Y-78500000D03*
%TD*%
%TO.C,REF\u002A\u002A*%
X175050000Y-111950000D03*
%TD*%
%TO.C,REF\u002A\u002A*%
X175050000Y-111250000D03*
%TD*%
%TO.C,REF\u002A\u002A*%
X175050000Y-109850000D03*
%TD*%
%TO.C,REF\u002A\u002A*%
X175050000Y-110550000D03*
%TD*%
%TO.C,REF\u002A\u002A*%
X175050000Y-109200000D03*
%TD*%
%TO.C,REF\u002A\u002A*%
X184850000Y-111950000D03*
%TD*%
%TO.C,REF\u002A\u002A*%
X184850000Y-111250000D03*
%TD*%
%TO.C,REF\u002A\u002A*%
X184850000Y-109850000D03*
%TD*%
%TO.C,REF\u002A\u002A*%
X184850000Y-110550000D03*
%TD*%
%TO.C,REF\u002A\u002A*%
X184850000Y-109200000D03*
%TD*%
%TO.C,REF\u002A\u002A*%
X115250000Y-111950000D03*
%TD*%
%TO.C,REF\u002A\u002A*%
X115250000Y-111250000D03*
%TD*%
%TO.C,REF\u002A\u002A*%
X115250000Y-109850000D03*
%TD*%
%TO.C,REF\u002A\u002A*%
X115250000Y-110550000D03*
%TD*%
%TO.C,REF\u002A\u002A*%
X115250000Y-109200000D03*
%TD*%
%TO.C,REF\u002A\u002A*%
X125025000Y-111925000D03*
%TD*%
%TO.C,REF\u002A\u002A*%
X125025000Y-111225000D03*
%TD*%
%TO.C,REF\u002A\u002A*%
X125025000Y-109825000D03*
%TD*%
%TO.C,REF\u002A\u002A*%
X125025000Y-110525000D03*
%TD*%
%TO.C,REF\u002A\u002A*%
X125025000Y-109175000D03*
%TD*%
%TO.C,REF\u002A\u002A*%
X115250000Y-81250000D03*
%TD*%
%TO.C,REF\u002A\u002A*%
X115250000Y-80550000D03*
%TD*%
%TO.C,REF\u002A\u002A*%
X115250000Y-79150000D03*
%TD*%
%TO.C,REF\u002A\u002A*%
X115250000Y-79850000D03*
%TD*%
%TO.C,REF\u002A\u002A*%
X115250000Y-78500000D03*
%TD*%
%TO.C,REF\u002A\u002A*%
X125025000Y-78500000D03*
%TD*%
%TO.C,REF\u002A\u002A*%
X125025000Y-79150000D03*
%TD*%
%TO.C,REF\u002A\u002A*%
X125025000Y-79850000D03*
%TD*%
%TO.C,REF\u002A\u002A*%
X125025000Y-81250000D03*
%TD*%
%TO.C,REF\u002A\u002A*%
X125025000Y-80550000D03*
%TD*%
D11*
%TO.C,SW2*%
X140800000Y-72325000D03*
X137800000Y-72325000D03*
%TD*%
D12*
%TO.C,J4*%
X163200000Y-98600000D03*
D13*
X163200000Y-101140000D03*
X163200000Y-103680000D03*
X163200000Y-106220000D03*
X163200000Y-108760000D03*
X163200000Y-111300000D03*
%TD*%
D12*
%TO.C,J3*%
X137200000Y-98600000D03*
D13*
X137200000Y-101140000D03*
X137200000Y-103680000D03*
X137200000Y-106220000D03*
X137200000Y-108760000D03*
X137200000Y-111300000D03*
%TD*%
D14*
%TO.C,USB-C*%
X153370000Y-77005000D03*
X147590000Y-77005000D03*
D15*
X154800000Y-77525000D03*
D16*
X154800000Y-73325000D03*
D15*
X146160000Y-77525000D03*
D16*
X146160000Y-73325000D03*
%TD*%
M02*
