M48
; DRILL file {KiCad 9.0.7} date 2026-04-28T15:27:11+0530
; FORMAT={-:-/ absolute / metric / decimal}
; #@! TF.CreationDate,2026-04-28T15:27:11+05:30
; #@! TF.GenerationSoftware,Kicad,Pcbnew,9.0.7
; #@! TF.FileFunction,Plated,1,2,PTH
FMAT,2
METRIC
; #@! TA.AperFunction,Plated,PTH,ViaDrill
T1C0.400
; #@! TA.AperFunction,Plated,PTH,ComponentDrill
T2C0.400
; #@! TA.AperFunction,Plated,PTH,ComponentDrill
T3C0.600
; #@! TA.AperFunction,Plated,PTH,ComponentDrill
T4C1.000
%
G90
G05
T1
X129.325Y-99.75
X131.842Y-114.842
X132.342Y-114.342
X132.4Y-106.2
X132.6Y-91.2
X133.375Y-110.8
X133.375Y-111.6
X133.375Y-112.4
X133.4Y-99.2
X133.825Y-104.475
X134.6Y-78.0
X135.2Y-77.4
X135.8Y-76.8
X136.8Y-83.2
X136.8Y-92.4
X137.8Y-91.927
X138.8Y-96.0
X139.0Y-78.8
X139.6Y-103.0
X139.6Y-108.4
X141.2Y-96.6
X141.4Y-91.0
X143.4Y-113.0
X143.473Y-108.4
X144.2Y-86.8
X145.2Y-113.0
X145.6Y-107.0
X146.525Y-91.475
X146.6Y-92.6
X148.225Y-81.925
X149.5Y-79.5
X150.6Y-99.2
X151.405Y-80.0
X153.2Y-92.8
X153.2Y-98.2
X155.0Y-81.0
X155.2Y-90.4
X155.6Y-108.8
X157.0Y-115.6
X157.2Y-94.1
X157.4Y-107.8
X157.4Y-110.2
X158.5Y-98.75
X163.0Y-78.0
X163.95Y-73.675
X164.75Y-73.675
X165.55Y-73.675
X166.2Y-107.0
X166.3Y-71.125
X166.35Y-73.675
X166.475Y-77.125
X166.625Y-110.6
X166.625Y-111.6
X166.625Y-112.6
X167.2Y-76.4
X167.9Y-75.7
X167.95Y-97.85
X168.015Y-114.585
X169.4Y-85.4
T2
X150.4Y-110.73
X150.4Y-112.13
X151.725Y-110.73
X151.725Y-112.13
X153.0Y-110.73
X153.0Y-112.13
X159.425Y-78.1
X161.225Y-78.1
T4
X137.2Y-98.6
X137.2Y-101.14
X137.2Y-103.68
X137.2Y-106.22
X137.2Y-108.76
X137.2Y-111.3
X163.2Y-98.6
X163.2Y-101.14
X163.2Y-103.68
X163.2Y-106.22
X163.2Y-108.76
X163.2Y-111.3
T3
G00X146.16Y-73.725
M15
G01X146.16Y-72.925
M16
G05
G00X146.16Y-78.075
M15
G01X146.16Y-76.975
M16
G05
G00X154.8Y-73.725
M15
G01X154.8Y-72.925
M16
G05
G00X154.8Y-78.075
M15
G01X154.8Y-76.975
M16
G05
M30
