M48
; DRILL file {KiCad 9.0.7} date 2026-04-28T15:27:11+0530
; FORMAT={-:-/ absolute / metric / decimal}
; #@! TF.CreationDate,2026-04-28T15:27:11+05:30
; #@! TF.GenerationSoftware,Kicad,Pcbnew,9.0.7
; #@! TF.FileFunction,NonPlated,1,2,NPTH
FMAT,2
METRIC
; #@! TA.AperFunction,NonPlated,NPTH,ComponentDrill
T1C0.300
; #@! TA.AperFunction,NonPlated,NPTH,ComponentDrill
T2C0.650
; #@! TA.AperFunction,NonPlated,NPTH,ComponentDrill
T3C0.850
%
G90
G05
T1
X115.25Y-78.5
X115.25Y-79.15
X115.25Y-79.85
X115.25Y-80.55
X115.25Y-81.25
X115.25Y-109.2
X115.25Y-109.85
X115.25Y-110.55
X115.25Y-111.25
X115.25Y-111.95
X125.025Y-78.5
X125.025Y-79.15
X125.025Y-79.85
X125.025Y-80.55
X125.025Y-81.25
X125.025Y-109.175
X125.025Y-109.825
X125.025Y-110.525
X125.025Y-111.225
X125.025Y-111.925
X175.05Y-78.5
X175.05Y-79.15
X175.05Y-79.85
X175.05Y-80.55
X175.05Y-81.25
X175.05Y-109.2
X175.05Y-109.85
X175.05Y-110.55
X175.05Y-111.25
X175.05Y-111.95
X184.8Y-78.5
X184.8Y-79.15
X184.8Y-79.85
X184.8Y-80.55
X184.8Y-81.25
X184.85Y-109.2
X184.85Y-109.85
X184.85Y-110.55
X184.85Y-111.25
X184.85Y-111.95
T2
X147.59Y-77.005
X153.37Y-77.005
T3
X137.8Y-72.325
X140.8Y-72.325
M30
