%TF.GenerationSoftware,KiCad,Pcbnew,9.0.2*%
%TF.CreationDate,2025-11-09T18:53:55+05:30*%
%TF.ProjectId,BUSINESSCARD,42555349-4e45-4535-9343-4152442e6b69,rev?*%
%TF.SameCoordinates,Original*%
%TF.FileFunction,Legend,Top*%
%TF.FilePolarity,Positive*%
%FSLAX46Y46*%
G04 Gerber Fmt 4.6, Leading zero omitted, Abs format (unit mm)*
G04 Created by KiCad (PCBNEW 9.0.2) date 2025-11-09 18:53:55*
%MOMM*%
%LPD*%
G01*
G04 APERTURE LIST*
%ADD10C,0.500000*%
%ADD11C,1.000000*%
%ADD12C,0.300000*%
%ADD13C,0.000000*%
G04 APERTURE END LIST*
D10*
X179924185Y-78618327D02*
X179924185Y-76118327D01*
X179924185Y-77308803D02*
X181352756Y-77308803D01*
X181352756Y-78618327D02*
X181352756Y-76118327D01*
X182424185Y-77904041D02*
X183614661Y-77904041D01*
X182186090Y-78618327D02*
X183019423Y-76118327D01*
X183019423Y-76118327D02*
X183852756Y-78618327D01*
X186114661Y-78618327D02*
X185281328Y-77427851D01*
X184686090Y-78618327D02*
X184686090Y-76118327D01*
X184686090Y-76118327D02*
X185638471Y-76118327D01*
X185638471Y-76118327D02*
X185876566Y-76237375D01*
X185876566Y-76237375D02*
X185995613Y-76356422D01*
X185995613Y-76356422D02*
X186114661Y-76594518D01*
X186114661Y-76594518D02*
X186114661Y-76951660D01*
X186114661Y-76951660D02*
X185995613Y-77189756D01*
X185995613Y-77189756D02*
X185876566Y-77308803D01*
X185876566Y-77308803D02*
X185638471Y-77427851D01*
X185638471Y-77427851D02*
X184686090Y-77427851D01*
X187186090Y-78618327D02*
X187186090Y-76118327D01*
X187186090Y-76118327D02*
X187781328Y-76118327D01*
X187781328Y-76118327D02*
X188138471Y-76237375D01*
X188138471Y-76237375D02*
X188376566Y-76475470D01*
X188376566Y-76475470D02*
X188495613Y-76713565D01*
X188495613Y-76713565D02*
X188614661Y-77189756D01*
X188614661Y-77189756D02*
X188614661Y-77546899D01*
X188614661Y-77546899D02*
X188495613Y-78023089D01*
X188495613Y-78023089D02*
X188376566Y-78261184D01*
X188376566Y-78261184D02*
X188138471Y-78499280D01*
X188138471Y-78499280D02*
X187781328Y-78618327D01*
X187781328Y-78618327D02*
X187186090Y-78618327D01*
X189447994Y-76118327D02*
X190043232Y-78618327D01*
X190043232Y-78618327D02*
X190519423Y-76832613D01*
X190519423Y-76832613D02*
X190995613Y-78618327D01*
X190995613Y-78618327D02*
X191590852Y-76118327D01*
X192424185Y-77904041D02*
X193614661Y-77904041D01*
X192186090Y-78618327D02*
X193019423Y-76118327D01*
X193019423Y-76118327D02*
X193852756Y-78618327D01*
X196114661Y-78618327D02*
X195281328Y-77427851D01*
X194686090Y-78618327D02*
X194686090Y-76118327D01*
X194686090Y-76118327D02*
X195638471Y-76118327D01*
X195638471Y-76118327D02*
X195876566Y-76237375D01*
X195876566Y-76237375D02*
X195995613Y-76356422D01*
X195995613Y-76356422D02*
X196114661Y-76594518D01*
X196114661Y-76594518D02*
X196114661Y-76951660D01*
X196114661Y-76951660D02*
X195995613Y-77189756D01*
X195995613Y-77189756D02*
X195876566Y-77308803D01*
X195876566Y-77308803D02*
X195638471Y-77427851D01*
X195638471Y-77427851D02*
X194686090Y-77427851D01*
X197186090Y-77308803D02*
X198019423Y-77308803D01*
X198376566Y-78618327D02*
X197186090Y-78618327D01*
X197186090Y-78618327D02*
X197186090Y-76118327D01*
X197186090Y-76118327D02*
X198376566Y-76118327D01*
X201352757Y-78618327D02*
X201352757Y-76118327D01*
X201352757Y-76118327D02*
X201947995Y-76118327D01*
X201947995Y-76118327D02*
X202305138Y-76237375D01*
X202305138Y-76237375D02*
X202543233Y-76475470D01*
X202543233Y-76475470D02*
X202662280Y-76713565D01*
X202662280Y-76713565D02*
X202781328Y-77189756D01*
X202781328Y-77189756D02*
X202781328Y-77546899D01*
X202781328Y-77546899D02*
X202662280Y-78023089D01*
X202662280Y-78023089D02*
X202543233Y-78261184D01*
X202543233Y-78261184D02*
X202305138Y-78499280D01*
X202305138Y-78499280D02*
X201947995Y-78618327D01*
X201947995Y-78618327D02*
X201352757Y-78618327D01*
X203852757Y-77308803D02*
X204686090Y-77308803D01*
X205043233Y-78618327D02*
X203852757Y-78618327D01*
X203852757Y-78618327D02*
X203852757Y-76118327D01*
X203852757Y-76118327D02*
X205043233Y-76118327D01*
X205995614Y-78499280D02*
X206352757Y-78618327D01*
X206352757Y-78618327D02*
X206947995Y-78618327D01*
X206947995Y-78618327D02*
X207186090Y-78499280D01*
X207186090Y-78499280D02*
X207305138Y-78380232D01*
X207305138Y-78380232D02*
X207424185Y-78142137D01*
X207424185Y-78142137D02*
X207424185Y-77904041D01*
X207424185Y-77904041D02*
X207305138Y-77665946D01*
X207305138Y-77665946D02*
X207186090Y-77546899D01*
X207186090Y-77546899D02*
X206947995Y-77427851D01*
X206947995Y-77427851D02*
X206471804Y-77308803D01*
X206471804Y-77308803D02*
X206233709Y-77189756D01*
X206233709Y-77189756D02*
X206114662Y-77070708D01*
X206114662Y-77070708D02*
X205995614Y-76832613D01*
X205995614Y-76832613D02*
X205995614Y-76594518D01*
X205995614Y-76594518D02*
X206114662Y-76356422D01*
X206114662Y-76356422D02*
X206233709Y-76237375D01*
X206233709Y-76237375D02*
X206471804Y-76118327D01*
X206471804Y-76118327D02*
X207067043Y-76118327D01*
X207067043Y-76118327D02*
X207424185Y-76237375D01*
X208495614Y-78618327D02*
X208495614Y-76118327D01*
X210995613Y-76237375D02*
X210757518Y-76118327D01*
X210757518Y-76118327D02*
X210400375Y-76118327D01*
X210400375Y-76118327D02*
X210043232Y-76237375D01*
X210043232Y-76237375D02*
X209805137Y-76475470D01*
X209805137Y-76475470D02*
X209686090Y-76713565D01*
X209686090Y-76713565D02*
X209567042Y-77189756D01*
X209567042Y-77189756D02*
X209567042Y-77546899D01*
X209567042Y-77546899D02*
X209686090Y-78023089D01*
X209686090Y-78023089D02*
X209805137Y-78261184D01*
X209805137Y-78261184D02*
X210043232Y-78499280D01*
X210043232Y-78499280D02*
X210400375Y-78618327D01*
X210400375Y-78618327D02*
X210638471Y-78618327D01*
X210638471Y-78618327D02*
X210995613Y-78499280D01*
X210995613Y-78499280D02*
X211114661Y-78380232D01*
X211114661Y-78380232D02*
X211114661Y-77546899D01*
X211114661Y-77546899D02*
X210638471Y-77546899D01*
X212186090Y-78618327D02*
X212186090Y-76118327D01*
X212186090Y-76118327D02*
X213614661Y-78618327D01*
X213614661Y-78618327D02*
X213614661Y-76118327D01*
X216709900Y-77308803D02*
X217543233Y-77308803D01*
X217900376Y-78618327D02*
X216709900Y-78618327D01*
X216709900Y-78618327D02*
X216709900Y-76118327D01*
X216709900Y-76118327D02*
X217900376Y-76118327D01*
X218971805Y-78618327D02*
X218971805Y-76118327D01*
X218971805Y-76118327D02*
X220400376Y-78618327D01*
X220400376Y-78618327D02*
X220400376Y-76118327D01*
X222900376Y-76237375D02*
X222662281Y-76118327D01*
X222662281Y-76118327D02*
X222305138Y-76118327D01*
X222305138Y-76118327D02*
X221947995Y-76237375D01*
X221947995Y-76237375D02*
X221709900Y-76475470D01*
X221709900Y-76475470D02*
X221590853Y-76713565D01*
X221590853Y-76713565D02*
X221471805Y-77189756D01*
X221471805Y-77189756D02*
X221471805Y-77546899D01*
X221471805Y-77546899D02*
X221590853Y-78023089D01*
X221590853Y-78023089D02*
X221709900Y-78261184D01*
X221709900Y-78261184D02*
X221947995Y-78499280D01*
X221947995Y-78499280D02*
X222305138Y-78618327D01*
X222305138Y-78618327D02*
X222543234Y-78618327D01*
X222543234Y-78618327D02*
X222900376Y-78499280D01*
X222900376Y-78499280D02*
X223019424Y-78380232D01*
X223019424Y-78380232D02*
X223019424Y-77546899D01*
X223019424Y-77546899D02*
X222543234Y-77546899D01*
X224090853Y-78618327D02*
X224090853Y-76118327D01*
X225281329Y-78618327D02*
X225281329Y-76118327D01*
X225281329Y-76118327D02*
X226709900Y-78618327D01*
X226709900Y-78618327D02*
X226709900Y-76118327D01*
X227900377Y-77308803D02*
X228733710Y-77308803D01*
X229090853Y-78618327D02*
X227900377Y-78618327D01*
X227900377Y-78618327D02*
X227900377Y-76118327D01*
X227900377Y-76118327D02*
X229090853Y-76118327D01*
X230162282Y-77308803D02*
X230995615Y-77308803D01*
X231352758Y-78618327D02*
X230162282Y-78618327D01*
X230162282Y-78618327D02*
X230162282Y-76118327D01*
X230162282Y-76118327D02*
X231352758Y-76118327D01*
X233852758Y-78618327D02*
X233019425Y-77427851D01*
X232424187Y-78618327D02*
X232424187Y-76118327D01*
X232424187Y-76118327D02*
X233376568Y-76118327D01*
X233376568Y-76118327D02*
X233614663Y-76237375D01*
X233614663Y-76237375D02*
X233733710Y-76356422D01*
X233733710Y-76356422D02*
X233852758Y-76594518D01*
X233852758Y-76594518D02*
X233852758Y-76951660D01*
X233852758Y-76951660D02*
X233733710Y-77189756D01*
X233733710Y-77189756D02*
X233614663Y-77308803D01*
X233614663Y-77308803D02*
X233376568Y-77427851D01*
X233376568Y-77427851D02*
X232424187Y-77427851D01*
X179924185Y-81690806D02*
X181828947Y-81690806D01*
X180876566Y-82643187D02*
X180876566Y-80738425D01*
X183138470Y-82643187D02*
X183614661Y-82643187D01*
X183614661Y-82643187D02*
X183852756Y-82524140D01*
X183852756Y-82524140D02*
X183971804Y-82405092D01*
X183971804Y-82405092D02*
X184209899Y-82047949D01*
X184209899Y-82047949D02*
X184328946Y-81571759D01*
X184328946Y-81571759D02*
X184328946Y-80619378D01*
X184328946Y-80619378D02*
X184209899Y-80381282D01*
X184209899Y-80381282D02*
X184090851Y-80262235D01*
X184090851Y-80262235D02*
X183852756Y-80143187D01*
X183852756Y-80143187D02*
X183376565Y-80143187D01*
X183376565Y-80143187D02*
X183138470Y-80262235D01*
X183138470Y-80262235D02*
X183019423Y-80381282D01*
X183019423Y-80381282D02*
X182900375Y-80619378D01*
X182900375Y-80619378D02*
X182900375Y-81214616D01*
X182900375Y-81214616D02*
X183019423Y-81452711D01*
X183019423Y-81452711D02*
X183138470Y-81571759D01*
X183138470Y-81571759D02*
X183376565Y-81690806D01*
X183376565Y-81690806D02*
X183852756Y-81690806D01*
X183852756Y-81690806D02*
X184090851Y-81571759D01*
X184090851Y-81571759D02*
X184209899Y-81452711D01*
X184209899Y-81452711D02*
X184328946Y-81214616D01*
X186709898Y-82643187D02*
X185281327Y-82643187D01*
X185995613Y-82643187D02*
X185995613Y-80143187D01*
X185995613Y-80143187D02*
X185757517Y-80500330D01*
X185757517Y-80500330D02*
X185519422Y-80738425D01*
X185519422Y-80738425D02*
X185281327Y-80857473D01*
X189447993Y-80143187D02*
X191114660Y-80143187D01*
X191114660Y-80143187D02*
X190043231Y-82643187D01*
X191828945Y-80143187D02*
X193376564Y-80143187D01*
X193376564Y-80143187D02*
X192543231Y-81095568D01*
X192543231Y-81095568D02*
X192900374Y-81095568D01*
X192900374Y-81095568D02*
X193138469Y-81214616D01*
X193138469Y-81214616D02*
X193257517Y-81333663D01*
X193257517Y-81333663D02*
X193376564Y-81571759D01*
X193376564Y-81571759D02*
X193376564Y-82166997D01*
X193376564Y-82166997D02*
X193257517Y-82405092D01*
X193257517Y-82405092D02*
X193138469Y-82524140D01*
X193138469Y-82524140D02*
X192900374Y-82643187D01*
X192900374Y-82643187D02*
X192186088Y-82643187D01*
X192186088Y-82643187D02*
X191947993Y-82524140D01*
X191947993Y-82524140D02*
X191828945Y-82405092D01*
X194924183Y-80143187D02*
X195162278Y-80143187D01*
X195162278Y-80143187D02*
X195400374Y-80262235D01*
X195400374Y-80262235D02*
X195519421Y-80381282D01*
X195519421Y-80381282D02*
X195638469Y-80619378D01*
X195638469Y-80619378D02*
X195757516Y-81095568D01*
X195757516Y-81095568D02*
X195757516Y-81690806D01*
X195757516Y-81690806D02*
X195638469Y-82166997D01*
X195638469Y-82166997D02*
X195519421Y-82405092D01*
X195519421Y-82405092D02*
X195400374Y-82524140D01*
X195400374Y-82524140D02*
X195162278Y-82643187D01*
X195162278Y-82643187D02*
X194924183Y-82643187D01*
X194924183Y-82643187D02*
X194686088Y-82524140D01*
X194686088Y-82524140D02*
X194567040Y-82405092D01*
X194567040Y-82405092D02*
X194447993Y-82166997D01*
X194447993Y-82166997D02*
X194328945Y-81690806D01*
X194328945Y-81690806D02*
X194328945Y-81095568D01*
X194328945Y-81095568D02*
X194447993Y-80619378D01*
X194447993Y-80619378D02*
X194567040Y-80381282D01*
X194567040Y-80381282D02*
X194686088Y-80262235D01*
X194686088Y-80262235D02*
X194924183Y-80143187D01*
X197900373Y-80143187D02*
X197424183Y-80143187D01*
X197424183Y-80143187D02*
X197186087Y-80262235D01*
X197186087Y-80262235D02*
X197067040Y-80381282D01*
X197067040Y-80381282D02*
X196828945Y-80738425D01*
X196828945Y-80738425D02*
X196709897Y-81214616D01*
X196709897Y-81214616D02*
X196709897Y-82166997D01*
X196709897Y-82166997D02*
X196828945Y-82405092D01*
X196828945Y-82405092D02*
X196947992Y-82524140D01*
X196947992Y-82524140D02*
X197186087Y-82643187D01*
X197186087Y-82643187D02*
X197662278Y-82643187D01*
X197662278Y-82643187D02*
X197900373Y-82524140D01*
X197900373Y-82524140D02*
X198019421Y-82405092D01*
X198019421Y-82405092D02*
X198138468Y-82166997D01*
X198138468Y-82166997D02*
X198138468Y-81571759D01*
X198138468Y-81571759D02*
X198019421Y-81333663D01*
X198019421Y-81333663D02*
X197900373Y-81214616D01*
X197900373Y-81214616D02*
X197662278Y-81095568D01*
X197662278Y-81095568D02*
X197186087Y-81095568D01*
X197186087Y-81095568D02*
X196947992Y-81214616D01*
X196947992Y-81214616D02*
X196828945Y-81333663D01*
X196828945Y-81333663D02*
X196709897Y-81571759D01*
X200281325Y-80976520D02*
X200281325Y-82643187D01*
X199686087Y-80024140D02*
X199090849Y-81809854D01*
X199090849Y-81809854D02*
X200638468Y-81809854D01*
X202781325Y-80143187D02*
X201590849Y-80143187D01*
X201590849Y-80143187D02*
X201471801Y-81333663D01*
X201471801Y-81333663D02*
X201590849Y-81214616D01*
X201590849Y-81214616D02*
X201828944Y-81095568D01*
X201828944Y-81095568D02*
X202424182Y-81095568D01*
X202424182Y-81095568D02*
X202662277Y-81214616D01*
X202662277Y-81214616D02*
X202781325Y-81333663D01*
X202781325Y-81333663D02*
X202900372Y-81571759D01*
X202900372Y-81571759D02*
X202900372Y-82166997D01*
X202900372Y-82166997D02*
X202781325Y-82405092D01*
X202781325Y-82405092D02*
X202662277Y-82524140D01*
X202662277Y-82524140D02*
X202424182Y-82643187D01*
X202424182Y-82643187D02*
X201828944Y-82643187D01*
X201828944Y-82643187D02*
X201590849Y-82524140D01*
X201590849Y-82524140D02*
X201471801Y-82405092D01*
X204090848Y-82643187D02*
X204567039Y-82643187D01*
X204567039Y-82643187D02*
X204805134Y-82524140D01*
X204805134Y-82524140D02*
X204924182Y-82405092D01*
X204924182Y-82405092D02*
X205162277Y-82047949D01*
X205162277Y-82047949D02*
X205281324Y-81571759D01*
X205281324Y-81571759D02*
X205281324Y-80619378D01*
X205281324Y-80619378D02*
X205162277Y-80381282D01*
X205162277Y-80381282D02*
X205043229Y-80262235D01*
X205043229Y-80262235D02*
X204805134Y-80143187D01*
X204805134Y-80143187D02*
X204328943Y-80143187D01*
X204328943Y-80143187D02*
X204090848Y-80262235D01*
X204090848Y-80262235D02*
X203971801Y-80381282D01*
X203971801Y-80381282D02*
X203852753Y-80619378D01*
X203852753Y-80619378D02*
X203852753Y-81214616D01*
X203852753Y-81214616D02*
X203971801Y-81452711D01*
X203971801Y-81452711D02*
X204090848Y-81571759D01*
X204090848Y-81571759D02*
X204328943Y-81690806D01*
X204328943Y-81690806D02*
X204805134Y-81690806D01*
X204805134Y-81690806D02*
X205043229Y-81571759D01*
X205043229Y-81571759D02*
X205162277Y-81452711D01*
X205162277Y-81452711D02*
X205281324Y-81214616D01*
X207424181Y-80976520D02*
X207424181Y-82643187D01*
X206828943Y-80024140D02*
X206233705Y-81809854D01*
X206233705Y-81809854D02*
X207781324Y-81809854D01*
X209805133Y-80143187D02*
X209328943Y-80143187D01*
X209328943Y-80143187D02*
X209090847Y-80262235D01*
X209090847Y-80262235D02*
X208971800Y-80381282D01*
X208971800Y-80381282D02*
X208733705Y-80738425D01*
X208733705Y-80738425D02*
X208614657Y-81214616D01*
X208614657Y-81214616D02*
X208614657Y-82166997D01*
X208614657Y-82166997D02*
X208733705Y-82405092D01*
X208733705Y-82405092D02*
X208852752Y-82524140D01*
X208852752Y-82524140D02*
X209090847Y-82643187D01*
X209090847Y-82643187D02*
X209567038Y-82643187D01*
X209567038Y-82643187D02*
X209805133Y-82524140D01*
X209805133Y-82524140D02*
X209924181Y-82405092D01*
X209924181Y-82405092D02*
X210043228Y-82166997D01*
X210043228Y-82166997D02*
X210043228Y-81571759D01*
X210043228Y-81571759D02*
X209924181Y-81333663D01*
X209924181Y-81333663D02*
X209805133Y-81214616D01*
X209805133Y-81214616D02*
X209567038Y-81095568D01*
X209567038Y-81095568D02*
X209090847Y-81095568D01*
X209090847Y-81095568D02*
X208852752Y-81214616D01*
X208852752Y-81214616D02*
X208733705Y-81333663D01*
X208733705Y-81333663D02*
X208614657Y-81571759D01*
X212186085Y-80143187D02*
X211709895Y-80143187D01*
X211709895Y-80143187D02*
X211471799Y-80262235D01*
X211471799Y-80262235D02*
X211352752Y-80381282D01*
X211352752Y-80381282D02*
X211114657Y-80738425D01*
X211114657Y-80738425D02*
X210995609Y-81214616D01*
X210995609Y-81214616D02*
X210995609Y-82166997D01*
X210995609Y-82166997D02*
X211114657Y-82405092D01*
X211114657Y-82405092D02*
X211233704Y-82524140D01*
X211233704Y-82524140D02*
X211471799Y-82643187D01*
X211471799Y-82643187D02*
X211947990Y-82643187D01*
X211947990Y-82643187D02*
X212186085Y-82524140D01*
X212186085Y-82524140D02*
X212305133Y-82405092D01*
X212305133Y-82405092D02*
X212424180Y-82166997D01*
X212424180Y-82166997D02*
X212424180Y-81571759D01*
X212424180Y-81571759D02*
X212305133Y-81333663D01*
X212305133Y-81333663D02*
X212186085Y-81214616D01*
X212186085Y-81214616D02*
X211947990Y-81095568D01*
X211947990Y-81095568D02*
X211471799Y-81095568D01*
X211471799Y-81095568D02*
X211233704Y-81214616D01*
X211233704Y-81214616D02*
X211114657Y-81333663D01*
X211114657Y-81333663D02*
X210995609Y-81571759D01*
X179924185Y-85001380D02*
X179924185Y-87144238D01*
X179924185Y-87144238D02*
X179805137Y-87382333D01*
X179805137Y-87382333D02*
X179567042Y-87501380D01*
X179567042Y-87501380D02*
X179447994Y-87501380D01*
X179924185Y-84168047D02*
X179805137Y-84287095D01*
X179805137Y-84287095D02*
X179924185Y-84406142D01*
X179924185Y-84406142D02*
X180043232Y-84287095D01*
X180043232Y-84287095D02*
X179924185Y-84168047D01*
X179924185Y-84168047D02*
X179924185Y-84406142D01*
X182186089Y-85001380D02*
X182186089Y-86668047D01*
X181114661Y-85001380D02*
X181114661Y-86310904D01*
X181114661Y-86310904D02*
X181233708Y-86549000D01*
X181233708Y-86549000D02*
X181471803Y-86668047D01*
X181471803Y-86668047D02*
X181828946Y-86668047D01*
X181828946Y-86668047D02*
X182067042Y-86549000D01*
X182067042Y-86549000D02*
X182186089Y-86429952D01*
X184447994Y-86668047D02*
X184447994Y-84168047D01*
X184447994Y-86549000D02*
X184209899Y-86668047D01*
X184209899Y-86668047D02*
X183733708Y-86668047D01*
X183733708Y-86668047D02*
X183495613Y-86549000D01*
X183495613Y-86549000D02*
X183376566Y-86429952D01*
X183376566Y-86429952D02*
X183257518Y-86191857D01*
X183257518Y-86191857D02*
X183257518Y-85477571D01*
X183257518Y-85477571D02*
X183376566Y-85239476D01*
X183376566Y-85239476D02*
X183495613Y-85120428D01*
X183495613Y-85120428D02*
X183733708Y-85001380D01*
X183733708Y-85001380D02*
X184209899Y-85001380D01*
X184209899Y-85001380D02*
X184447994Y-85120428D01*
X185519423Y-86549000D02*
X185757518Y-86668047D01*
X185757518Y-86668047D02*
X186233709Y-86668047D01*
X186233709Y-86668047D02*
X186471804Y-86549000D01*
X186471804Y-86549000D02*
X186590852Y-86310904D01*
X186590852Y-86310904D02*
X186590852Y-86191857D01*
X186590852Y-86191857D02*
X186471804Y-85953761D01*
X186471804Y-85953761D02*
X186233709Y-85834714D01*
X186233709Y-85834714D02*
X185876566Y-85834714D01*
X185876566Y-85834714D02*
X185638471Y-85715666D01*
X185638471Y-85715666D02*
X185519423Y-85477571D01*
X185519423Y-85477571D02*
X185519423Y-85358523D01*
X185519423Y-85358523D02*
X185638471Y-85120428D01*
X185638471Y-85120428D02*
X185876566Y-85001380D01*
X185876566Y-85001380D02*
X186233709Y-85001380D01*
X186233709Y-85001380D02*
X186471804Y-85120428D01*
X188019423Y-86668047D02*
X187781328Y-86549000D01*
X187781328Y-86549000D02*
X187662281Y-86429952D01*
X187662281Y-86429952D02*
X187543233Y-86191857D01*
X187543233Y-86191857D02*
X187543233Y-85477571D01*
X187543233Y-85477571D02*
X187662281Y-85239476D01*
X187662281Y-85239476D02*
X187781328Y-85120428D01*
X187781328Y-85120428D02*
X188019423Y-85001380D01*
X188019423Y-85001380D02*
X188376566Y-85001380D01*
X188376566Y-85001380D02*
X188614662Y-85120428D01*
X188614662Y-85120428D02*
X188733709Y-85239476D01*
X188733709Y-85239476D02*
X188852757Y-85477571D01*
X188852757Y-85477571D02*
X188852757Y-86191857D01*
X188852757Y-86191857D02*
X188733709Y-86429952D01*
X188733709Y-86429952D02*
X188614662Y-86549000D01*
X188614662Y-86549000D02*
X188376566Y-86668047D01*
X188376566Y-86668047D02*
X188019423Y-86668047D01*
X189924186Y-85001380D02*
X189924186Y-86668047D01*
X189924186Y-85239476D02*
X190043233Y-85120428D01*
X190043233Y-85120428D02*
X190281328Y-85001380D01*
X190281328Y-85001380D02*
X190638471Y-85001380D01*
X190638471Y-85001380D02*
X190876567Y-85120428D01*
X190876567Y-85120428D02*
X190995614Y-85358523D01*
X190995614Y-85358523D02*
X190995614Y-86668047D01*
X193257519Y-86668047D02*
X193257519Y-85358523D01*
X193257519Y-85358523D02*
X193138472Y-85120428D01*
X193138472Y-85120428D02*
X192900376Y-85001380D01*
X192900376Y-85001380D02*
X192424186Y-85001380D01*
X192424186Y-85001380D02*
X192186091Y-85120428D01*
X193257519Y-86549000D02*
X193019424Y-86668047D01*
X193019424Y-86668047D02*
X192424186Y-86668047D01*
X192424186Y-86668047D02*
X192186091Y-86549000D01*
X192186091Y-86549000D02*
X192067043Y-86310904D01*
X192067043Y-86310904D02*
X192067043Y-86072809D01*
X192067043Y-86072809D02*
X192186091Y-85834714D01*
X192186091Y-85834714D02*
X192424186Y-85715666D01*
X192424186Y-85715666D02*
X193019424Y-85715666D01*
X193019424Y-85715666D02*
X193257519Y-85596619D01*
X194447996Y-85001380D02*
X194447996Y-86668047D01*
X194447996Y-85239476D02*
X194567043Y-85120428D01*
X194567043Y-85120428D02*
X194805138Y-85001380D01*
X194805138Y-85001380D02*
X195162281Y-85001380D01*
X195162281Y-85001380D02*
X195400377Y-85120428D01*
X195400377Y-85120428D02*
X195519424Y-85358523D01*
X195519424Y-85358523D02*
X195519424Y-86668047D01*
X196352758Y-85001380D02*
X197305139Y-85001380D01*
X196709901Y-84168047D02*
X196709901Y-86310904D01*
X196709901Y-86310904D02*
X196828948Y-86549000D01*
X196828948Y-86549000D02*
X197067043Y-86668047D01*
X197067043Y-86668047D02*
X197305139Y-86668047D01*
X199209900Y-85001380D02*
X199209900Y-86668047D01*
X198138472Y-85001380D02*
X198138472Y-86310904D01*
X198138472Y-86310904D02*
X198257519Y-86549000D01*
X198257519Y-86549000D02*
X198495614Y-86668047D01*
X198495614Y-86668047D02*
X198852757Y-86668047D01*
X198852757Y-86668047D02*
X199090853Y-86549000D01*
X199090853Y-86549000D02*
X199209900Y-86429952D01*
X201947996Y-85477571D02*
X201828948Y-85358523D01*
X201828948Y-85358523D02*
X201590853Y-85239476D01*
X201590853Y-85239476D02*
X201352758Y-85239476D01*
X201352758Y-85239476D02*
X201114662Y-85358523D01*
X201114662Y-85358523D02*
X200995615Y-85477571D01*
X200995615Y-85477571D02*
X200876567Y-85715666D01*
X200876567Y-85715666D02*
X200876567Y-85953761D01*
X200876567Y-85953761D02*
X200995615Y-86191857D01*
X200995615Y-86191857D02*
X201114662Y-86310904D01*
X201114662Y-86310904D02*
X201352758Y-86429952D01*
X201352758Y-86429952D02*
X201590853Y-86429952D01*
X201590853Y-86429952D02*
X201828948Y-86310904D01*
X201828948Y-86310904D02*
X201947996Y-86191857D01*
X201947996Y-85239476D02*
X201947996Y-86191857D01*
X201947996Y-86191857D02*
X202067043Y-86310904D01*
X202067043Y-86310904D02*
X202186091Y-86310904D01*
X202186091Y-86310904D02*
X202424186Y-86191857D01*
X202424186Y-86191857D02*
X202543234Y-85953761D01*
X202543234Y-85953761D02*
X202543234Y-85358523D01*
X202543234Y-85358523D02*
X202305139Y-85001380D01*
X202305139Y-85001380D02*
X201947996Y-84763285D01*
X201947996Y-84763285D02*
X201471805Y-84644238D01*
X201471805Y-84644238D02*
X200995615Y-84763285D01*
X200995615Y-84763285D02*
X200638472Y-85001380D01*
X200638472Y-85001380D02*
X200400377Y-85358523D01*
X200400377Y-85358523D02*
X200281329Y-85834714D01*
X200281329Y-85834714D02*
X200400377Y-86310904D01*
X200400377Y-86310904D02*
X200638472Y-86668047D01*
X200638472Y-86668047D02*
X200995615Y-86906142D01*
X200995615Y-86906142D02*
X201471805Y-87025190D01*
X201471805Y-87025190D02*
X201947996Y-86906142D01*
X201947996Y-86906142D02*
X202305139Y-86668047D01*
X204686091Y-85001380D02*
X204686091Y-87025190D01*
X204686091Y-87025190D02*
X204567044Y-87263285D01*
X204567044Y-87263285D02*
X204447996Y-87382333D01*
X204447996Y-87382333D02*
X204209901Y-87501380D01*
X204209901Y-87501380D02*
X203852758Y-87501380D01*
X203852758Y-87501380D02*
X203614663Y-87382333D01*
X204686091Y-86549000D02*
X204447996Y-86668047D01*
X204447996Y-86668047D02*
X203971805Y-86668047D01*
X203971805Y-86668047D02*
X203733710Y-86549000D01*
X203733710Y-86549000D02*
X203614663Y-86429952D01*
X203614663Y-86429952D02*
X203495615Y-86191857D01*
X203495615Y-86191857D02*
X203495615Y-85477571D01*
X203495615Y-85477571D02*
X203614663Y-85239476D01*
X203614663Y-85239476D02*
X203733710Y-85120428D01*
X203733710Y-85120428D02*
X203971805Y-85001380D01*
X203971805Y-85001380D02*
X204447996Y-85001380D01*
X204447996Y-85001380D02*
X204686091Y-85120428D01*
X205876568Y-86668047D02*
X205876568Y-85001380D01*
X205876568Y-85239476D02*
X205995615Y-85120428D01*
X205995615Y-85120428D02*
X206233710Y-85001380D01*
X206233710Y-85001380D02*
X206590853Y-85001380D01*
X206590853Y-85001380D02*
X206828949Y-85120428D01*
X206828949Y-85120428D02*
X206947996Y-85358523D01*
X206947996Y-85358523D02*
X206947996Y-86668047D01*
X206947996Y-85358523D02*
X207067044Y-85120428D01*
X207067044Y-85120428D02*
X207305139Y-85001380D01*
X207305139Y-85001380D02*
X207662282Y-85001380D01*
X207662282Y-85001380D02*
X207900377Y-85120428D01*
X207900377Y-85120428D02*
X208019425Y-85358523D01*
X208019425Y-85358523D02*
X208019425Y-86668047D01*
X210281329Y-86668047D02*
X210281329Y-85358523D01*
X210281329Y-85358523D02*
X210162282Y-85120428D01*
X210162282Y-85120428D02*
X209924186Y-85001380D01*
X209924186Y-85001380D02*
X209447996Y-85001380D01*
X209447996Y-85001380D02*
X209209901Y-85120428D01*
X210281329Y-86549000D02*
X210043234Y-86668047D01*
X210043234Y-86668047D02*
X209447996Y-86668047D01*
X209447996Y-86668047D02*
X209209901Y-86549000D01*
X209209901Y-86549000D02*
X209090853Y-86310904D01*
X209090853Y-86310904D02*
X209090853Y-86072809D01*
X209090853Y-86072809D02*
X209209901Y-85834714D01*
X209209901Y-85834714D02*
X209447996Y-85715666D01*
X209447996Y-85715666D02*
X210043234Y-85715666D01*
X210043234Y-85715666D02*
X210281329Y-85596619D01*
X211471806Y-86668047D02*
X211471806Y-85001380D01*
X211471806Y-84168047D02*
X211352758Y-84287095D01*
X211352758Y-84287095D02*
X211471806Y-84406142D01*
X211471806Y-84406142D02*
X211590853Y-84287095D01*
X211590853Y-84287095D02*
X211471806Y-84168047D01*
X211471806Y-84168047D02*
X211471806Y-84406142D01*
X213019424Y-86668047D02*
X212781329Y-86549000D01*
X212781329Y-86549000D02*
X212662282Y-86310904D01*
X212662282Y-86310904D02*
X212662282Y-84168047D01*
X213971806Y-86429952D02*
X214090853Y-86549000D01*
X214090853Y-86549000D02*
X213971806Y-86668047D01*
X213971806Y-86668047D02*
X213852758Y-86549000D01*
X213852758Y-86549000D02*
X213971806Y-86429952D01*
X213971806Y-86429952D02*
X213971806Y-86668047D01*
X216233710Y-86549000D02*
X215995615Y-86668047D01*
X215995615Y-86668047D02*
X215519424Y-86668047D01*
X215519424Y-86668047D02*
X215281329Y-86549000D01*
X215281329Y-86549000D02*
X215162282Y-86429952D01*
X215162282Y-86429952D02*
X215043234Y-86191857D01*
X215043234Y-86191857D02*
X215043234Y-85477571D01*
X215043234Y-85477571D02*
X215162282Y-85239476D01*
X215162282Y-85239476D02*
X215281329Y-85120428D01*
X215281329Y-85120428D02*
X215519424Y-85001380D01*
X215519424Y-85001380D02*
X215995615Y-85001380D01*
X215995615Y-85001380D02*
X216233710Y-85120428D01*
X217662281Y-86668047D02*
X217424186Y-86549000D01*
X217424186Y-86549000D02*
X217305139Y-86429952D01*
X217305139Y-86429952D02*
X217186091Y-86191857D01*
X217186091Y-86191857D02*
X217186091Y-85477571D01*
X217186091Y-85477571D02*
X217305139Y-85239476D01*
X217305139Y-85239476D02*
X217424186Y-85120428D01*
X217424186Y-85120428D02*
X217662281Y-85001380D01*
X217662281Y-85001380D02*
X218019424Y-85001380D01*
X218019424Y-85001380D02*
X218257520Y-85120428D01*
X218257520Y-85120428D02*
X218376567Y-85239476D01*
X218376567Y-85239476D02*
X218495615Y-85477571D01*
X218495615Y-85477571D02*
X218495615Y-86191857D01*
X218495615Y-86191857D02*
X218376567Y-86429952D01*
X218376567Y-86429952D02*
X218257520Y-86549000D01*
X218257520Y-86549000D02*
X218019424Y-86668047D01*
X218019424Y-86668047D02*
X217662281Y-86668047D01*
X219567044Y-86668047D02*
X219567044Y-85001380D01*
X219567044Y-85239476D02*
X219686091Y-85120428D01*
X219686091Y-85120428D02*
X219924186Y-85001380D01*
X219924186Y-85001380D02*
X220281329Y-85001380D01*
X220281329Y-85001380D02*
X220519425Y-85120428D01*
X220519425Y-85120428D02*
X220638472Y-85358523D01*
X220638472Y-85358523D02*
X220638472Y-86668047D01*
X220638472Y-85358523D02*
X220757520Y-85120428D01*
X220757520Y-85120428D02*
X220995615Y-85001380D01*
X220995615Y-85001380D02*
X221352758Y-85001380D01*
X221352758Y-85001380D02*
X221590853Y-85120428D01*
X221590853Y-85120428D02*
X221709901Y-85358523D01*
X221709901Y-85358523D02*
X221709901Y-86668047D01*
X221671068Y-113028931D02*
X242800000Y-112900000D01*
X252800000Y-102900000D02*
G75*
G02*
X242800000Y-112900000I-9999999J-1D01*
G01*
X252671068Y-81771068D02*
X252799999Y-102900000D01*
X203500000Y-62042137D02*
X182371068Y-62171068D01*
X172500000Y-93300000D02*
X172371069Y-72171068D01*
X172371068Y-72171068D02*
G75*
G02*
X182371068Y-62171068I9999999J1D01*
G01*
D11*
X181276941Y-66336095D02*
X181276941Y-69907523D01*
X181276941Y-69907523D02*
X181038846Y-70621809D01*
X181038846Y-70621809D02*
X180562655Y-71098000D01*
X180562655Y-71098000D02*
X179848370Y-71336095D01*
X179848370Y-71336095D02*
X179372179Y-71336095D01*
X183657894Y-66336095D02*
X183657894Y-70383714D01*
X183657894Y-70383714D02*
X183895989Y-70859904D01*
X183895989Y-70859904D02*
X184134084Y-71098000D01*
X184134084Y-71098000D02*
X184610275Y-71336095D01*
X184610275Y-71336095D02*
X185562656Y-71336095D01*
X185562656Y-71336095D02*
X186038846Y-71098000D01*
X186038846Y-71098000D02*
X186276941Y-70859904D01*
X186276941Y-70859904D02*
X186515037Y-70383714D01*
X186515037Y-70383714D02*
X186515037Y-66336095D01*
X188895989Y-71336095D02*
X188895989Y-66336095D01*
X188895989Y-66336095D02*
X190086465Y-66336095D01*
X190086465Y-66336095D02*
X190800751Y-66574190D01*
X190800751Y-66574190D02*
X191276941Y-67050380D01*
X191276941Y-67050380D02*
X191515036Y-67526571D01*
X191515036Y-67526571D02*
X191753132Y-68478952D01*
X191753132Y-68478952D02*
X191753132Y-69193238D01*
X191753132Y-69193238D02*
X191515036Y-70145619D01*
X191515036Y-70145619D02*
X191276941Y-70621809D01*
X191276941Y-70621809D02*
X190800751Y-71098000D01*
X190800751Y-71098000D02*
X190086465Y-71336095D01*
X190086465Y-71336095D02*
X188895989Y-71336095D01*
X193657893Y-71098000D02*
X194372179Y-71336095D01*
X194372179Y-71336095D02*
X195562655Y-71336095D01*
X195562655Y-71336095D02*
X196038846Y-71098000D01*
X196038846Y-71098000D02*
X196276941Y-70859904D01*
X196276941Y-70859904D02*
X196515036Y-70383714D01*
X196515036Y-70383714D02*
X196515036Y-69907523D01*
X196515036Y-69907523D02*
X196276941Y-69431333D01*
X196276941Y-69431333D02*
X196038846Y-69193238D01*
X196038846Y-69193238D02*
X195562655Y-68955142D01*
X195562655Y-68955142D02*
X194610274Y-68717047D01*
X194610274Y-68717047D02*
X194134084Y-68478952D01*
X194134084Y-68478952D02*
X193895989Y-68240857D01*
X193895989Y-68240857D02*
X193657893Y-67764666D01*
X193657893Y-67764666D02*
X193657893Y-67288476D01*
X193657893Y-67288476D02*
X193895989Y-66812285D01*
X193895989Y-66812285D02*
X194134084Y-66574190D01*
X194134084Y-66574190D02*
X194610274Y-66336095D01*
X194610274Y-66336095D02*
X195800751Y-66336095D01*
X195800751Y-66336095D02*
X196515036Y-66574190D01*
X199610275Y-66336095D02*
X200562656Y-66336095D01*
X200562656Y-66336095D02*
X201038846Y-66574190D01*
X201038846Y-66574190D02*
X201515037Y-67050380D01*
X201515037Y-67050380D02*
X201753132Y-68002761D01*
X201753132Y-68002761D02*
X201753132Y-69669428D01*
X201753132Y-69669428D02*
X201515037Y-70621809D01*
X201515037Y-70621809D02*
X201038846Y-71098000D01*
X201038846Y-71098000D02*
X200562656Y-71336095D01*
X200562656Y-71336095D02*
X199610275Y-71336095D01*
X199610275Y-71336095D02*
X199134084Y-71098000D01*
X199134084Y-71098000D02*
X198657894Y-70621809D01*
X198657894Y-70621809D02*
X198419798Y-69669428D01*
X198419798Y-69669428D02*
X198419798Y-68002761D01*
X198419798Y-68002761D02*
X198657894Y-67050380D01*
X198657894Y-67050380D02*
X199134084Y-66574190D01*
X199134084Y-66574190D02*
X199610275Y-66336095D01*
X203895989Y-71336095D02*
X203895989Y-66336095D01*
X203895989Y-66336095D02*
X206753132Y-71336095D01*
X206753132Y-71336095D02*
X206753132Y-66336095D01*
X212705512Y-69907523D02*
X215086465Y-69907523D01*
X212229322Y-71336095D02*
X213895989Y-66336095D01*
X213895989Y-66336095D02*
X215562655Y-71336095D01*
X217229322Y-71336095D02*
X217229322Y-66336095D01*
X217229322Y-66336095D02*
X220086465Y-71336095D01*
X220086465Y-71336095D02*
X220086465Y-66336095D01*
X221753131Y-66336095D02*
X224610274Y-66336095D01*
X223181702Y-71336095D02*
X223181702Y-66336095D01*
X226276941Y-66336095D02*
X226276941Y-70383714D01*
X226276941Y-70383714D02*
X226515036Y-70859904D01*
X226515036Y-70859904D02*
X226753131Y-71098000D01*
X226753131Y-71098000D02*
X227229322Y-71336095D01*
X227229322Y-71336095D02*
X228181703Y-71336095D01*
X228181703Y-71336095D02*
X228657893Y-71098000D01*
X228657893Y-71098000D02*
X228895988Y-70859904D01*
X228895988Y-70859904D02*
X229134084Y-70383714D01*
X229134084Y-70383714D02*
X229134084Y-66336095D01*
D12*
X179854510Y-113400828D02*
X179854510Y-111900828D01*
X180711653Y-113400828D02*
X180068796Y-112543685D01*
X180711653Y-111900828D02*
X179854510Y-112757971D01*
X181354510Y-112400828D02*
X181354510Y-113400828D01*
X181354510Y-112543685D02*
X181425939Y-112472257D01*
X181425939Y-112472257D02*
X181568796Y-112400828D01*
X181568796Y-112400828D02*
X181783082Y-112400828D01*
X181783082Y-112400828D02*
X181925939Y-112472257D01*
X181925939Y-112472257D02*
X181997368Y-112615114D01*
X181997368Y-112615114D02*
X181997368Y-113400828D01*
X182925939Y-113400828D02*
X182783082Y-113329400D01*
X182783082Y-113329400D02*
X182711653Y-113257971D01*
X182711653Y-113257971D02*
X182640225Y-113115114D01*
X182640225Y-113115114D02*
X182640225Y-112686542D01*
X182640225Y-112686542D02*
X182711653Y-112543685D01*
X182711653Y-112543685D02*
X182783082Y-112472257D01*
X182783082Y-112472257D02*
X182925939Y-112400828D01*
X182925939Y-112400828D02*
X183140225Y-112400828D01*
X183140225Y-112400828D02*
X183283082Y-112472257D01*
X183283082Y-112472257D02*
X183354511Y-112543685D01*
X183354511Y-112543685D02*
X183425939Y-112686542D01*
X183425939Y-112686542D02*
X183425939Y-113115114D01*
X183425939Y-113115114D02*
X183354511Y-113257971D01*
X183354511Y-113257971D02*
X183283082Y-113329400D01*
X183283082Y-113329400D02*
X183140225Y-113400828D01*
X183140225Y-113400828D02*
X182925939Y-113400828D01*
X183925939Y-112400828D02*
X184211654Y-113400828D01*
X184211654Y-113400828D02*
X184497368Y-112686542D01*
X184497368Y-112686542D02*
X184783082Y-113400828D01*
X184783082Y-113400828D02*
X185068796Y-112400828D01*
X186783082Y-113400828D02*
X186783082Y-112400828D01*
X186783082Y-112543685D02*
X186854511Y-112472257D01*
X186854511Y-112472257D02*
X186997368Y-112400828D01*
X186997368Y-112400828D02*
X187211654Y-112400828D01*
X187211654Y-112400828D02*
X187354511Y-112472257D01*
X187354511Y-112472257D02*
X187425940Y-112615114D01*
X187425940Y-112615114D02*
X187425940Y-113400828D01*
X187425940Y-112615114D02*
X187497368Y-112472257D01*
X187497368Y-112472257D02*
X187640225Y-112400828D01*
X187640225Y-112400828D02*
X187854511Y-112400828D01*
X187854511Y-112400828D02*
X187997368Y-112472257D01*
X187997368Y-112472257D02*
X188068797Y-112615114D01*
X188068797Y-112615114D02*
X188068797Y-113400828D01*
X188997368Y-113400828D02*
X188854511Y-113329400D01*
X188854511Y-113329400D02*
X188783082Y-113257971D01*
X188783082Y-113257971D02*
X188711654Y-113115114D01*
X188711654Y-113115114D02*
X188711654Y-112686542D01*
X188711654Y-112686542D02*
X188783082Y-112543685D01*
X188783082Y-112543685D02*
X188854511Y-112472257D01*
X188854511Y-112472257D02*
X188997368Y-112400828D01*
X188997368Y-112400828D02*
X189211654Y-112400828D01*
X189211654Y-112400828D02*
X189354511Y-112472257D01*
X189354511Y-112472257D02*
X189425940Y-112543685D01*
X189425940Y-112543685D02*
X189497368Y-112686542D01*
X189497368Y-112686542D02*
X189497368Y-113115114D01*
X189497368Y-113115114D02*
X189425940Y-113257971D01*
X189425940Y-113257971D02*
X189354511Y-113329400D01*
X189354511Y-113329400D02*
X189211654Y-113400828D01*
X189211654Y-113400828D02*
X188997368Y-113400828D01*
X190140225Y-113400828D02*
X190140225Y-112400828D01*
X190140225Y-112686542D02*
X190211654Y-112543685D01*
X190211654Y-112543685D02*
X190283083Y-112472257D01*
X190283083Y-112472257D02*
X190425940Y-112400828D01*
X190425940Y-112400828D02*
X190568797Y-112400828D01*
X191640225Y-113329400D02*
X191497368Y-113400828D01*
X191497368Y-113400828D02*
X191211654Y-113400828D01*
X191211654Y-113400828D02*
X191068796Y-113329400D01*
X191068796Y-113329400D02*
X190997368Y-113186542D01*
X190997368Y-113186542D02*
X190997368Y-112615114D01*
X190997368Y-112615114D02*
X191068796Y-112472257D01*
X191068796Y-112472257D02*
X191211654Y-112400828D01*
X191211654Y-112400828D02*
X191497368Y-112400828D01*
X191497368Y-112400828D02*
X191640225Y-112472257D01*
X191640225Y-112472257D02*
X191711654Y-112615114D01*
X191711654Y-112615114D02*
X191711654Y-112757971D01*
X191711654Y-112757971D02*
X190997368Y-112900828D01*
X194140225Y-113400828D02*
X194140225Y-112615114D01*
X194140225Y-112615114D02*
X194068796Y-112472257D01*
X194068796Y-112472257D02*
X193925939Y-112400828D01*
X193925939Y-112400828D02*
X193640225Y-112400828D01*
X193640225Y-112400828D02*
X193497367Y-112472257D01*
X194140225Y-113329400D02*
X193997367Y-113400828D01*
X193997367Y-113400828D02*
X193640225Y-113400828D01*
X193640225Y-113400828D02*
X193497367Y-113329400D01*
X193497367Y-113329400D02*
X193425939Y-113186542D01*
X193425939Y-113186542D02*
X193425939Y-113043685D01*
X193425939Y-113043685D02*
X193497367Y-112900828D01*
X193497367Y-112900828D02*
X193640225Y-112829400D01*
X193640225Y-112829400D02*
X193997367Y-112829400D01*
X193997367Y-112829400D02*
X194140225Y-112757971D01*
X194854510Y-113400828D02*
X194854510Y-111900828D01*
X194854510Y-112472257D02*
X194997368Y-112400828D01*
X194997368Y-112400828D02*
X195283082Y-112400828D01*
X195283082Y-112400828D02*
X195425939Y-112472257D01*
X195425939Y-112472257D02*
X195497368Y-112543685D01*
X195497368Y-112543685D02*
X195568796Y-112686542D01*
X195568796Y-112686542D02*
X195568796Y-113115114D01*
X195568796Y-113115114D02*
X195497368Y-113257971D01*
X195497368Y-113257971D02*
X195425939Y-113329400D01*
X195425939Y-113329400D02*
X195283082Y-113400828D01*
X195283082Y-113400828D02*
X194997368Y-113400828D01*
X194997368Y-113400828D02*
X194854510Y-113329400D01*
X196425939Y-113400828D02*
X196283082Y-113329400D01*
X196283082Y-113329400D02*
X196211653Y-113257971D01*
X196211653Y-113257971D02*
X196140225Y-113115114D01*
X196140225Y-113115114D02*
X196140225Y-112686542D01*
X196140225Y-112686542D02*
X196211653Y-112543685D01*
X196211653Y-112543685D02*
X196283082Y-112472257D01*
X196283082Y-112472257D02*
X196425939Y-112400828D01*
X196425939Y-112400828D02*
X196640225Y-112400828D01*
X196640225Y-112400828D02*
X196783082Y-112472257D01*
X196783082Y-112472257D02*
X196854511Y-112543685D01*
X196854511Y-112543685D02*
X196925939Y-112686542D01*
X196925939Y-112686542D02*
X196925939Y-113115114D01*
X196925939Y-113115114D02*
X196854511Y-113257971D01*
X196854511Y-113257971D02*
X196783082Y-113329400D01*
X196783082Y-113329400D02*
X196640225Y-113400828D01*
X196640225Y-113400828D02*
X196425939Y-113400828D01*
X198211654Y-112400828D02*
X198211654Y-113400828D01*
X197568796Y-112400828D02*
X197568796Y-113186542D01*
X197568796Y-113186542D02*
X197640225Y-113329400D01*
X197640225Y-113329400D02*
X197783082Y-113400828D01*
X197783082Y-113400828D02*
X197997368Y-113400828D01*
X197997368Y-113400828D02*
X198140225Y-113329400D01*
X198140225Y-113329400D02*
X198211654Y-113257971D01*
X198711654Y-112400828D02*
X199283082Y-112400828D01*
X198925939Y-111900828D02*
X198925939Y-113186542D01*
X198925939Y-113186542D02*
X198997368Y-113329400D01*
X198997368Y-113329400D02*
X199140225Y-113400828D01*
X199140225Y-113400828D02*
X199283082Y-113400828D01*
X200925939Y-113400828D02*
X200925939Y-112400828D01*
X200925939Y-112543685D02*
X200997368Y-112472257D01*
X200997368Y-112472257D02*
X201140225Y-112400828D01*
X201140225Y-112400828D02*
X201354511Y-112400828D01*
X201354511Y-112400828D02*
X201497368Y-112472257D01*
X201497368Y-112472257D02*
X201568797Y-112615114D01*
X201568797Y-112615114D02*
X201568797Y-113400828D01*
X201568797Y-112615114D02*
X201640225Y-112472257D01*
X201640225Y-112472257D02*
X201783082Y-112400828D01*
X201783082Y-112400828D02*
X201997368Y-112400828D01*
X201997368Y-112400828D02*
X202140225Y-112472257D01*
X202140225Y-112472257D02*
X202211654Y-112615114D01*
X202211654Y-112615114D02*
X202211654Y-113400828D01*
X203497368Y-113329400D02*
X203354511Y-113400828D01*
X203354511Y-113400828D02*
X203068797Y-113400828D01*
X203068797Y-113400828D02*
X202925939Y-113329400D01*
X202925939Y-113329400D02*
X202854511Y-113186542D01*
X202854511Y-113186542D02*
X202854511Y-112615114D01*
X202854511Y-112615114D02*
X202925939Y-112472257D01*
X202925939Y-112472257D02*
X203068797Y-112400828D01*
X203068797Y-112400828D02*
X203354511Y-112400828D01*
X203354511Y-112400828D02*
X203497368Y-112472257D01*
X203497368Y-112472257D02*
X203568797Y-112615114D01*
X203568797Y-112615114D02*
X203568797Y-112757971D01*
X203568797Y-112757971D02*
X202854511Y-112900828D01*
X204211653Y-113257971D02*
X204283082Y-113329400D01*
X204283082Y-113329400D02*
X204211653Y-113400828D01*
X204211653Y-113400828D02*
X204140225Y-113329400D01*
X204140225Y-113329400D02*
X204211653Y-113257971D01*
X204211653Y-113257971D02*
X204211653Y-113400828D01*
X204211653Y-112829400D02*
X204140225Y-111972257D01*
X204140225Y-111972257D02*
X204211653Y-111900828D01*
X204211653Y-111900828D02*
X204283082Y-111972257D01*
X204283082Y-111972257D02*
X204211653Y-112829400D01*
X204211653Y-112829400D02*
X204211653Y-111900828D01*
X204925939Y-113257971D02*
X204997368Y-113329400D01*
X204997368Y-113329400D02*
X204925939Y-113400828D01*
X204925939Y-113400828D02*
X204854511Y-113329400D01*
X204854511Y-113329400D02*
X204925939Y-113257971D01*
X204925939Y-113257971D02*
X204925939Y-113400828D01*
X204925939Y-112829400D02*
X204854511Y-111972257D01*
X204854511Y-111972257D02*
X204925939Y-111900828D01*
X204925939Y-111900828D02*
X204997368Y-111972257D01*
X204997368Y-111972257D02*
X204925939Y-112829400D01*
X204925939Y-112829400D02*
X204925939Y-111900828D01*
X205640225Y-113257971D02*
X205711654Y-113329400D01*
X205711654Y-113329400D02*
X205640225Y-113400828D01*
X205640225Y-113400828D02*
X205568797Y-113329400D01*
X205568797Y-113329400D02*
X205640225Y-113257971D01*
X205640225Y-113257971D02*
X205640225Y-113400828D01*
X205640225Y-112829400D02*
X205568797Y-111972257D01*
X205568797Y-111972257D02*
X205640225Y-111900828D01*
X205640225Y-111900828D02*
X205711654Y-111972257D01*
X205711654Y-111972257D02*
X205640225Y-112829400D01*
X205640225Y-112829400D02*
X205640225Y-111900828D01*
D13*
%TO.C,G\u002A\u002A\u002A*%
G36*
X185389769Y-108610086D02*
G01*
X185389769Y-111409942D01*
X182589913Y-111409942D01*
X179790058Y-111409942D01*
X179790058Y-110604755D01*
X180595245Y-110604755D01*
X182589913Y-110604755D01*
X184584582Y-110604755D01*
X184584582Y-108610086D01*
X184584582Y-106615418D01*
X182589913Y-106615418D01*
X180595245Y-106615418D01*
X180595245Y-108610086D01*
X180595245Y-110604755D01*
X179790058Y-110604755D01*
X179790058Y-108610086D01*
X179790058Y-105810230D01*
X182589913Y-105810230D01*
X185389769Y-105810230D01*
X185389769Y-108610086D01*
G37*
G36*
X199809942Y-99002738D02*
G01*
X199809942Y-100210519D01*
X199407349Y-100210519D01*
X199004755Y-100210519D01*
X199004755Y-99807925D01*
X199004755Y-99405331D01*
X198602161Y-99405331D01*
X198199568Y-99405331D01*
X198199568Y-99807925D01*
X198199568Y-100210519D01*
X197796974Y-100210519D01*
X197394380Y-100210519D01*
X197394380Y-100613112D01*
X197394380Y-101015706D01*
X196607493Y-101015706D01*
X195820605Y-101015706D01*
X195820605Y-101802594D01*
X195820605Y-102589481D01*
X195418011Y-102589481D01*
X195015418Y-102589481D01*
X195015418Y-102992075D01*
X195015418Y-103394668D01*
X195802305Y-103394668D01*
X196589193Y-103394668D01*
X196589193Y-102992075D01*
X196589193Y-102589481D01*
X197394380Y-102589481D01*
X198199568Y-102589481D01*
X198199568Y-102186887D01*
X198199568Y-101784294D01*
X198602161Y-101784294D01*
X199004755Y-101784294D01*
X199004755Y-101400000D01*
X199004755Y-101015706D01*
X199407349Y-101015706D01*
X199809942Y-101015706D01*
X199809942Y-102205187D01*
X199809942Y-103394668D01*
X199407349Y-103394668D01*
X199004755Y-103394668D01*
X199004755Y-102992075D01*
X199004755Y-102589481D01*
X198602161Y-102589481D01*
X198199568Y-102589481D01*
X198199568Y-102992075D01*
X198199568Y-103394668D01*
X197796974Y-103394668D01*
X197394380Y-103394668D01*
X197394380Y-103797262D01*
X197394380Y-104199856D01*
X196991787Y-104199856D01*
X196589193Y-104199856D01*
X196589193Y-106597118D01*
X196589193Y-108994380D01*
X196991787Y-108994380D01*
X197394380Y-108994380D01*
X197394380Y-108591787D01*
X197394380Y-108189193D01*
X198199568Y-108189193D01*
X199004755Y-108189193D01*
X199004755Y-107804899D01*
X199004755Y-107420605D01*
X198602161Y-107420605D01*
X198199568Y-107420605D01*
X198199568Y-107018011D01*
X198199568Y-106615418D01*
X198602161Y-106615418D01*
X199004755Y-106615418D01*
X199004755Y-105810230D01*
X199004755Y-105005043D01*
X199407349Y-105005043D01*
X199809942Y-105005043D01*
X199809942Y-106597118D01*
X199809942Y-108189193D01*
X199407349Y-108189193D01*
X199004755Y-108189193D01*
X199004755Y-108591787D01*
X199004755Y-108994380D01*
X199407349Y-108994380D01*
X199809942Y-108994380D01*
X199809942Y-109396974D01*
X199809942Y-109799568D01*
X199004755Y-109799568D01*
X198199568Y-109799568D01*
X198199568Y-109396974D01*
X198199568Y-108994380D01*
X197796974Y-108994380D01*
X197394380Y-108994380D01*
X197394380Y-109396974D01*
X197394380Y-109799568D01*
X196991787Y-109799568D01*
X196589193Y-109799568D01*
X196589193Y-110202161D01*
X196589193Y-110604755D01*
X195802305Y-110604755D01*
X195015418Y-110604755D01*
X195015418Y-109799568D01*
X195015418Y-108994380D01*
X195418011Y-108994380D01*
X195820605Y-108994380D01*
X195820605Y-108591787D01*
X195820605Y-108189193D01*
X195015418Y-108189193D01*
X194210230Y-108189193D01*
X194210230Y-108591787D01*
X194210230Y-108994380D01*
X193002449Y-108994380D01*
X191794668Y-108994380D01*
X191794668Y-108591787D01*
X191794668Y-108189193D01*
X191392075Y-108189193D01*
X190989481Y-108189193D01*
X190989481Y-108591787D01*
X190989481Y-108994380D01*
X190586887Y-108994380D01*
X190184294Y-108994380D01*
X190184294Y-109799568D01*
X190184294Y-110604755D01*
X190586887Y-110604755D01*
X190989481Y-110604755D01*
X190989481Y-110202161D01*
X190989481Y-109799568D01*
X191392075Y-109799568D01*
X191794668Y-109799568D01*
X191794668Y-110604755D01*
X191794668Y-111409942D01*
X190605187Y-111409942D01*
X189415706Y-111409942D01*
X189415706Y-111007349D01*
X189415706Y-110604755D01*
X189013112Y-110604755D01*
X188610519Y-110604755D01*
X188610519Y-111007349D01*
X188610519Y-111409942D01*
X187402738Y-111409942D01*
X186194957Y-111409942D01*
X186194957Y-110202161D01*
X186194957Y-108994380D01*
X187000144Y-108994380D01*
X187805331Y-108994380D01*
X187805331Y-109396974D01*
X187805331Y-109799568D01*
X188610519Y-109799568D01*
X189415706Y-109799568D01*
X189415706Y-108994380D01*
X189415706Y-108189193D01*
X189013112Y-108189193D01*
X188610519Y-108189193D01*
X188610519Y-107804899D01*
X188610519Y-107420605D01*
X189397406Y-107420605D01*
X190184294Y-107420605D01*
X190184294Y-107804899D01*
X190184294Y-108189193D01*
X190586887Y-108189193D01*
X190989481Y-108189193D01*
X190989481Y-107420605D01*
X193405043Y-107420605D01*
X194612824Y-107420605D01*
X195820605Y-107420605D01*
X195820605Y-106212824D01*
X195820605Y-105005043D01*
X194612824Y-105005043D01*
X193405043Y-105005043D01*
X193405043Y-106212824D01*
X193405043Y-107420605D01*
X190989481Y-107420605D01*
X190989481Y-107402305D01*
X190989481Y-106615418D01*
X191794668Y-106615418D01*
X192599856Y-106615418D01*
X192599856Y-106212824D01*
X192599856Y-105407637D01*
X192599856Y-104199856D01*
X191794668Y-104199856D01*
X190989481Y-104199856D01*
X190989481Y-103797262D01*
X190989481Y-103394668D01*
X191392075Y-103394668D01*
X191794668Y-103394668D01*
X191794668Y-102205187D01*
X191794668Y-101015706D01*
X192599856Y-101015706D01*
X193405043Y-101015706D01*
X193405043Y-102607781D01*
X193405043Y-104199856D01*
X194210230Y-104199856D01*
X195015418Y-104199856D01*
X195015418Y-103797262D01*
X195015418Y-103394668D01*
X194612824Y-103394668D01*
X194210230Y-103394668D01*
X194210230Y-102205187D01*
X194210230Y-101015706D01*
X195015418Y-101015706D01*
X195820605Y-101015706D01*
X195820605Y-100613112D01*
X195820605Y-100210519D01*
X196204899Y-100210519D01*
X196589193Y-100210519D01*
X196589193Y-99405331D01*
X196589193Y-98600144D01*
X196991787Y-98600144D01*
X197394380Y-98600144D01*
X197394380Y-99002738D01*
X197394380Y-99405331D01*
X197796974Y-99405331D01*
X198199568Y-99405331D01*
X198199568Y-98600144D01*
X198199568Y-97794957D01*
X199004755Y-97794957D01*
X199809942Y-97794957D01*
X199809942Y-99002738D01*
G37*
G36*
X197394380Y-111007349D02*
G01*
X197394380Y-111409942D01*
X196991787Y-111409942D01*
X196589193Y-111409942D01*
X196589193Y-111007349D01*
X196589193Y-110604755D01*
X196991787Y-110604755D01*
X197394380Y-110604755D01*
X197394380Y-111007349D01*
G37*
G36*
X187805331Y-101400000D02*
G01*
X187805331Y-102589481D01*
X187402738Y-102589481D01*
X187000144Y-102589481D01*
X187000144Y-102992075D01*
X187000144Y-103394668D01*
X186597550Y-103394668D01*
X186194957Y-103394668D01*
X186194957Y-103797262D01*
X186194957Y-104199856D01*
X187000144Y-104199856D01*
X187805331Y-104199856D01*
X187805331Y-105005043D01*
X187805331Y-105810230D01*
X188610519Y-105810230D01*
X189415706Y-105810230D01*
X189415706Y-106212824D01*
X189415706Y-106615418D01*
X189013112Y-106615418D01*
X188610519Y-106615418D01*
X188610519Y-107018011D01*
X188610519Y-107420605D01*
X188207925Y-107420605D01*
X187805331Y-107420605D01*
X187805331Y-107804899D01*
X187805331Y-108189193D01*
X187402738Y-108189193D01*
X187000144Y-108189193D01*
X187000144Y-107804899D01*
X187000144Y-107420605D01*
X186597550Y-107420605D01*
X186194957Y-107420605D01*
X186194957Y-107018011D01*
X186194957Y-106615418D01*
X186597550Y-106615418D01*
X187000144Y-106615418D01*
X187000144Y-106212824D01*
X187000144Y-105810230D01*
X186597550Y-105810230D01*
X186194957Y-105810230D01*
X186194957Y-105407637D01*
X186194957Y-105005043D01*
X184987176Y-105005043D01*
X183779395Y-105005043D01*
X183779395Y-104199856D01*
X184584582Y-104199856D01*
X184987176Y-104199856D01*
X185389769Y-104199856D01*
X185389769Y-103797262D01*
X185389769Y-103394668D01*
X184987176Y-103394668D01*
X184584582Y-103394668D01*
X184584582Y-103797262D01*
X184584582Y-104199856D01*
X183779395Y-104199856D01*
X183779395Y-103797262D01*
X183779395Y-102589481D01*
X183395101Y-102589481D01*
X183010807Y-102589481D01*
X183010807Y-101802594D01*
X183010807Y-101015706D01*
X184200288Y-101015706D01*
X185389769Y-101015706D01*
X185389769Y-101400000D01*
X185389769Y-101784294D01*
X184987176Y-101784294D01*
X184584582Y-101784294D01*
X184584582Y-102186887D01*
X184584582Y-102589481D01*
X184987176Y-102589481D01*
X185389769Y-102589481D01*
X185389769Y-102992075D01*
X185389769Y-103394668D01*
X185792363Y-103394668D01*
X186194957Y-103394668D01*
X186194957Y-102992075D01*
X186194957Y-102589481D01*
X186597550Y-102589481D01*
X187000144Y-102589481D01*
X187000144Y-102186887D01*
X187000144Y-101784294D01*
X186597550Y-101784294D01*
X186194957Y-101784294D01*
X186194957Y-100997406D01*
X186194957Y-100210519D01*
X187000144Y-100210519D01*
X187805331Y-100210519D01*
X187805331Y-101400000D01*
G37*
G36*
X199004755Y-104602449D02*
G01*
X199004755Y-105005043D01*
X198602161Y-105005043D01*
X198199568Y-105005043D01*
X198199568Y-104602449D01*
X198199568Y-104199856D01*
X198602161Y-104199856D01*
X199004755Y-104199856D01*
X199004755Y-104602449D01*
G37*
G36*
X187000144Y-91792651D02*
G01*
X187000144Y-92195245D01*
X187805331Y-92195245D01*
X188610519Y-92195245D01*
X188610519Y-91792651D01*
X188610519Y-91390058D01*
X189800000Y-91390058D01*
X190989481Y-91390058D01*
X190989481Y-91792651D01*
X190989481Y-92195245D01*
X190586887Y-92195245D01*
X190184294Y-92195245D01*
X190184294Y-92597838D01*
X190184294Y-93000432D01*
X190586887Y-93000432D01*
X190989481Y-93000432D01*
X190989481Y-92597838D01*
X190989481Y-92195245D01*
X191392075Y-92195245D01*
X191794668Y-92195245D01*
X191794668Y-92597838D01*
X191794668Y-93000432D01*
X191392075Y-93000432D01*
X190989481Y-93000432D01*
X190989481Y-93805619D01*
X190989481Y-94610807D01*
X190586887Y-94610807D01*
X190184294Y-94610807D01*
X190184294Y-94208213D01*
X190184294Y-93805619D01*
X189397406Y-93805619D01*
X188610519Y-93805619D01*
X188610519Y-94208213D01*
X188610519Y-94610807D01*
X189013112Y-94610807D01*
X189415706Y-94610807D01*
X189415706Y-95397694D01*
X189415706Y-96184582D01*
X189013112Y-96184582D01*
X188610519Y-96184582D01*
X188610519Y-95781988D01*
X188610519Y-95379395D01*
X187805331Y-95379395D01*
X187000144Y-95379395D01*
X187000144Y-96587176D01*
X187000144Y-97794957D01*
X187402738Y-97794957D01*
X187805331Y-97794957D01*
X187805331Y-96989769D01*
X187805331Y-96184582D01*
X188207925Y-96184582D01*
X188610519Y-96184582D01*
X188610519Y-96587176D01*
X188610519Y-96989769D01*
X189013112Y-96989769D01*
X189415706Y-96989769D01*
X189415706Y-96587176D01*
X189415706Y-96184582D01*
X189800000Y-96184582D01*
X190184294Y-96184582D01*
X190184294Y-95781988D01*
X190184294Y-95379395D01*
X190586887Y-95379395D01*
X190989481Y-95379395D01*
X190989481Y-94995101D01*
X190989481Y-94610807D01*
X191392075Y-94610807D01*
X191794668Y-94610807D01*
X191794668Y-95800288D01*
X191794668Y-96989769D01*
X192197262Y-96989769D01*
X192599856Y-96989769D01*
X192599856Y-96587176D01*
X192599856Y-96184582D01*
X193002449Y-96184582D01*
X193405043Y-96184582D01*
X193405043Y-96989769D01*
X193405043Y-97794957D01*
X194997118Y-97794957D01*
X196589193Y-97794957D01*
X196589193Y-98197550D01*
X196589193Y-98600144D01*
X196204899Y-98600144D01*
X195820605Y-98600144D01*
X195820605Y-99405331D01*
X195820605Y-100210519D01*
X195015418Y-100210519D01*
X194210230Y-100210519D01*
X194210230Y-99807925D01*
X194210230Y-99405331D01*
X193405043Y-99405331D01*
X192599856Y-99405331D01*
X192599856Y-99807925D01*
X192599856Y-100210519D01*
X192197262Y-100210519D01*
X191794668Y-100210519D01*
X191794668Y-100613112D01*
X191794668Y-101015706D01*
X191392075Y-101015706D01*
X190989481Y-101015706D01*
X190989481Y-100210519D01*
X190989481Y-99405331D01*
X191392075Y-99405331D01*
X191794668Y-99405331D01*
X191794668Y-99002738D01*
X191794668Y-98600144D01*
X192197262Y-98600144D01*
X192599856Y-98600144D01*
X192599856Y-98197550D01*
X192599856Y-97794957D01*
X192197262Y-97794957D01*
X191794668Y-97794957D01*
X191794668Y-97392363D01*
X191794668Y-96989769D01*
X191392075Y-96989769D01*
X190989481Y-96989769D01*
X190989481Y-96587176D01*
X190989481Y-96184582D01*
X190586887Y-96184582D01*
X190184294Y-96184582D01*
X190184294Y-96989769D01*
X190184294Y-97794957D01*
X189397406Y-97794957D01*
X188610519Y-97794957D01*
X188610519Y-98600144D01*
X188610519Y-99405331D01*
X187402738Y-99405331D01*
X186194957Y-99405331D01*
X186194957Y-99807925D01*
X186194957Y-100210519D01*
X185389769Y-100210519D01*
X184584582Y-100210519D01*
X184584582Y-99807925D01*
X184584582Y-99405331D01*
X184987176Y-99405331D01*
X185389769Y-99405331D01*
X185389769Y-99002738D01*
X185389769Y-98600144D01*
X184987176Y-98600144D01*
X184584582Y-98600144D01*
X184584582Y-99002738D01*
X184584582Y-99405331D01*
X184181988Y-99405331D01*
X183779395Y-99405331D01*
X183779395Y-99807925D01*
X183779395Y-100210519D01*
X183395101Y-100210519D01*
X183010807Y-100210519D01*
X183010807Y-99405331D01*
X183010807Y-99002738D01*
X183010807Y-98600144D01*
X183395101Y-98600144D01*
X183779395Y-98600144D01*
X183779395Y-98197550D01*
X183779395Y-97794957D01*
X184584582Y-97794957D01*
X185389769Y-97794957D01*
X185389769Y-98197550D01*
X185389769Y-98600144D01*
X185792363Y-98600144D01*
X186194957Y-98600144D01*
X186194957Y-96605475D01*
X186194957Y-94610807D01*
X187000144Y-94610807D01*
X187805331Y-94610807D01*
X187805331Y-93805619D01*
X187805331Y-93000432D01*
X188610519Y-93000432D01*
X189013112Y-93000432D01*
X189415706Y-93000432D01*
X189415706Y-92597838D01*
X189415706Y-92195245D01*
X189013112Y-92195245D01*
X188610519Y-92195245D01*
X188610519Y-92597838D01*
X188610519Y-93000432D01*
X187805331Y-93000432D01*
X187000144Y-93000432D01*
X186194957Y-93000432D01*
X186194957Y-92597838D01*
X186194957Y-92195245D01*
X186194957Y-91390058D01*
X186597550Y-91390058D01*
X187000144Y-91390058D01*
X187000144Y-91792651D01*
G37*
G36*
X193405043Y-94208213D02*
G01*
X193405043Y-94610807D01*
X193002449Y-94610807D01*
X192599856Y-94610807D01*
X192599856Y-94208213D01*
X192599856Y-93805619D01*
X193002449Y-93805619D01*
X193405043Y-93805619D01*
X193405043Y-94208213D01*
G37*
G36*
X192599856Y-93403026D02*
G01*
X192599856Y-93805619D01*
X192197262Y-93805619D01*
X191794668Y-93805619D01*
X191794668Y-93403026D01*
X191794668Y-93000432D01*
X192197262Y-93000432D01*
X192599856Y-93000432D01*
X192599856Y-93403026D01*
G37*
G36*
X193405043Y-110604755D02*
G01*
X193405043Y-111409942D01*
X193002449Y-111409942D01*
X192599856Y-111409942D01*
X192599856Y-110604755D01*
X192599856Y-109799568D01*
X193002449Y-109799568D01*
X193405043Y-109799568D01*
X193405043Y-110604755D01*
G37*
G36*
X199809942Y-111007349D02*
G01*
X199809942Y-111409942D01*
X199407349Y-111409942D01*
X199004755Y-111409942D01*
X199004755Y-111007349D01*
X199004755Y-110604755D01*
X199407349Y-110604755D01*
X199809942Y-110604755D01*
X199809942Y-111007349D01*
G37*
G36*
X183010807Y-104199856D02*
G01*
X183010807Y-105005043D01*
X181400432Y-105005043D01*
X179790058Y-105005043D01*
X179790058Y-104602449D01*
X179790058Y-104199856D01*
X180595245Y-104199856D01*
X181400432Y-104199856D01*
X181400432Y-103797262D01*
X181400432Y-103394668D01*
X182205619Y-103394668D01*
X183010807Y-103394668D01*
X183010807Y-104199856D01*
G37*
G36*
X181400432Y-102992075D02*
G01*
X181400432Y-103394668D01*
X180595245Y-103394668D01*
X179790058Y-103394668D01*
X179790058Y-102992075D01*
X179790058Y-102589481D01*
X180595245Y-102589481D01*
X181400432Y-102589481D01*
X181400432Y-102992075D01*
G37*
G36*
X182205619Y-98600144D02*
G01*
X182205619Y-99405331D01*
X181803026Y-99405331D01*
X181400432Y-99405331D01*
X181400432Y-100210519D01*
X181400432Y-101015706D01*
X181803026Y-101015706D01*
X182205619Y-101015706D01*
X182205619Y-101400000D01*
X182205619Y-101784294D01*
X180997838Y-101784294D01*
X179790058Y-101784294D01*
X179790058Y-101400000D01*
X179790058Y-101015706D01*
X180192651Y-101015706D01*
X180595245Y-101015706D01*
X180595245Y-99807925D01*
X180595245Y-98600144D01*
X180192651Y-98600144D01*
X179790058Y-98600144D01*
X179790058Y-98197550D01*
X179790058Y-97794957D01*
X180997838Y-97794957D01*
X182205619Y-97794957D01*
X182205619Y-98600144D01*
G37*
G36*
X185389769Y-94189913D02*
G01*
X185389769Y-96989769D01*
X182589913Y-96989769D01*
X179790058Y-96989769D01*
X179790058Y-96184582D01*
X180595245Y-96184582D01*
X182589913Y-96184582D01*
X184584582Y-96184582D01*
X184584582Y-94189913D01*
X184584582Y-92195245D01*
X182589913Y-92195245D01*
X180595245Y-92195245D01*
X180595245Y-94189913D01*
X180595245Y-96184582D01*
X179790058Y-96184582D01*
X179790058Y-94189913D01*
X179790058Y-91390058D01*
X182589913Y-91390058D01*
X185389769Y-91390058D01*
X185389769Y-94189913D01*
G37*
G36*
X199809942Y-94189913D02*
G01*
X199809942Y-96989769D01*
X197010086Y-96989769D01*
X194210230Y-96989769D01*
X194210230Y-96184582D01*
X195015418Y-96184582D01*
X197010086Y-96184582D01*
X199004755Y-96184582D01*
X199004755Y-94189913D01*
X199004755Y-92195245D01*
X197010086Y-92195245D01*
X195015418Y-92195245D01*
X195015418Y-94189913D01*
X195015418Y-96184582D01*
X194210230Y-96184582D01*
X194210230Y-94189913D01*
X194210230Y-91390058D01*
X197010086Y-91390058D01*
X199809942Y-91390058D01*
X199809942Y-94189913D01*
G37*
G36*
X183779395Y-108610086D02*
G01*
X183779395Y-109799568D01*
X182589913Y-109799568D01*
X181400432Y-109799568D01*
X181400432Y-108610086D01*
X181400432Y-107420605D01*
X182589913Y-107420605D01*
X183779395Y-107420605D01*
X183779395Y-108610086D01*
G37*
G36*
X190989481Y-105810230D02*
G01*
X190989481Y-106615418D01*
X190586887Y-106615418D01*
X190184294Y-106615418D01*
X190184294Y-105810230D01*
X190184294Y-105005043D01*
X190586887Y-105005043D01*
X190989481Y-105005043D01*
X190989481Y-105810230D01*
G37*
G36*
X190184294Y-101400000D02*
G01*
X190184294Y-101784294D01*
X190586887Y-101784294D01*
X190989481Y-101784294D01*
X190989481Y-102186887D01*
X190989481Y-102589481D01*
X190586887Y-102589481D01*
X190184294Y-102589481D01*
X190184294Y-103394668D01*
X190184294Y-104199856D01*
X189397406Y-104199856D01*
X188610519Y-104199856D01*
X188610519Y-103797262D01*
X188610519Y-103394668D01*
X188207925Y-103394668D01*
X187805331Y-103394668D01*
X187805331Y-102992075D01*
X187805331Y-102589481D01*
X188207925Y-102589481D01*
X188610519Y-102589481D01*
X188610519Y-102992075D01*
X188610519Y-103394668D01*
X189013112Y-103394668D01*
X189415706Y-103394668D01*
X189415706Y-102589481D01*
X189415706Y-101784294D01*
X189013112Y-101784294D01*
X188610519Y-101784294D01*
X188610519Y-101400000D01*
X188610519Y-101015706D01*
X189397406Y-101015706D01*
X190184294Y-101015706D01*
X190184294Y-101400000D01*
G37*
G36*
X194210230Y-100613112D02*
G01*
X194210230Y-101015706D01*
X193807637Y-101015706D01*
X193405043Y-101015706D01*
X193405043Y-100613112D01*
X193405043Y-100210519D01*
X193807637Y-100210519D01*
X194210230Y-100210519D01*
X194210230Y-100613112D01*
G37*
G36*
X189415706Y-99807925D02*
G01*
X189415706Y-100210519D01*
X189013112Y-100210519D01*
X188610519Y-100210519D01*
X188610519Y-99807925D01*
X188610519Y-99405331D01*
X189013112Y-99405331D01*
X189415706Y-99405331D01*
X189415706Y-99807925D01*
G37*
G36*
X195015418Y-106212824D02*
G01*
X195015418Y-106615418D01*
X194612824Y-106615418D01*
X194210230Y-106615418D01*
X194210230Y-106212824D01*
X194210230Y-105810230D01*
X194612824Y-105810230D01*
X195015418Y-105810230D01*
X195015418Y-106212824D01*
G37*
G36*
X183779395Y-94189913D02*
G01*
X183779395Y-95379395D01*
X182589913Y-95379395D01*
X181400432Y-95379395D01*
X181400432Y-94189913D01*
X181400432Y-93000432D01*
X182589913Y-93000432D01*
X183779395Y-93000432D01*
X183779395Y-94189913D01*
G37*
G36*
X198199568Y-94189913D02*
G01*
X198199568Y-95379395D01*
X197010086Y-95379395D01*
X195820605Y-95379395D01*
X195820605Y-94189913D01*
X195820605Y-93000432D01*
X197010086Y-93000432D01*
X198199568Y-93000432D01*
X198199568Y-94189913D01*
G37*
%TD*%
M02*
