%TF.GenerationSoftware,KiCad,Pcbnew,9.0.2*%
%TF.CreationDate,2025-11-09T18:53:55+05:30*%
%TF.ProjectId,BUSINESSCARD,42555349-4e45-4535-9343-4152442e6b69,rev?*%
%TF.SameCoordinates,Original*%
%TF.FileFunction,Copper,L2,Bot*%
%TF.FilePolarity,Positive*%
%FSLAX46Y46*%
G04 Gerber Fmt 4.6, Leading zero omitted, Abs format (unit mm)*
G04 Created by KiCad (PCBNEW 9.0.2) date 2025-11-09 18:53:55*
%MOMM*%
%LPD*%
G01*
G04 APERTURE LIST*
%TA.AperFunction,ViaPad*%
%ADD10C,2.000000*%
%TD*%
G04 APERTURE END LIST*
D10*
%TO.N,*%
X230000000Y-105000000D03*
X245000000Y-110000000D03*
X245000000Y-100000000D03*
X230000000Y-95000000D03*
%TD*%
%TA.AperFunction,NonConductor*%
G36*
X252943039Y-62019685D02*
G01*
X252988794Y-62072489D01*
X253000000Y-62124000D01*
X253000000Y-104948638D01*
X252980315Y-105015677D01*
X252963681Y-105036319D01*
X245036315Y-112963684D01*
X244974992Y-112997169D01*
X244948642Y-113000003D01*
X172055825Y-113004426D01*
X171988784Y-112984746D01*
X171943026Y-112931944D01*
X171931817Y-112880229D01*
X171934357Y-111283342D01*
X171936585Y-109881902D01*
X243499500Y-109881902D01*
X243499500Y-110118097D01*
X243536446Y-110351368D01*
X243609433Y-110575996D01*
X243716657Y-110786433D01*
X243855483Y-110977510D01*
X244022490Y-111144517D01*
X244213567Y-111283343D01*
X244312991Y-111334002D01*
X244424003Y-111390566D01*
X244424005Y-111390566D01*
X244424008Y-111390568D01*
X244544412Y-111429689D01*
X244648631Y-111463553D01*
X244881903Y-111500500D01*
X244881908Y-111500500D01*
X245118097Y-111500500D01*
X245351368Y-111463553D01*
X245575992Y-111390568D01*
X245786433Y-111283343D01*
X245977510Y-111144517D01*
X246144517Y-110977510D01*
X246283343Y-110786433D01*
X246390568Y-110575992D01*
X246463553Y-110351368D01*
X246500500Y-110118097D01*
X246500500Y-109881902D01*
X246463553Y-109648631D01*
X246429689Y-109544412D01*
X246390568Y-109424008D01*
X246390566Y-109424005D01*
X246390566Y-109424003D01*
X246283342Y-109213566D01*
X246144517Y-109022490D01*
X245977510Y-108855483D01*
X245786433Y-108716657D01*
X245575996Y-108609433D01*
X245351368Y-108536446D01*
X245118097Y-108499500D01*
X245118092Y-108499500D01*
X244881908Y-108499500D01*
X244881903Y-108499500D01*
X244648631Y-108536446D01*
X244424003Y-108609433D01*
X244213566Y-108716657D01*
X244104550Y-108795862D01*
X244022490Y-108855483D01*
X244022488Y-108855485D01*
X244022487Y-108855485D01*
X243855485Y-109022487D01*
X243855485Y-109022488D01*
X243855483Y-109022490D01*
X243840366Y-109043297D01*
X243716657Y-109213566D01*
X243609433Y-109424003D01*
X243536446Y-109648631D01*
X243499500Y-109881902D01*
X171936585Y-109881902D01*
X171944536Y-104881902D01*
X228499500Y-104881902D01*
X228499500Y-105118097D01*
X228536446Y-105351368D01*
X228609433Y-105575996D01*
X228716657Y-105786433D01*
X228855483Y-105977510D01*
X229022490Y-106144517D01*
X229213567Y-106283343D01*
X229312991Y-106334002D01*
X229424003Y-106390566D01*
X229424005Y-106390566D01*
X229424008Y-106390568D01*
X229544412Y-106429689D01*
X229648631Y-106463553D01*
X229881903Y-106500500D01*
X229881908Y-106500500D01*
X230118097Y-106500500D01*
X230351368Y-106463553D01*
X230575992Y-106390568D01*
X230786433Y-106283343D01*
X230977510Y-106144517D01*
X231144517Y-105977510D01*
X231283343Y-105786433D01*
X231390568Y-105575992D01*
X231463553Y-105351368D01*
X231481952Y-105235202D01*
X231500500Y-105118097D01*
X231500500Y-104881902D01*
X231463553Y-104648631D01*
X231402639Y-104461160D01*
X231390568Y-104424008D01*
X231390566Y-104424005D01*
X231390566Y-104424003D01*
X231283342Y-104213566D01*
X231144517Y-104022490D01*
X230977510Y-103855483D01*
X230786433Y-103716657D01*
X230575996Y-103609433D01*
X230351368Y-103536446D01*
X230118097Y-103499500D01*
X230118092Y-103499500D01*
X229881908Y-103499500D01*
X229881903Y-103499500D01*
X229648631Y-103536446D01*
X229424003Y-103609433D01*
X229213566Y-103716657D01*
X229104550Y-103795862D01*
X229022490Y-103855483D01*
X229022488Y-103855485D01*
X229022487Y-103855485D01*
X228855485Y-104022487D01*
X228855485Y-104022488D01*
X228855483Y-104022490D01*
X228795862Y-104104550D01*
X228716657Y-104213566D01*
X228609433Y-104424003D01*
X228536446Y-104648631D01*
X228499500Y-104881902D01*
X171944536Y-104881902D01*
X171950744Y-100977511D01*
X171952486Y-99881902D01*
X243499500Y-99881902D01*
X243499500Y-100118097D01*
X243536446Y-100351368D01*
X243609433Y-100575996D01*
X243716657Y-100786433D01*
X243855483Y-100977510D01*
X244022490Y-101144517D01*
X244213567Y-101283343D01*
X244312991Y-101334002D01*
X244424003Y-101390566D01*
X244424005Y-101390566D01*
X244424008Y-101390568D01*
X244544412Y-101429689D01*
X244648631Y-101463553D01*
X244881903Y-101500500D01*
X244881908Y-101500500D01*
X245118097Y-101500500D01*
X245351368Y-101463553D01*
X245575992Y-101390568D01*
X245786433Y-101283343D01*
X245977510Y-101144517D01*
X246144517Y-100977510D01*
X246283343Y-100786433D01*
X246390568Y-100575992D01*
X246463553Y-100351368D01*
X246500500Y-100118097D01*
X246500500Y-99881902D01*
X246463553Y-99648631D01*
X246390566Y-99424003D01*
X246283342Y-99213566D01*
X246144517Y-99022490D01*
X245977510Y-98855483D01*
X245786433Y-98716657D01*
X245575996Y-98609433D01*
X245351368Y-98536446D01*
X245118097Y-98499500D01*
X245118092Y-98499500D01*
X244881908Y-98499500D01*
X244881903Y-98499500D01*
X244648631Y-98536446D01*
X244424003Y-98609433D01*
X244213566Y-98716657D01*
X244104550Y-98795862D01*
X244022490Y-98855483D01*
X244022488Y-98855485D01*
X244022487Y-98855485D01*
X243855485Y-99022487D01*
X243855485Y-99022488D01*
X243855483Y-99022490D01*
X243795862Y-99104550D01*
X243716657Y-99213566D01*
X243609433Y-99424003D01*
X243536446Y-99648631D01*
X243499500Y-99881902D01*
X171952486Y-99881902D01*
X171952494Y-99876839D01*
X171959332Y-95575996D01*
X171960436Y-94881902D01*
X228499500Y-94881902D01*
X228499500Y-95118097D01*
X228536446Y-95351368D01*
X228609433Y-95575996D01*
X228716657Y-95786433D01*
X228855483Y-95977510D01*
X229022490Y-96144517D01*
X229213567Y-96283343D01*
X229312991Y-96334002D01*
X229424003Y-96390566D01*
X229424005Y-96390566D01*
X229424008Y-96390568D01*
X229544412Y-96429689D01*
X229648631Y-96463553D01*
X229881903Y-96500500D01*
X229881908Y-96500500D01*
X230118097Y-96500500D01*
X230351368Y-96463553D01*
X230575992Y-96390568D01*
X230786433Y-96283343D01*
X230977510Y-96144517D01*
X231144517Y-95977510D01*
X231283343Y-95786433D01*
X231390568Y-95575992D01*
X231463553Y-95351368D01*
X231500500Y-95118097D01*
X231500500Y-94881902D01*
X231463553Y-94648631D01*
X231390566Y-94424003D01*
X231283342Y-94213566D01*
X231144517Y-94022490D01*
X230977510Y-93855483D01*
X230786433Y-93716657D01*
X230575996Y-93609433D01*
X230351368Y-93536446D01*
X230118097Y-93499500D01*
X230118092Y-93499500D01*
X229881908Y-93499500D01*
X229881903Y-93499500D01*
X229648631Y-93536446D01*
X229424003Y-93609433D01*
X229213566Y-93716657D01*
X229104550Y-93795862D01*
X229022490Y-93855483D01*
X229022488Y-93855485D01*
X229022487Y-93855485D01*
X228855485Y-94022487D01*
X228855485Y-94022488D01*
X228855483Y-94022490D01*
X228795862Y-94104550D01*
X228716657Y-94213566D01*
X228609433Y-94424003D01*
X228536446Y-94648631D01*
X228499500Y-94881902D01*
X171960436Y-94881902D01*
X171999918Y-70051244D01*
X172019709Y-69984238D01*
X172036232Y-69963767D01*
X176647514Y-65352486D01*
X247249500Y-65352486D01*
X247249500Y-65647513D01*
X247281571Y-65891113D01*
X247288007Y-65939993D01*
X247298673Y-65979798D01*
X247364361Y-66224951D01*
X247364364Y-66224961D01*
X247477254Y-66497500D01*
X247477258Y-66497510D01*
X247624761Y-66752993D01*
X247804352Y-66987040D01*
X247804358Y-66987047D01*
X248012952Y-67195641D01*
X248012959Y-67195647D01*
X248247006Y-67375238D01*
X248502489Y-67522741D01*
X248502490Y-67522741D01*
X248502493Y-67522743D01*
X248775048Y-67635639D01*
X249060007Y-67711993D01*
X249352494Y-67750500D01*
X249352501Y-67750500D01*
X249647499Y-67750500D01*
X249647506Y-67750500D01*
X249939993Y-67711993D01*
X250224952Y-67635639D01*
X250497507Y-67522743D01*
X250752994Y-67375238D01*
X250987042Y-67195646D01*
X251195646Y-66987042D01*
X251375238Y-66752994D01*
X251522743Y-66497507D01*
X251635639Y-66224952D01*
X251711993Y-65939993D01*
X251750500Y-65647506D01*
X251750500Y-65352494D01*
X251711993Y-65060007D01*
X251635639Y-64775048D01*
X251522743Y-64502493D01*
X251375238Y-64247006D01*
X251195646Y-64012958D01*
X251195641Y-64012952D01*
X250987047Y-63804358D01*
X250987040Y-63804352D01*
X250752993Y-63624761D01*
X250497510Y-63477258D01*
X250497500Y-63477254D01*
X250224961Y-63364364D01*
X250224954Y-63364362D01*
X250224952Y-63364361D01*
X249939993Y-63288007D01*
X249891113Y-63281571D01*
X249647513Y-63249500D01*
X249647506Y-63249500D01*
X249352494Y-63249500D01*
X249352486Y-63249500D01*
X249074085Y-63286153D01*
X249060007Y-63288007D01*
X248775048Y-63364361D01*
X248775038Y-63364364D01*
X248502499Y-63477254D01*
X248502489Y-63477258D01*
X248247006Y-63624761D01*
X248012959Y-63804352D01*
X248012952Y-63804358D01*
X247804358Y-64012952D01*
X247804352Y-64012959D01*
X247624761Y-64247006D01*
X247477258Y-64502489D01*
X247477254Y-64502499D01*
X247364364Y-64775038D01*
X247364361Y-64775048D01*
X247288008Y-65060004D01*
X247288006Y-65060015D01*
X247249500Y-65352486D01*
X176647514Y-65352486D01*
X179963681Y-62036319D01*
X180025004Y-62002834D01*
X180051362Y-62000000D01*
X252876000Y-62000000D01*
X252943039Y-62019685D01*
G37*
%TD.AperFunction*%
M02*
